%TF.GenerationSoftware,KiCad,Pcbnew,9.0.6*%
%TF.CreationDate,2026-04-21T21:21:03+02:00*%
%TF.ProjectId,STM32WB_PCB2,53544d33-3257-4425-9f50-4342322e6b69,rev?*%
%TF.SameCoordinates,PX371f540PY6f01f80*%
%TF.FileFunction,Copper,L1,Top*%
%TF.FilePolarity,Positive*%
%FSLAX46Y46*%
G04 Gerber Fmt 4.6, Leading zero omitted, Abs format (unit mm)*
G04 Created by KiCad (PCBNEW 9.0.6) date 2026-04-21 21:21:03*
%MOMM*%
%LPD*%
G01*
G04 APERTURE LIST*
G04 Aperture macros list*
%AMRoundRect*
0 Rectangle with rounded corners*
0 $1 Rounding radius*
0 $2 $3 $4 $5 $6 $7 $8 $9 X,Y pos of 4 corners*
0 Add a 4 corners polygon primitive as box body*
4,1,4,$2,$3,$4,$5,$6,$7,$8,$9,$2,$3,0*
0 Add four circle primitives for the rounded corners*
1,1,$1+$1,$2,$3*
1,1,$1+$1,$4,$5*
1,1,$1+$1,$6,$7*
1,1,$1+$1,$8,$9*
0 Add four rect primitives between the rounded corners*
20,1,$1+$1,$2,$3,$4,$5,0*
20,1,$1+$1,$4,$5,$6,$7,0*
20,1,$1+$1,$6,$7,$8,$9,0*
20,1,$1+$1,$8,$9,$2,$3,0*%
G04 Aperture macros list end*
%TA.AperFunction,SMDPad,CuDef*%
%ADD10RoundRect,0.140000X-0.170000X0.140000X-0.170000X-0.140000X0.170000X-0.140000X0.170000X0.140000X0*%
%TD*%
%TA.AperFunction,SMDPad,CuDef*%
%ADD11RoundRect,0.140000X0.140000X0.170000X-0.140000X0.170000X-0.140000X-0.170000X0.140000X-0.170000X0*%
%TD*%
%TA.AperFunction,SMDPad,CuDef*%
%ADD12RoundRect,0.147500X0.172500X-0.147500X0.172500X0.147500X-0.172500X0.147500X-0.172500X-0.147500X0*%
%TD*%
%TA.AperFunction,HeatsinkPad*%
%ADD13R,5.600000X5.600000*%
%TD*%
%TA.AperFunction,SMDPad,CuDef*%
%ADD14RoundRect,0.062500X0.375000X-0.062500X0.375000X0.062500X-0.375000X0.062500X-0.375000X-0.062500X0*%
%TD*%
%TA.AperFunction,SMDPad,CuDef*%
%ADD15RoundRect,0.062500X0.062500X-0.375000X0.062500X0.375000X-0.062500X0.375000X-0.062500X-0.375000X0*%
%TD*%
%TA.AperFunction,SMDPad,CuDef*%
%ADD16RoundRect,0.200000X0.200000X-0.250000X0.200000X0.250000X-0.200000X0.250000X-0.200000X-0.250000X0*%
%TD*%
%TA.AperFunction,ComponentPad*%
%ADD17C,0.700000*%
%TD*%
%TA.AperFunction,ComponentPad*%
%ADD18C,4.400000*%
%TD*%
%TA.AperFunction,SMDPad,CuDef*%
%ADD19RoundRect,0.140000X-0.140000X-0.170000X0.140000X-0.170000X0.140000X0.170000X-0.140000X0.170000X0*%
%TD*%
%TA.AperFunction,SMDPad,CuDef*%
%ADD20RoundRect,0.135000X0.185000X-0.135000X0.185000X0.135000X-0.185000X0.135000X-0.185000X-0.135000X0*%
%TD*%
%TA.AperFunction,SMDPad,CuDef*%
%ADD21RoundRect,0.147500X-0.147500X-0.172500X0.147500X-0.172500X0.147500X0.172500X-0.147500X0.172500X0*%
%TD*%
%TA.AperFunction,SMDPad,CuDef*%
%ADD22RoundRect,0.140000X0.170000X-0.140000X0.170000X0.140000X-0.170000X0.140000X-0.170000X-0.140000X0*%
%TD*%
%TA.AperFunction,SMDPad,CuDef*%
%ADD23RoundRect,0.135000X0.135000X0.185000X-0.135000X0.185000X-0.135000X-0.185000X0.135000X-0.185000X0*%
%TD*%
%TA.AperFunction,SMDPad,CuDef*%
%ADD24RoundRect,0.225000X0.225000X0.250000X-0.225000X0.250000X-0.225000X-0.250000X0.225000X-0.250000X0*%
%TD*%
%TA.AperFunction,SMDPad,CuDef*%
%ADD25RoundRect,0.225000X-0.250000X0.225000X-0.250000X-0.225000X0.250000X-0.225000X0.250000X0.225000X0*%
%TD*%
%TA.AperFunction,SMDPad,CuDef*%
%ADD26RoundRect,0.200000X-0.800000X0.200000X-0.800000X-0.200000X0.800000X-0.200000X0.800000X0.200000X0*%
%TD*%
%TA.AperFunction,SMDPad,CuDef*%
%ADD27RoundRect,0.135000X-0.185000X0.135000X-0.185000X-0.135000X0.185000X-0.135000X0.185000X0.135000X0*%
%TD*%
%TA.AperFunction,SMDPad,CuDef*%
%ADD28RoundRect,0.150000X-0.350000X0.150000X-0.350000X-0.150000X0.350000X-0.150000X0.350000X0.150000X0*%
%TD*%
%TA.AperFunction,SMDPad,CuDef*%
%ADD29RoundRect,0.075000X-0.500000X0.075000X-0.500000X-0.075000X0.500000X-0.075000X0.500000X0.075000X0*%
%TD*%
%TA.AperFunction,HeatsinkPad*%
%ADD30O,2.100000X1.000000*%
%TD*%
%TA.AperFunction,HeatsinkPad*%
%ADD31O,1.800000X1.000000*%
%TD*%
%TA.AperFunction,SMDPad,CuDef*%
%ADD32C,1.000000*%
%TD*%
%TA.AperFunction,ComponentPad*%
%ADD33R,1.700000X1.700000*%
%TD*%
%TA.AperFunction,ComponentPad*%
%ADD34C,1.700000*%
%TD*%
%TA.AperFunction,SMDPad,CuDef*%
%ADD35RoundRect,0.150000X-0.512500X-0.150000X0.512500X-0.150000X0.512500X0.150000X-0.512500X0.150000X0*%
%TD*%
%TA.AperFunction,SMDPad,CuDef*%
%ADD36RoundRect,0.225000X-0.225000X-0.250000X0.225000X-0.250000X0.225000X0.250000X-0.225000X0.250000X0*%
%TD*%
%TA.AperFunction,SMDPad,CuDef*%
%ADD37RoundRect,0.135000X-0.135000X-0.185000X0.135000X-0.185000X0.135000X0.185000X-0.135000X0.185000X0*%
%TD*%
%TA.AperFunction,SMDPad,CuDef*%
%ADD38RoundRect,0.150000X0.150000X0.400000X-0.150000X0.400000X-0.150000X-0.400000X0.150000X-0.400000X0*%
%TD*%
%TA.AperFunction,ConnectorPad*%
%ADD39C,0.787400*%
%TD*%
%TA.AperFunction,SMDPad,CuDef*%
%ADD40R,0.275000X0.700000*%
%TD*%
%TA.AperFunction,SMDPad,CuDef*%
%ADD41R,0.450000X0.245000*%
%TD*%
%TA.AperFunction,SMDPad,CuDef*%
%ADD42RoundRect,0.218750X-0.218750X-0.381250X0.218750X-0.381250X0.218750X0.381250X-0.218750X0.381250X0*%
%TD*%
%TA.AperFunction,SMDPad,CuDef*%
%ADD43RoundRect,0.250000X-0.275000X-0.250000X0.275000X-0.250000X0.275000X0.250000X-0.275000X0.250000X0*%
%TD*%
%TA.AperFunction,SMDPad,CuDef*%
%ADD44RoundRect,0.250000X-0.850000X-0.275000X0.850000X-0.275000X0.850000X0.275000X-0.850000X0.275000X0*%
%TD*%
%TA.AperFunction,ViaPad*%
%ADD45C,0.650000*%
%TD*%
%TA.AperFunction,ViaPad*%
%ADD46C,0.700000*%
%TD*%
%TA.AperFunction,ViaPad*%
%ADD47C,0.900000*%
%TD*%
%TA.AperFunction,Conductor*%
%ADD48C,0.349000*%
%TD*%
%TA.AperFunction,Conductor*%
%ADD49C,0.250000*%
%TD*%
%TA.AperFunction,Conductor*%
%ADD50C,0.200000*%
%TD*%
%TA.AperFunction,Conductor*%
%ADD51C,1.000000*%
%TD*%
%TA.AperFunction,Conductor*%
%ADD52C,0.500000*%
%TD*%
%TA.AperFunction,Conductor*%
%ADD53C,0.300000*%
%TD*%
%TA.AperFunction,Conductor*%
%ADD54C,0.286000*%
%TD*%
%TA.AperFunction,Conductor*%
%ADD55C,0.330000*%
%TD*%
G04 APERTURE END LIST*
D10*
%TO.P,C9,2*%
%TO.N,GND*%
X39100000Y13670000D03*
%TO.P,C9,1*%
%TO.N,+3.3V*%
X39100000Y14630000D03*
%TD*%
D11*
%TO.P,C5,2*%
%TO.N,GND*%
X30720000Y19900000D03*
%TO.P,C5,1*%
%TO.N,+3.3V*%
X31680000Y19900000D03*
%TD*%
%TO.P,C2,2*%
%TO.N,GND*%
X30720000Y18900000D03*
%TO.P,C2,1*%
%TO.N,+3.3V*%
X31680000Y18900000D03*
%TD*%
D12*
%TO.P,L1,1,1*%
%TO.N,/SMPSLX*%
X32981000Y19500000D03*
%TO.P,L1,2,2*%
%TO.N,/SMPSLX_L*%
X32981000Y20470000D03*
%TD*%
D13*
%TO.P,U1,49,VSS*%
%TO.N,GND*%
X34231000Y14185000D03*
D14*
%TO.P,U1,48,VDD*%
%TO.N,+3.3V*%
X30793500Y11435000D03*
%TO.P,U1,47,PB7*%
%TO.N,unconnected-(U1-PB7-Pad47)*%
X30793500Y11935000D03*
%TO.P,U1,46,PB6*%
%TO.N,unconnected-(U1-PB6-Pad46)*%
X30793500Y12435000D03*
%TO.P,U1,45,PB5*%
%TO.N,unconnected-(U1-PB5-Pad45)*%
X30793500Y12935000D03*
%TO.P,U1,44,PB4*%
%TO.N,unconnected-(U1-PB4-Pad44)*%
X30793500Y13435000D03*
%TO.P,U1,43,PB3*%
%TO.N,/SWD_TRC*%
X30793500Y13935000D03*
%TO.P,U1,42,PA15*%
%TO.N,unconnected-(U1-PA15-Pad42)*%
X30793500Y14435000D03*
%TO.P,U1,41,PA14*%
%TO.N,/SWD_CLK*%
X30793500Y14935000D03*
%TO.P,U1,40,VDDUSB*%
%TO.N,+3.3V*%
X30793500Y15435000D03*
%TO.P,U1,39,PA13*%
%TO.N,/SWD_DIO*%
X30793500Y15935000D03*
%TO.P,U1,38,PA12*%
%TO.N,/USB_D+*%
X30793500Y16435000D03*
%TO.P,U1,37,PA11*%
%TO.N,/USB_D-*%
X30793500Y16935000D03*
D15*
%TO.P,U1,36,PA10*%
%TO.N,unconnected-(U1-PA10-Pad36)*%
X31481000Y17622500D03*
%TO.P,U1,35,VDD*%
%TO.N,+3.3V*%
X31981000Y17622500D03*
%TO.P,U1,34,VDDSMPS*%
X32481000Y17622500D03*
%TO.P,U1,33,VLXSMPS*%
%TO.N,/SMPSLX*%
X32981000Y17622500D03*
%TO.P,U1,32,VSSSMPS*%
%TO.N,GND*%
X33481000Y17622500D03*
%TO.P,U1,31,VFBSMPS*%
%TO.N,/SMPSFB*%
X33981000Y17622500D03*
%TO.P,U1,30,PE4*%
%TO.N,unconnected-(U1-PE4-Pad30)*%
X34481000Y17622500D03*
%TO.P,U1,29,PB1*%
%TO.N,unconnected-(U1-PB1-Pad29)*%
X34981000Y17622500D03*
%TO.P,U1,28,PB0*%
%TO.N,unconnected-(U1-PB0-Pad28)*%
X35481000Y17622500D03*
%TO.P,U1,27,AT1*%
%TO.N,unconnected-(U1-AT1-Pad27)*%
X35981000Y17622500D03*
%TO.P,U1,26,AT0*%
%TO.N,unconnected-(U1-AT0-Pad26)*%
X36481000Y17622500D03*
%TO.P,U1,25,OSC_IN*%
%TO.N,/HSE_IN*%
X36981000Y17622500D03*
D14*
%TO.P,U1,24,OSC_OUT*%
%TO.N,/HSE_OUT*%
X37668500Y16935000D03*
%TO.P,U1,23,VDDRF*%
%TO.N,+3.3V*%
X37668500Y16435000D03*
%TO.P,U1,22,VSSRF*%
%TO.N,GND*%
X37668500Y15935000D03*
%TO.P,U1,21,RF1*%
%TO.N,/RF*%
X37668500Y15435000D03*
%TO.P,U1,20,VDD*%
%TO.N,+3.3V*%
X37668500Y14935000D03*
%TO.P,U1,19,PB2*%
%TO.N,unconnected-(U1-PB2-Pad19)*%
X37668500Y14435000D03*
%TO.P,U1,18,PA9*%
%TO.N,unconnected-(U1-PA9-Pad18)*%
X37668500Y13935000D03*
%TO.P,U1,17,PA8*%
%TO.N,unconnected-(U1-PA8-Pad17)*%
X37668500Y13435000D03*
%TO.P,U1,16,PA7*%
%TO.N,/MCU_LED_A*%
X37668500Y12935000D03*
%TO.P,U1,15,PA6*%
%TO.N,unconnected-(U1-PA6-Pad15)*%
X37668500Y12435000D03*
%TO.P,U1,14,PA5*%
%TO.N,unconnected-(U1-PA5-Pad14)*%
X37668500Y11935000D03*
%TO.P,U1,13,PA4*%
%TO.N,unconnected-(U1-PA4-Pad13)*%
X37668500Y11435000D03*
D15*
%TO.P,U1,12,PA3*%
%TO.N,/UART_RX*%
X36981000Y10747500D03*
%TO.P,U1,11,PA2*%
%TO.N,/UART_TX*%
X36481000Y10747500D03*
%TO.P,U1,10,PA1*%
%TO.N,unconnected-(U1-PA1-Pad10)*%
X35981000Y10747500D03*
%TO.P,U1,9,PA0*%
%TO.N,unconnected-(U1-PA0-Pad9)*%
X35481000Y10747500D03*
%TO.P,U1,8,VDDA*%
%TO.N,+3.3V*%
X34981000Y10747500D03*
%TO.P,U1,7,NRST*%
%TO.N,/SWD_NRST*%
X34481000Y10747500D03*
%TO.P,U1,6,PB9*%
%TO.N,unconnected-(U1-PB9-Pad6)*%
X33981000Y10747500D03*
%TO.P,U1,5,PB8*%
%TO.N,unconnected-(U1-PB8-Pad5)*%
X33481000Y10747500D03*
%TO.P,U1,4,PH3*%
%TO.N,/BOOT*%
X32981000Y10747500D03*
%TO.P,U1,3,PC15*%
%TO.N,/LSE_OUT*%
X32481000Y10747500D03*
%TO.P,U1,2,PC14*%
%TO.N,/LSE_IN*%
X31981000Y10747500D03*
%TO.P,U1,1,VBAT*%
%TO.N,+3.3V*%
X31481000Y10747500D03*
%TD*%
D10*
%TO.P,C10,2*%
%TO.N,GND*%
X39350000Y16370000D03*
%TO.P,C10,1*%
%TO.N,+3.3V*%
X39350000Y17330000D03*
%TD*%
D16*
%TO.P,X2,4,4*%
%TO.N,GND*%
X39400000Y19700000D03*
%TO.P,X2,3,3*%
%TO.N,/HSE_IN*%
X39400000Y21100000D03*
%TO.P,X2,2,2*%
%TO.N,GND*%
X40500000Y21100000D03*
%TO.P,X2,1,1*%
%TO.N,/HSE_OUT*%
X40500000Y19700000D03*
%TD*%
D17*
%TO.P,H2,1,1*%
%TO.N,GND*%
X48800000Y25650000D03*
X49283274Y26816726D03*
X49283274Y24483274D03*
X50450000Y27300000D03*
D18*
X50450000Y25650000D03*
D17*
X50450000Y24000000D03*
X51616726Y26816726D03*
X51616726Y24483274D03*
X52100000Y25650000D03*
%TD*%
D19*
%TO.P,C14,1*%
%TO.N,/LSE_OUT*%
X32650000Y8480000D03*
%TO.P,C14,2*%
%TO.N,GND*%
X33610000Y8480000D03*
%TD*%
D10*
%TO.P,C18,1*%
%TO.N,/RF*%
X40650000Y15435000D03*
%TO.P,C18,2*%
%TO.N,GND*%
X40650000Y14475000D03*
%TD*%
%TO.P,C19,1*%
%TO.N,/RF_MATCH*%
X43750000Y15435000D03*
%TO.P,C19,2*%
%TO.N,GND*%
X43750000Y14475000D03*
%TD*%
D20*
%TO.P,R7,1*%
%TO.N,/CONN_UART_TX*%
X37450000Y8390000D03*
%TO.P,R7,2*%
%TO.N,/UART_TX*%
X37450000Y9410000D03*
%TD*%
D21*
%TO.P,L3,1,1*%
%TO.N,/RF*%
X41715000Y15435000D03*
%TO.P,L3,2,2*%
%TO.N,/RF_MATCH*%
X42685000Y15435000D03*
%TD*%
D22*
%TO.P,C6,1*%
%TO.N,+3.3V*%
X29450000Y11420000D03*
%TO.P,C6,2*%
%TO.N,GND*%
X29450000Y12380000D03*
%TD*%
D23*
%TO.P,R6,1*%
%TO.N,/BOOT*%
X18360000Y5470000D03*
%TO.P,R6,2*%
%TO.N,/BOOT_SW*%
X17340000Y5470000D03*
%TD*%
D24*
%TO.P,C3,1*%
%TO.N,+3.3V*%
X28975000Y10150000D03*
%TO.P,C3,2*%
%TO.N,GND*%
X27425000Y10150000D03*
%TD*%
D11*
%TO.P,C20,1*%
%TO.N,+3.3V*%
X32330000Y3200000D03*
%TO.P,C20,2*%
%TO.N,GND*%
X31370000Y3200000D03*
%TD*%
D17*
%TO.P,H4,1,1*%
%TO.N,GND*%
X1300000Y2900000D03*
X1783274Y4066726D03*
X1783274Y1733274D03*
X2950000Y4550000D03*
D18*
X2950000Y2900000D03*
D17*
X2950000Y1250000D03*
X4116726Y4066726D03*
X4116726Y1733274D03*
X4600000Y2900000D03*
%TD*%
D11*
%TO.P,C15,1*%
%TO.N,/LSE_IN*%
X31250000Y8480000D03*
%TO.P,C15,2*%
%TO.N,GND*%
X30290000Y8480000D03*
%TD*%
D25*
%TO.P,C17,1*%
%TO.N,+3.3V*%
X17870000Y23122500D03*
%TO.P,C17,2*%
%TO.N,GND*%
X17870000Y21572500D03*
%TD*%
D26*
%TO.P,SW1,1,1*%
%TO.N,/SWD_NRST*%
X9950000Y7250000D03*
%TO.P,SW1,2,2*%
%TO.N,GND*%
X9950000Y3050000D03*
%TD*%
D27*
%TO.P,R3,1*%
%TO.N,/3.3V_LED_C*%
X19425000Y20887000D03*
%TO.P,R3,2*%
%TO.N,GND*%
X19425000Y19867000D03*
%TD*%
D28*
%TO.P,J1,A1,GND*%
%TO.N,GND*%
X7274000Y19905000D03*
%TO.P,J1,A4,VBUS*%
%TO.N,+5V*%
X7274000Y19105000D03*
%TO.P,J1,A9,VBUS*%
X7274000Y14305000D03*
%TO.P,J1,A12,GND*%
%TO.N,GND*%
X7274000Y13505000D03*
D29*
%TO.P,J1,A5,CC1*%
%TO.N,/USBC_CC1*%
X7190000Y17955000D03*
%TO.P,J1,A6,D+*%
%TO.N,/USBC_D+*%
X7190000Y16955000D03*
%TO.P,J1,A7,D-*%
%TO.N,/USBC_D-*%
X7190000Y16455000D03*
%TO.P,J1,A8,SBU1*%
%TO.N,unconnected-(J1-SBU1-PadA8)*%
X7190000Y15455000D03*
D28*
%TO.P,J1,B1,GND*%
%TO.N,GND*%
X7274000Y13505000D03*
%TO.P,J1,B4,VBUS*%
%TO.N,+5V*%
X7274000Y14305000D03*
D29*
%TO.P,J1,B5,CC2*%
%TO.N,/USBC_CC2*%
X7190000Y14955000D03*
%TO.P,J1,B6,D+*%
%TO.N,/USBC_D+*%
X7190000Y15955000D03*
%TO.P,J1,B7,D-*%
%TO.N,/USBC_D-*%
X7190000Y17455000D03*
%TO.P,J1,B8,SBU2*%
%TO.N,unconnected-(J1-SBU2-PadB8)*%
X7190000Y18455000D03*
D28*
%TO.P,J1,B9,VBUS*%
%TO.N,+5V*%
X7274000Y19105000D03*
%TO.P,J1,B12,GND*%
%TO.N,GND*%
X7274000Y19905000D03*
D30*
%TO.P,J1,S1,SHIELD*%
X6615000Y21025000D03*
D31*
X2435000Y21025000D03*
D30*
X6615000Y12385000D03*
D31*
X2435000Y12385000D03*
%TD*%
D10*
%TO.P,C12,1*%
%TO.N,/SWD_NRST*%
X21150000Y7105000D03*
%TO.P,C12,2*%
%TO.N,GND*%
X21150000Y6145000D03*
%TD*%
D17*
%TO.P,H1,1,1*%
%TO.N,GND*%
X1300000Y25650000D03*
X1783274Y26816726D03*
X1783274Y24483274D03*
X2950000Y27300000D03*
D18*
X2950000Y25650000D03*
D17*
X2950000Y24000000D03*
X4116726Y26816726D03*
X4116726Y24483274D03*
X4600000Y25650000D03*
%TD*%
D19*
%TO.P,C7,1*%
%TO.N,+3.3V*%
X35220000Y9400000D03*
%TO.P,C7,2*%
%TO.N,GND*%
X36180000Y9400000D03*
%TD*%
D20*
%TO.P,R4,1*%
%TO.N,GND*%
X41290000Y7652000D03*
%TO.P,R4,2*%
%TO.N,/MCU_LED_C*%
X41290000Y8672000D03*
%TD*%
D32*
%TO.P,FID3,*%
%TO.N,*%
X46200000Y3000000D03*
%TD*%
D24*
%TO.P,C16,1*%
%TO.N,+5V*%
X13615000Y19700000D03*
%TO.P,C16,2*%
%TO.N,GND*%
X12065000Y19700000D03*
%TD*%
D26*
%TO.P,SW2,1,1*%
%TO.N,/BOOT_SW*%
X14700000Y7250000D03*
%TO.P,SW2,2,2*%
%TO.N,+3.3V*%
X14700000Y3050000D03*
%TD*%
D33*
%TO.P,J3,1,Pin_1*%
%TO.N,GND*%
X42410000Y3200000D03*
D34*
%TO.P,J3,2,Pin_2*%
%TO.N,/CONN_UART_RX*%
X39870000Y3200000D03*
%TO.P,J3,3,Pin_3*%
%TO.N,/CONN_UART_TX*%
X37330000Y3200000D03*
%TO.P,J3,4,Pin_4*%
%TO.N,+3.3V*%
X34790000Y3200000D03*
%TD*%
D20*
%TO.P,R8,1*%
%TO.N,/CONN_UART_RX*%
X38700000Y8390000D03*
%TO.P,R8,2*%
%TO.N,/UART_RX*%
X38700000Y9410000D03*
%TD*%
D32*
%TO.P,FID1,*%
%TO.N,*%
X9400000Y25400000D03*
%TD*%
D35*
%TO.P,U3,1,I/O1*%
%TO.N,/USBC_D-*%
X10862500Y17655000D03*
%TO.P,U3,2,GND*%
%TO.N,GND*%
X10862500Y16705000D03*
%TO.P,U3,3,I/O2*%
%TO.N,/USBC_D+*%
X10862500Y15755000D03*
%TO.P,U3,4,I/O2*%
%TO.N,/USB_D+*%
X13137500Y15755000D03*
%TO.P,U3,5,VBUS*%
%TO.N,+5V*%
X13137500Y16705000D03*
%TO.P,U3,6,I/O1*%
%TO.N,/USB_D-*%
X13137500Y17655000D03*
%TD*%
D24*
%TO.P,C1,1*%
%TO.N,+3.3V*%
X31475000Y21150000D03*
%TO.P,C1,2*%
%TO.N,GND*%
X29925000Y21150000D03*
%TD*%
D36*
%TO.P,C11,1*%
%TO.N,/SMPSFB*%
X34375000Y20100000D03*
%TO.P,C11,2*%
%TO.N,GND*%
X35925000Y20100000D03*
%TD*%
D37*
%TO.P,R1,1*%
%TO.N,/USBC_CC2*%
X5690000Y10690000D03*
%TO.P,R1,2*%
%TO.N,GND*%
X6710000Y10690000D03*
%TD*%
D38*
%TO.P,X1,1,1*%
%TO.N,/LSE_OUT*%
X32650000Y6730000D03*
%TO.P,X1,2,2*%
%TO.N,/LSE_IN*%
X31250000Y6730000D03*
%TD*%
D39*
%TO.P,J2,1,VCC*%
%TO.N,+3.3V*%
X21075000Y12600000D03*
%TO.P,J2,2,SWDIO*%
%TO.N,/SWD_DIO*%
X22345000Y12600000D03*
%TO.P,J2,3,~{RESET}*%
%TO.N,/SWD_NRST*%
X21075000Y11330000D03*
%TO.P,J2,4,SWCLK*%
%TO.N,/SWD_CLK*%
X22345000Y11330000D03*
%TO.P,J2,5,GND*%
%TO.N,GND*%
X21075000Y10060000D03*
%TO.P,J2,6,SWO*%
%TO.N,/SWD_TRC*%
X22345000Y10060000D03*
%TD*%
D17*
%TO.P,H3,1,1*%
%TO.N,GND*%
X48800000Y2900000D03*
X49283274Y4066726D03*
X49283274Y1733274D03*
X50450000Y4550000D03*
D18*
X50450000Y2900000D03*
D17*
X50450000Y1250000D03*
X51616726Y4066726D03*
X51616726Y1733274D03*
X52100000Y2900000D03*
%TD*%
D11*
%TO.P,C8,1*%
%TO.N,+3.3V*%
X27705000Y15200000D03*
%TO.P,C8,2*%
%TO.N,GND*%
X26745000Y15200000D03*
%TD*%
D40*
%TO.P,FLT1,1,IN*%
%TO.N,/RF_MATCH*%
X45000000Y15450000D03*
D41*
%TO.P,FLT1,2,GND*%
%TO.N,GND*%
X45612000Y15223000D03*
D40*
%TO.P,FLT1,3,OUT*%
%TO.N,/RF_ANT*%
X46225000Y15450000D03*
D41*
%TO.P,FLT1,4,GND*%
%TO.N,GND*%
X45612000Y15677000D03*
%TD*%
D22*
%TO.P,C4,1*%
%TO.N,+3.3V*%
X28450000Y11420000D03*
%TO.P,C4,2*%
%TO.N,GND*%
X28450000Y12380000D03*
%TD*%
D27*
%TO.P,R5,1*%
%TO.N,/BOOT*%
X18350000Y4400000D03*
%TO.P,R5,2*%
%TO.N,GND*%
X18350000Y3380000D03*
%TD*%
D42*
%TO.P,L2,1,1*%
%TO.N,/SMPSLX_L*%
X33050000Y21900000D03*
%TO.P,L2,2,2*%
%TO.N,/SMPSFB*%
X35175000Y21900000D03*
%TD*%
D35*
%TO.P,U2,1,VIN*%
%TO.N,+5V*%
X13662500Y23240000D03*
%TO.P,U2,2,GND*%
%TO.N,GND*%
X13662500Y22290000D03*
%TO.P,U2,3,EN*%
%TO.N,+5V*%
X13662500Y21340000D03*
%TO.P,U2,4,NC*%
%TO.N,unconnected-(U2-NC-Pad4)*%
X15937500Y21340000D03*
%TO.P,U2,5,VOUT*%
%TO.N,+3.3V*%
X15937500Y23240000D03*
%TD*%
D37*
%TO.P,R2,1*%
%TO.N,/USBC_CC1*%
X5720000Y22690000D03*
%TO.P,R2,2*%
%TO.N,GND*%
X6740000Y22690000D03*
%TD*%
D12*
%TO.P,D1,1,K*%
%TO.N,/MCU_LED_C*%
X41290000Y9750000D03*
%TO.P,D1,2,A*%
%TO.N,/MCU_LED_A*%
X41290000Y10720000D03*
%TD*%
%TO.P,D2,1,K*%
%TO.N,/3.3V_LED_C*%
X19425000Y22055000D03*
%TO.P,D2,2,A*%
%TO.N,+3.3V*%
X19425000Y23025000D03*
%TD*%
D32*
%TO.P,FID2,*%
%TO.N,*%
X46200000Y25400000D03*
%TD*%
D10*
%TO.P,C13,1*%
%TO.N,/BOOT*%
X19450000Y4400000D03*
%TO.P,C13,2*%
%TO.N,GND*%
X19450000Y3440000D03*
%TD*%
D43*
%TO.P,J4,1,In*%
%TO.N,/RF_ANT*%
X47900000Y15450000D03*
D44*
%TO.P,J4,2,Ext*%
%TO.N,GND*%
X49425000Y16925000D03*
X49425000Y13975000D03*
%TD*%
D45*
%TO.N,/BOOT*%
X28000000Y7800000D03*
%TO.N,/SWD_NRST*%
X34200000Y9600000D03*
D46*
%TO.N,+3.3V*%
X27250000Y14375000D03*
%TO.N,GND*%
X39500000Y12800000D03*
D47*
X50200000Y11150000D03*
X48700000Y11150000D03*
X17950000Y18400000D03*
X16450000Y1400000D03*
X17200000Y6900000D03*
X19200000Y8650000D03*
X24200000Y5900000D03*
X26200000Y8150000D03*
X6200000Y25400000D03*
X16100000Y19700000D03*
X52200000Y13400000D03*
X52200000Y15400000D03*
X52200000Y17400000D03*
X52200000Y19400000D03*
X52200000Y11400000D03*
X42200000Y12400000D03*
X46200000Y19400000D03*
X44200000Y19400000D03*
X42200000Y19400000D03*
X44200000Y21400000D03*
X46200000Y21400000D03*
X52200000Y21400000D03*
X50200000Y21400000D03*
X48200000Y21400000D03*
X48200000Y23400000D03*
X46200000Y23400000D03*
X44200000Y23400000D03*
X42200000Y23400000D03*
X40200000Y23400000D03*
X38200000Y23400000D03*
X42200000Y5400000D03*
X34200000Y1400000D03*
X36200000Y1400000D03*
X38200000Y1400000D03*
X40200000Y1400000D03*
X42200000Y1400000D03*
X44200000Y1400000D03*
X44200000Y5400000D03*
X48200000Y5400000D03*
X46200000Y5400000D03*
X50200000Y7400000D03*
X52200000Y7400000D03*
X52200000Y9400000D03*
X50200000Y9400000D03*
X48200000Y9400000D03*
X48200000Y7400000D03*
X46200000Y7400000D03*
X46200000Y9400000D03*
X46200000Y11400000D03*
X44200000Y7400000D03*
X44200000Y9400000D03*
X44200000Y11400000D03*
X30200000Y4900000D03*
X36200000Y6400000D03*
X34200000Y6400000D03*
X28200000Y5400000D03*
X28200000Y3400000D03*
X26200000Y3400000D03*
X24200000Y3400000D03*
X22200000Y3400000D03*
X30200000Y1400000D03*
X28200000Y1400000D03*
X26200000Y1400000D03*
X24200000Y1400000D03*
X22200000Y1400000D03*
X20200000Y1400000D03*
X18200000Y1400000D03*
X12200000Y7400000D03*
X12200000Y5400000D03*
X12200000Y3400000D03*
X12200000Y1400000D03*
X8200000Y1400000D03*
X6200000Y1400000D03*
X6200000Y3400000D03*
X6200000Y5400000D03*
X6200000Y7400000D03*
X4200000Y7400000D03*
X2200000Y7400000D03*
X2200000Y9400000D03*
X4200000Y9400000D03*
X6200000Y9400000D03*
X8200000Y9400000D03*
X14200000Y10400000D03*
X12200000Y10400000D03*
X10200000Y10400000D03*
X10200000Y12400000D03*
X12200000Y12400000D03*
X14200000Y12400000D03*
X16200000Y12400000D03*
X16200000Y14400000D03*
X14200000Y14400000D03*
X9700000Y20900000D03*
X9700000Y22900000D03*
X28200000Y19400000D03*
X26200000Y19400000D03*
X24200000Y19400000D03*
X22200000Y19400000D03*
X26200000Y21400000D03*
X24200000Y21400000D03*
X22200000Y21400000D03*
X28200000Y23400000D03*
X26200000Y23400000D03*
X24200000Y23400000D03*
X22200000Y23400000D03*
X19200000Y25900000D03*
X17200000Y25900000D03*
X15200000Y25900000D03*
X22200000Y25400000D03*
X24200000Y25400000D03*
X26200000Y25400000D03*
X28200000Y25400000D03*
X30200000Y25400000D03*
X32200000Y25400000D03*
X34200000Y25400000D03*
X36200000Y25400000D03*
X38200000Y25400000D03*
X40200000Y25400000D03*
X42200000Y25400000D03*
X44200000Y25400000D03*
X46200000Y27400000D03*
X44200000Y27400000D03*
X42200000Y27400000D03*
X40200000Y27400000D03*
X38200000Y27400000D03*
X36200000Y27400000D03*
X34200000Y27400000D03*
X32200000Y27400000D03*
X30200000Y27400000D03*
X28200000Y27400000D03*
X26200000Y27400000D03*
X24200000Y27400000D03*
X22200000Y27400000D03*
X20200000Y27400000D03*
X18200000Y27400000D03*
X16200000Y27400000D03*
X14200000Y27400000D03*
X12200000Y27400000D03*
X10200000Y27400000D03*
X8200000Y27400000D03*
X6200000Y27400000D03*
D46*
X29855000Y19625000D03*
X29850000Y18625000D03*
X34475000Y8480000D03*
D45*
%TO.N,/BOOT*%
X33250000Y9675000D03*
D46*
%TO.N,GND*%
X21925000Y5600000D03*
%TO.N,/SWD_NRST*%
X22425000Y7100000D03*
%TO.N,GND*%
X27500000Y12300000D03*
%TO.N,+3.3V*%
X40300000Y17350000D03*
%TO.N,GND*%
X41650000Y21100000D03*
X38300000Y19650000D03*
X35400000Y19000000D03*
X36400000Y19000000D03*
%TO.N,+3.3V*%
X18350000Y24400000D03*
X31800000Y22350000D03*
X19450000Y24400000D03*
X30850000Y22350000D03*
X17350000Y24400000D03*
X40600000Y12700000D03*
X30100000Y10500000D03*
X15200000Y1950000D03*
X35375000Y7925000D03*
X30100000Y9650000D03*
X14200000Y1950000D03*
X32350000Y2300000D03*
X20800000Y14950000D03*
%TO.N,GND*%
X10950000Y20150000D03*
X18350000Y20450000D03*
X21700000Y8000000D03*
X43750000Y13610000D03*
X9550000Y16700000D03*
X40285000Y16350000D03*
X49450000Y12515000D03*
X45600000Y16600000D03*
X28800000Y21600000D03*
X41290000Y6797000D03*
X19450000Y2575000D03*
X48250000Y18415000D03*
X12350000Y22300000D03*
X10450000Y1950000D03*
X29425000Y8480000D03*
X50600000Y18415000D03*
X45600000Y14300000D03*
X18350000Y2555000D03*
X25880000Y15200000D03*
X41300000Y13610000D03*
X7565000Y10690000D03*
X49450000Y18415000D03*
X28800000Y20700000D03*
X7595000Y22690000D03*
X17400000Y20450000D03*
X8350000Y13500000D03*
X27400000Y9050000D03*
X9450000Y1950000D03*
X10950000Y19250000D03*
X19425000Y19012000D03*
X36200000Y8515000D03*
X48250000Y12515000D03*
X8350000Y19900000D03*
X50600000Y12515000D03*
X30505000Y3200000D03*
X29450000Y13250000D03*
%TD*%
D48*
%TO.N,/RF*%
X40650000Y15435000D02*
X41715000Y15435000D01*
D49*
%TO.N,GND*%
X35981000Y15935000D02*
X34231000Y14185000D01*
X37668500Y15935000D02*
X35981000Y15935000D01*
D50*
%TO.N,/BOOT*%
X24600000Y4400000D02*
X19450000Y4400000D01*
X28000000Y7800000D02*
X24600000Y4400000D01*
%TO.N,/SWD_NRST*%
X34481000Y9881000D02*
X34200000Y9600000D01*
X34481000Y10747500D02*
X34481000Y9881000D01*
D51*
%TO.N,+3.3V*%
X15150000Y1950000D02*
X14700000Y2400000D01*
X15200000Y1950000D02*
X15150000Y1950000D01*
X14700000Y2400000D02*
X14700000Y3050000D01*
X14250000Y1950000D02*
X14700000Y2400000D01*
X14200000Y1950000D02*
X14250000Y1950000D01*
D49*
%TO.N,/SWD_CLK*%
X23290000Y12275000D02*
X22345000Y11330000D01*
X25400000Y12275000D02*
X23290000Y12275000D01*
X28000000Y13700000D02*
X26825000Y13700000D01*
X30135000Y14935000D02*
X29750000Y14550000D01*
X29750000Y14550000D02*
X28850000Y14550000D01*
X30793500Y14935000D02*
X30135000Y14935000D01*
X28850000Y14550000D02*
X28000000Y13700000D01*
X26825000Y13700000D02*
X25400000Y12275000D01*
D52*
%TO.N,GND*%
X28075000Y12375000D02*
X28445000Y12375000D01*
X28000000Y12300000D02*
X28075000Y12375000D01*
X27500000Y12300000D02*
X28000000Y12300000D01*
D50*
%TO.N,/SWD_TRC*%
X22695161Y10060000D02*
X22345000Y10060000D01*
X23855161Y8900000D02*
X22695161Y10060000D01*
X25200000Y8900000D02*
X23855161Y8900000D01*
X26100000Y9800000D02*
X25200000Y8900000D01*
X26100000Y12100000D02*
X26100000Y9800000D01*
X27200000Y13200000D02*
X26100000Y12100000D01*
X28300000Y13200000D02*
X27200000Y13200000D01*
X29035000Y13935000D02*
X28300000Y13200000D01*
X30793500Y13935000D02*
X29035000Y13935000D01*
D52*
%TO.N,+3.3V*%
X39370000Y17350000D02*
X39350000Y17330000D01*
X40300000Y17350000D02*
X39370000Y17350000D01*
X31475000Y22025000D02*
X31800000Y22350000D01*
X31475000Y21725000D02*
X31475000Y22025000D01*
X31475000Y21725000D02*
X30850000Y22350000D01*
X31475000Y21150000D02*
X31475000Y21725000D01*
D50*
%TO.N,/LSE_OUT*%
X32481000Y9319000D02*
X32650000Y9150000D01*
X32481000Y10747500D02*
X32481000Y9319000D01*
X32650000Y9150000D02*
X32650000Y8480000D01*
%TO.N,+3.3V*%
X40600000Y12800000D02*
X40600000Y12700000D01*
X39900000Y14300000D02*
X39900000Y13500000D01*
X39900000Y13500000D02*
X40600000Y12800000D01*
X39570000Y14630000D02*
X39900000Y14300000D01*
X39100000Y14630000D02*
X39570000Y14630000D01*
X38795000Y14935000D02*
X37668500Y14935000D01*
X39100000Y14630000D02*
X38795000Y14935000D01*
D52*
%TO.N,GND*%
X39100000Y13675000D02*
X39100000Y13200000D01*
X39100000Y13200000D02*
X39500000Y12800000D01*
X40650000Y14260000D02*
X41300000Y13610000D01*
X40650000Y14480000D02*
X40650000Y14260000D01*
%TO.N,+3.3V*%
X32330000Y2320000D02*
X32350000Y2300000D01*
X32330000Y3200000D02*
X32330000Y2320000D01*
%TO.N,GND*%
X45612000Y14312000D02*
X45600000Y14300000D01*
X45612000Y15223000D02*
X45612000Y14312000D01*
X45612000Y16588000D02*
X45600000Y16600000D01*
X45612000Y15677000D02*
X45612000Y16588000D01*
X21375000Y6150000D02*
X21925000Y5600000D01*
X21180000Y6150000D02*
X21375000Y6150000D01*
X30130000Y19900000D02*
X29855000Y19625000D01*
X30725000Y19900000D02*
X30130000Y19900000D01*
X30125000Y18900000D02*
X29850000Y18625000D01*
X30725000Y18900000D02*
X30125000Y18900000D01*
D53*
%TO.N,+3.3V*%
X35250000Y8050000D02*
X35250000Y9370000D01*
X35375000Y7925000D02*
X35250000Y8050000D01*
X35250000Y9370000D02*
X35220000Y9400000D01*
X29635000Y15435000D02*
X29400000Y15200000D01*
D52*
X29400000Y15200000D02*
X27705000Y15200000D01*
D50*
X30793500Y15435000D02*
X29635000Y15435000D01*
X27705000Y14830000D02*
X27250000Y14375000D01*
X27705000Y15200000D02*
X27705000Y14830000D01*
D51*
%TO.N,GND*%
X10450000Y1950000D02*
X9950000Y2450000D01*
X9950000Y2450000D02*
X9450000Y1950000D01*
X9950000Y3050000D02*
X9950000Y2450000D01*
X11391732Y19700000D02*
X11051932Y19360200D01*
X12065000Y19700000D02*
X11391732Y19700000D01*
X11400000Y19700000D02*
X10950000Y20150000D01*
X12065000Y19700000D02*
X11400000Y19700000D01*
X18340000Y20450000D02*
X17870000Y20920000D01*
X18350000Y20450000D02*
X18340000Y20450000D01*
X17870000Y20920000D02*
X17400000Y20450000D01*
X17870000Y21572500D02*
X17870000Y20920000D01*
D52*
%TO.N,+3.3V*%
X31680000Y18900000D02*
X31981000Y18599000D01*
D49*
X32481000Y17622500D02*
X32481000Y18099000D01*
X31981000Y17622500D02*
X31981000Y18599000D01*
D52*
X31680000Y19900000D02*
X31680000Y18900000D01*
X31475000Y20105000D02*
X31680000Y19900000D01*
X31475000Y21150000D02*
X31475000Y20105000D01*
D49*
X39282455Y17330000D02*
X38387455Y16435000D01*
X38387455Y16435000D02*
X37668500Y16435000D01*
X39350000Y17330000D02*
X39282455Y17330000D01*
%TO.N,GND*%
X38535000Y15935000D02*
X37668500Y15935000D01*
X38970000Y16370000D02*
X38535000Y15935000D01*
X39350000Y16370000D02*
X38970000Y16370000D01*
D52*
%TO.N,+5V*%
X11550000Y21650000D02*
X11860000Y21340000D01*
X11550000Y22925000D02*
X11550000Y21650000D01*
X11865000Y23240000D02*
X11550000Y22925000D01*
X11860000Y21340000D02*
X13662500Y21340000D01*
X13662500Y23240000D02*
X11865000Y23240000D01*
X13615000Y21292500D02*
X13662500Y21340000D01*
X13615000Y19700000D02*
X13615000Y21292500D01*
X10658014Y18409200D02*
X11634200Y18409200D01*
X11634200Y18409200D02*
X11979200Y18064200D01*
X9968214Y19099000D02*
X10658014Y18409200D01*
X7196000Y19099000D02*
X9968214Y19099000D01*
X7190000Y19105000D02*
X7196000Y19099000D01*
X11984200Y16705000D02*
X11979200Y16700000D01*
X13137500Y16705000D02*
X11984200Y16705000D01*
X11979200Y16700000D02*
X11979200Y15350576D01*
X11979200Y18064200D02*
X11979200Y16700000D01*
X11979200Y15350576D02*
X10933624Y14305000D01*
X10933624Y14305000D02*
X7190000Y14305000D01*
X13615000Y19700000D02*
X11979200Y18064200D01*
D49*
%TO.N,/SWD_NRST*%
X9950000Y8125000D02*
X9950000Y7250000D01*
X15950000Y8650000D02*
X10475000Y8650000D01*
X16900000Y9600000D02*
X15950000Y8650000D01*
X10475000Y8650000D02*
X9950000Y8125000D01*
X21150000Y7105000D02*
X19130000Y7105000D01*
X19130000Y7105000D02*
X19125000Y7100000D01*
X21155000Y7100000D02*
X21150000Y7105000D01*
X22425000Y7100000D02*
X21155000Y7100000D01*
X19125000Y7100000D02*
X16900000Y9325000D01*
X16900000Y9325000D02*
X16900000Y9600000D01*
%TO.N,+3.3V*%
X20800000Y12875000D02*
X20800000Y14950000D01*
X21075000Y12600000D02*
X20800000Y12875000D01*
%TO.N,/CONN_UART_RX*%
X38700000Y5825000D02*
X39870000Y4655000D01*
X38700000Y8390000D02*
X38700000Y5825000D01*
X39870000Y4655000D02*
X39870000Y3200000D01*
%TO.N,/CONN_UART_TX*%
X37330000Y4780000D02*
X37330000Y3200000D01*
X37450000Y4900000D02*
X37330000Y4780000D01*
X37450000Y8390000D02*
X37450000Y4900000D01*
%TO.N,/UART_RX*%
X37780740Y10329260D02*
X38700000Y9410000D01*
X36981000Y10427520D02*
X37079260Y10329260D01*
X36981000Y10747500D02*
X36981000Y10427520D01*
X37079260Y10329260D02*
X37780740Y10329260D01*
%TO.N,/UART_TX*%
X36825000Y9625000D02*
X37040000Y9410000D01*
X36825000Y9875000D02*
X36825000Y9625000D01*
X36481000Y10219000D02*
X36825000Y9875000D01*
X37040000Y9410000D02*
X37450000Y9410000D01*
X36481000Y10747500D02*
X36481000Y10219000D01*
%TO.N,/MCU_LED_C*%
X41290000Y9750000D02*
X41290000Y8672000D01*
%TO.N,/MCU_LED_A*%
X38157154Y12935000D02*
X38549000Y12543154D01*
X38549000Y12543154D02*
X38549000Y11726000D01*
X39555000Y10720000D02*
X41290000Y10720000D01*
X37668500Y12935000D02*
X38157154Y12935000D01*
X38549000Y11726000D02*
X39555000Y10720000D01*
%TO.N,/3.3V_LED_C*%
X19425000Y22055000D02*
X19425000Y20887000D01*
%TO.N,/SWD_NRST*%
X20130000Y12275000D02*
X21075000Y11330000D01*
X16900000Y11075000D02*
X18100000Y12275000D01*
X18100000Y12275000D02*
X20130000Y12275000D01*
X16900000Y9600000D02*
X16900000Y11075000D01*
%TO.N,/BOOT*%
X19450000Y4400000D02*
X18350000Y4400000D01*
X18360000Y4410000D02*
X18350000Y4400000D01*
X18360000Y5470000D02*
X18360000Y4410000D01*
X18360000Y4440000D02*
X18350000Y4430000D01*
%TO.N,/BOOT_SW*%
X16480000Y5470000D02*
X17340000Y5470000D01*
X14700000Y7250000D02*
X16480000Y5470000D01*
D54*
%TO.N,/USB_D-*%
X30131849Y16929600D02*
X30137249Y16935000D01*
X30137249Y16935000D02*
X30793500Y16935000D01*
X14836651Y16929600D02*
X30131849Y16929600D01*
X14111251Y17655000D02*
X14836651Y16929600D01*
X13137500Y17655000D02*
X14111251Y17655000D01*
%TO.N,/USB_D+*%
X30137249Y16435000D02*
X30793500Y16435000D01*
X30131849Y16440400D02*
X30137249Y16435000D01*
X14836651Y16440400D02*
X30131849Y16440400D01*
X14151251Y15755000D02*
X14836651Y16440400D01*
X13137500Y15755000D02*
X14151251Y15755000D01*
D49*
%TO.N,/USBC_CC1*%
X4550000Y21520000D02*
X5720000Y22690000D01*
X4550000Y19175000D02*
X4550000Y21520000D01*
X5770000Y17955000D02*
X4550000Y19175000D01*
X7190000Y17955000D02*
X5770000Y17955000D01*
%TO.N,/USBC_CC2*%
X5410000Y10690000D02*
X5690000Y10690000D01*
X4625000Y11475000D02*
X5410000Y10690000D01*
X4625000Y14100000D02*
X4625000Y11475000D01*
X5480000Y14955000D02*
X4625000Y14100000D01*
X7190000Y14955000D02*
X5480000Y14955000D01*
D54*
%TO.N,/USBC_D-*%
X8112200Y17206960D02*
X7864160Y17455000D01*
X8112200Y16703040D02*
X8112200Y17206960D01*
X7864160Y16455000D02*
X8112200Y16703040D01*
X7190000Y16455000D02*
X7864160Y16455000D01*
X7864160Y17455000D02*
X7190000Y17455000D01*
%TO.N,/USBC_D+*%
X6267800Y16706960D02*
X6515840Y16955000D01*
X6515840Y16955000D02*
X7190000Y16955000D01*
X6515840Y15955000D02*
X6267800Y16203040D01*
X7190000Y15955000D02*
X6515840Y15955000D01*
X6267800Y16203040D02*
X6267800Y16706960D01*
X8245000Y15955000D02*
X7190000Y15955000D01*
X8445000Y15755000D02*
X8245000Y15955000D01*
X10862500Y15755000D02*
X8445000Y15755000D01*
%TO.N,/USBC_D-*%
X8255000Y17455000D02*
X8455000Y17655000D01*
X8455000Y17655000D02*
X10862500Y17655000D01*
X7190000Y17455000D02*
X8255000Y17455000D01*
D49*
%TO.N,/SWD_DIO*%
X22625000Y14875000D02*
X22625000Y12880000D01*
X22625000Y12880000D02*
X22345000Y12600000D01*
X23685000Y15935000D02*
X22625000Y14875000D01*
X30793500Y15935000D02*
X23685000Y15935000D01*
D50*
%TO.N,/RF*%
X37668500Y15435000D02*
X38160000Y15435000D01*
D48*
X40650000Y15435000D02*
X38260000Y15435000D01*
D49*
%TO.N,GND*%
X33481000Y17622500D02*
X33481000Y14935000D01*
X33481000Y14935000D02*
X34231000Y14185000D01*
D52*
%TO.N,/SMPSLX_L*%
X32981000Y20470000D02*
X32981000Y21831000D01*
X32981000Y21831000D02*
X33050000Y21900000D01*
D49*
%TO.N,/SMPSLX*%
X32981000Y17622500D02*
X32981000Y18700000D01*
D52*
X32981000Y19500000D02*
X32981000Y18700000D01*
D53*
%TO.N,+3.3V*%
X34981000Y9639000D02*
X35220000Y9400000D01*
X34981000Y10747500D02*
X34981000Y9639000D01*
D50*
%TO.N,/LSE_OUT*%
X32650000Y6730000D02*
X32650000Y8480000D01*
%TO.N,/LSE_IN*%
X31250000Y8480000D02*
X31250000Y6730000D01*
X31250000Y9200000D02*
X31250000Y8480000D01*
X31981000Y9931000D02*
X31250000Y9200000D01*
X31981000Y10747500D02*
X31981000Y9931000D01*
%TO.N,/HSE_OUT*%
X40500000Y18950000D02*
X40500000Y19700000D01*
X39950000Y18400000D02*
X40500000Y18950000D01*
X38800000Y18400000D02*
X39950000Y18400000D01*
X38400000Y18000000D02*
X38800000Y18400000D01*
X38400000Y17050000D02*
X38400000Y18000000D01*
X38285000Y16935000D02*
X38400000Y17050000D01*
X37668500Y16935000D02*
X38285000Y16935000D01*
%TO.N,/HSE_IN*%
X38400000Y21100000D02*
X39400000Y21100000D01*
X37650000Y18750000D02*
X37650000Y20350000D01*
X36981000Y18081000D02*
X37650000Y18750000D01*
X37650000Y20350000D02*
X38400000Y21100000D01*
X36981000Y17622500D02*
X36981000Y18081000D01*
D52*
%TO.N,GND*%
X40500000Y21100000D02*
X41650000Y21100000D01*
X39450000Y19650000D02*
X38300000Y19650000D01*
D48*
%TO.N,/RF_ANT*%
X46225000Y15450000D02*
X47900000Y15450000D01*
D55*
%TO.N,/RF_MATCH*%
X44985000Y15435000D02*
X45000000Y15450000D01*
D48*
X42685000Y15435000D02*
X44985000Y15435000D01*
D52*
%TO.N,GND*%
X30295000Y8480000D02*
X29425000Y8480000D01*
X27400000Y10165000D02*
X27400000Y9050000D01*
X13662500Y22290000D02*
X12360000Y22290000D01*
X29450000Y12380000D02*
X29450000Y13250000D01*
X43750000Y14480000D02*
X43750000Y13610000D01*
X9555000Y16705000D02*
X9550000Y16700000D01*
X21700000Y8000000D02*
X21700000Y9435000D01*
X19450000Y3445000D02*
X19450000Y2575000D01*
X41290000Y7667000D02*
X41290000Y6797000D01*
X21700000Y9435000D02*
X21075000Y10060000D01*
X6725000Y22690000D02*
X7595000Y22690000D01*
X7235000Y19900000D02*
X8350000Y19900000D01*
X7235000Y13500000D02*
X8350000Y13500000D01*
X31375000Y3200000D02*
X30505000Y3200000D01*
X10862500Y16705000D02*
X9555000Y16705000D01*
X36200000Y9385000D02*
X36200000Y8515000D01*
X26750000Y15200000D02*
X25880000Y15200000D01*
X12360000Y22290000D02*
X12350000Y22300000D01*
X6695000Y10690000D02*
X7565000Y10690000D01*
X39415000Y16350000D02*
X40285000Y16350000D01*
X18350000Y3425000D02*
X18350000Y2555000D01*
X19425000Y19882000D02*
X19425000Y19012000D01*
D50*
%TO.N,/BOOT*%
X32981000Y9944000D02*
X32981000Y10747500D01*
X33250000Y9675000D02*
X32981000Y9944000D01*
D52*
%TO.N,GND*%
X33605000Y8480000D02*
X34475000Y8480000D01*
D49*
%TO.N,+3.3V*%
X32481000Y18099000D02*
X31981000Y18599000D01*
D48*
%TO.N,/RF*%
X38260000Y15435000D02*
X38160000Y15435000D01*
%TD*%
%TA.AperFunction,Conductor*%
%TO.N,GND*%
G36*
X33506519Y17100004D02*
G01*
X33514595Y17099368D01*
X33538306Y17075657D01*
X33545053Y17070489D01*
X33546043Y17068777D01*
X33580211Y17001719D01*
X33591189Y16990741D01*
X33596053Y16982334D01*
X33606000Y16945278D01*
X33606000Y16839760D01*
X33672556Y16850299D01*
X33672560Y16850301D01*
X33696852Y16862678D01*
X33753314Y16867124D01*
X33764038Y16862682D01*
X33789285Y16849818D01*
X33885997Y16834500D01*
X34076002Y16834501D01*
X34172715Y16849818D01*
X34197406Y16862400D01*
X34253866Y16866844D01*
X34264579Y16862407D01*
X34289285Y16849818D01*
X34385997Y16834500D01*
X34576002Y16834501D01*
X34672715Y16849818D01*
X34697406Y16862400D01*
X34753866Y16866844D01*
X34764579Y16862407D01*
X34789285Y16849818D01*
X34885997Y16834500D01*
X35076002Y16834501D01*
X35172715Y16849818D01*
X35197406Y16862400D01*
X35253866Y16866844D01*
X35264579Y16862407D01*
X35289285Y16849818D01*
X35385997Y16834500D01*
X35576002Y16834501D01*
X35672715Y16849818D01*
X35697406Y16862400D01*
X35753866Y16866844D01*
X35764579Y16862407D01*
X35789285Y16849818D01*
X35885997Y16834500D01*
X36076002Y16834501D01*
X36172715Y16849818D01*
X36197406Y16862400D01*
X36253866Y16866844D01*
X36264579Y16862407D01*
X36289285Y16849818D01*
X36385997Y16834500D01*
X36576002Y16834501D01*
X36672715Y16849818D01*
X36697407Y16862400D01*
X36752430Y16867294D01*
X36758724Y16865390D01*
X36789285Y16849818D01*
X36833155Y16842870D01*
X36838003Y16841403D01*
X36856284Y16826422D01*
X36876440Y16814071D01*
X36879052Y16807764D01*
X36881810Y16805504D01*
X36882383Y16799723D01*
X36889662Y16782151D01*
X36895818Y16743284D01*
X36895819Y16743279D01*
X36908397Y16718593D01*
X36912840Y16662131D01*
X36908397Y16651407D01*
X36895819Y16626722D01*
X36895818Y16626717D01*
X36880500Y16530004D01*
X36880500Y16339998D01*
X36895818Y16243285D01*
X36895818Y16243283D01*
X36908677Y16218047D01*
X36913121Y16161584D01*
X36908679Y16150858D01*
X36896299Y16126560D01*
X36885757Y16060000D01*
X36991278Y16060000D01*
X37028335Y16050053D01*
X37036738Y16045192D01*
X37047719Y16034211D01*
X37114777Y16000044D01*
X37116489Y15999053D01*
X37132603Y15978013D01*
X37149810Y15957867D01*
X37149644Y15955764D01*
X37150927Y15954089D01*
X37147444Y15927820D01*
X37145366Y15901405D01*
X37143726Y15899766D01*
X37143485Y15897943D01*
X37136731Y15892771D01*
X37113027Y15869066D01*
X37047720Y15835791D01*
X37043604Y15831674D01*
X36991278Y15810000D01*
X36885758Y15810000D01*
X36896298Y15743442D01*
X36896299Y15743440D01*
X36908677Y15719148D01*
X36913121Y15662685D01*
X36908679Y15651959D01*
X36895818Y15626717D01*
X36880500Y15530004D01*
X36880500Y15339998D01*
X36895818Y15243285D01*
X36895819Y15243279D01*
X36908397Y15218593D01*
X36912840Y15162131D01*
X36908397Y15151407D01*
X36895819Y15126722D01*
X36895818Y15126717D01*
X36880500Y15030004D01*
X36880500Y14839998D01*
X36895818Y14743285D01*
X36895819Y14743279D01*
X36908397Y14718593D01*
X36912840Y14662131D01*
X36908397Y14651407D01*
X36895819Y14626722D01*
X36895818Y14626717D01*
X36880500Y14530004D01*
X36880500Y14339998D01*
X36895818Y14243285D01*
X36895819Y14243279D01*
X36908397Y14218593D01*
X36912840Y14162131D01*
X36908397Y14151407D01*
X36895819Y14126722D01*
X36895818Y14126717D01*
X36880500Y14030004D01*
X36880500Y13839998D01*
X36895818Y13743285D01*
X36895819Y13743279D01*
X36908397Y13718593D01*
X36912840Y13662131D01*
X36908397Y13651407D01*
X36895819Y13626722D01*
X36895818Y13626717D01*
X36880500Y13530004D01*
X36880500Y13339998D01*
X36895818Y13243285D01*
X36895819Y13243279D01*
X36908397Y13218593D01*
X36912840Y13162131D01*
X36908397Y13151407D01*
X36895819Y13126722D01*
X36895818Y13126717D01*
X36880500Y13030004D01*
X36880500Y12839998D01*
X36895818Y12743285D01*
X36895819Y12743279D01*
X36908397Y12718593D01*
X36912840Y12662131D01*
X36908397Y12651407D01*
X36895819Y12626722D01*
X36895818Y12626717D01*
X36880500Y12530004D01*
X36880500Y12339998D01*
X36895818Y12243285D01*
X36895819Y12243279D01*
X36908397Y12218593D01*
X36912840Y12162131D01*
X36908397Y12151407D01*
X36895819Y12126722D01*
X36895818Y12126717D01*
X36880500Y12030004D01*
X36880500Y11839998D01*
X36895818Y11743285D01*
X36895819Y11743279D01*
X36908397Y11718593D01*
X36913291Y11663571D01*
X36911382Y11657263D01*
X36895818Y11626715D01*
X36888871Y11582858D01*
X36887401Y11577998D01*
X36872419Y11559715D01*
X36860066Y11539558D01*
X36853762Y11536947D01*
X36851503Y11534190D01*
X36845721Y11533617D01*
X36828149Y11526338D01*
X36789283Y11520182D01*
X36789278Y11520181D01*
X36764593Y11507603D01*
X36708131Y11503160D01*
X36697407Y11507603D01*
X36672721Y11520181D01*
X36672716Y11520182D01*
X36576003Y11535500D01*
X36385997Y11535500D01*
X36289284Y11520182D01*
X36289278Y11520181D01*
X36264593Y11507603D01*
X36208131Y11503160D01*
X36197407Y11507603D01*
X36172721Y11520181D01*
X36172716Y11520182D01*
X36076003Y11535500D01*
X35885997Y11535500D01*
X35789284Y11520182D01*
X35789278Y11520181D01*
X35764593Y11507603D01*
X35708131Y11503160D01*
X35697407Y11507603D01*
X35672721Y11520181D01*
X35672716Y11520182D01*
X35576003Y11535500D01*
X35385997Y11535500D01*
X35289284Y11520182D01*
X35289278Y11520181D01*
X35264593Y11507603D01*
X35208131Y11503160D01*
X35197407Y11507603D01*
X35172721Y11520181D01*
X35172716Y11520182D01*
X35076003Y11535500D01*
X34885997Y11535500D01*
X34789284Y11520182D01*
X34789278Y11520181D01*
X34764593Y11507603D01*
X34708131Y11503160D01*
X34697407Y11507603D01*
X34672721Y11520181D01*
X34672716Y11520182D01*
X34576003Y11535500D01*
X34385997Y11535500D01*
X34289284Y11520182D01*
X34289278Y11520181D01*
X34264593Y11507603D01*
X34208131Y11503160D01*
X34197407Y11507603D01*
X34172721Y11520181D01*
X34172716Y11520182D01*
X34076003Y11535500D01*
X33885997Y11535500D01*
X33789284Y11520182D01*
X33789278Y11520181D01*
X33764593Y11507603D01*
X33708131Y11503160D01*
X33697407Y11507603D01*
X33672721Y11520181D01*
X33672716Y11520182D01*
X33576003Y11535500D01*
X33385997Y11535500D01*
X33289284Y11520182D01*
X33289278Y11520181D01*
X33264593Y11507603D01*
X33208131Y11503160D01*
X33197407Y11507603D01*
X33172721Y11520181D01*
X33172716Y11520182D01*
X33076003Y11535500D01*
X32885997Y11535500D01*
X32789284Y11520182D01*
X32789278Y11520181D01*
X32764593Y11507603D01*
X32708131Y11503160D01*
X32697407Y11507603D01*
X32672721Y11520181D01*
X32672716Y11520182D01*
X32576003Y11535500D01*
X32385997Y11535500D01*
X32289284Y11520182D01*
X32289278Y11520181D01*
X32264593Y11507603D01*
X32208131Y11503160D01*
X32197407Y11507603D01*
X32172721Y11520181D01*
X32172716Y11520182D01*
X32076003Y11535500D01*
X31885997Y11535500D01*
X31789284Y11520182D01*
X31777199Y11514025D01*
X31726387Y11507994D01*
X31720690Y11509358D01*
X31712043Y11512939D01*
X31691431Y11520738D01*
X31630944Y11530832D01*
X31628427Y11531434D01*
X31607436Y11546661D01*
X31585422Y11560403D01*
X31583929Y11563713D01*
X31582582Y11564690D01*
X31582087Y11567798D01*
X31573552Y11586725D01*
X31570848Y11598415D01*
X31569855Y11603519D01*
X31566182Y11626713D01*
X31566182Y11626715D01*
X31566180Y11626719D01*
X31565773Y11627971D01*
X31562624Y11635474D01*
X31561495Y11638841D01*
X31558939Y11649891D01*
X31552919Y11664423D01*
X31552107Y11666847D01*
X31553903Y11692741D01*
X31553903Y11718686D01*
X31556021Y11723280D01*
X31556026Y11723348D01*
X31556070Y11723388D01*
X31556337Y11723964D01*
X31566182Y11743285D01*
X31573867Y11791807D01*
X31581500Y11839997D01*
X31581499Y12030002D01*
X31566182Y12126715D01*
X31553600Y12151407D01*
X31549156Y12207866D01*
X31553593Y12218580D01*
X31566182Y12243285D01*
X31581500Y12339997D01*
X31581499Y12530002D01*
X31566182Y12626715D01*
X31553600Y12651407D01*
X31549156Y12707866D01*
X31553593Y12718580D01*
X31566182Y12743285D01*
X31581500Y12839997D01*
X31581499Y13030002D01*
X31581212Y13031811D01*
X31574467Y13074400D01*
X31566182Y13126715D01*
X31553600Y13151407D01*
X31549156Y13207866D01*
X31553593Y13218580D01*
X31566182Y13243285D01*
X31581500Y13339997D01*
X31581499Y13530002D01*
X31566182Y13626715D01*
X31553600Y13651407D01*
X31549156Y13707866D01*
X31553593Y13718580D01*
X31566182Y13743285D01*
X31581500Y13839997D01*
X31581499Y14030002D01*
X31566182Y14126715D01*
X31553600Y14151407D01*
X31549156Y14207866D01*
X31553593Y14218580D01*
X31566182Y14243285D01*
X31581500Y14339997D01*
X31581499Y14530002D01*
X31566182Y14626715D01*
X31553600Y14651407D01*
X31549156Y14707866D01*
X31553593Y14718580D01*
X31566182Y14743285D01*
X31581500Y14839997D01*
X31581499Y15030002D01*
X31581386Y15030713D01*
X31573133Y15082827D01*
X31566182Y15126715D01*
X31553600Y15151407D01*
X31549156Y15207866D01*
X31553593Y15218580D01*
X31566182Y15243285D01*
X31581500Y15339997D01*
X31581499Y15530002D01*
X31566182Y15626715D01*
X31553600Y15651407D01*
X31549156Y15707866D01*
X31553593Y15718580D01*
X31566182Y15743285D01*
X31581500Y15839997D01*
X31581499Y16030002D01*
X31580832Y16034211D01*
X31572124Y16089198D01*
X31566182Y16126715D01*
X31553600Y16151407D01*
X31549156Y16207866D01*
X31553593Y16218580D01*
X31566182Y16243285D01*
X31581500Y16339997D01*
X31581499Y16530002D01*
X31566182Y16626715D01*
X31553600Y16651408D01*
X31548706Y16706430D01*
X31550610Y16712725D01*
X31566182Y16743285D01*
X31573130Y16787159D01*
X31574597Y16792005D01*
X31589580Y16810290D01*
X31601929Y16830441D01*
X31608233Y16833053D01*
X31610495Y16835812D01*
X31616281Y16836387D01*
X31633848Y16843663D01*
X31672715Y16849818D01*
X31697404Y16862399D01*
X31753866Y16866843D01*
X31764587Y16862402D01*
X31789285Y16849818D01*
X31885997Y16834500D01*
X32076002Y16834501D01*
X32172715Y16849818D01*
X32197406Y16862400D01*
X32253866Y16866844D01*
X32264579Y16862407D01*
X32289285Y16849818D01*
X32385997Y16834500D01*
X32576002Y16834501D01*
X32672715Y16849818D01*
X32697406Y16862400D01*
X32753866Y16866844D01*
X32764579Y16862407D01*
X32789285Y16849818D01*
X32885997Y16834500D01*
X33076002Y16834501D01*
X33172715Y16849818D01*
X33197954Y16862679D01*
X33254415Y16867124D01*
X33265146Y16862679D01*
X33289444Y16850299D01*
X33289442Y16850299D01*
X33356000Y16839759D01*
X33356000Y16945278D01*
X33377674Y16997604D01*
X33381789Y17001719D01*
X33415065Y17067029D01*
X33431113Y17080736D01*
X33443944Y17097486D01*
X33451972Y17098551D01*
X33458132Y17103811D01*
X33479172Y17102156D01*
X33500090Y17104928D01*
X33506519Y17100004D01*
G37*
%TD.AperFunction*%
%TA.AperFunction,Conductor*%
G36*
X26093326Y15437826D02*
G01*
X26115000Y15385500D01*
X26115000Y15375000D01*
X26671000Y15375000D01*
X26723326Y15353326D01*
X26745000Y15301000D01*
X26745000Y15099000D01*
X26723326Y15046674D01*
X26671000Y15025000D01*
X26115000Y15025000D01*
X26115000Y14983129D01*
X26121273Y14924774D01*
X26121275Y14924768D01*
X26170513Y14792755D01*
X26170514Y14792754D01*
X26254955Y14679956D01*
X26367753Y14595515D01*
X26367754Y14595514D01*
X26504109Y14544656D01*
X26503297Y14542480D01*
X26543131Y14513782D01*
X26552769Y14460428D01*
X26551356Y14453326D01*
X26549500Y14443993D01*
X26549500Y14306007D01*
X26564664Y14229774D01*
X26577129Y14167107D01*
X26575728Y14166829D01*
X26570632Y14115086D01*
X26542372Y14085886D01*
X26535149Y14081716D01*
X26533034Y14080494D01*
X25710087Y13257547D01*
X25657761Y13235873D01*
X25605435Y13257547D01*
X25583761Y13309873D01*
X25587383Y13332740D01*
X25652539Y13533269D01*
X25652539Y13533271D01*
X25652542Y13533279D01*
X25687950Y13756831D01*
X25687950Y13983169D01*
X25652542Y14206721D01*
X25652539Y14206728D01*
X25652539Y14206732D01*
X25582602Y14421976D01*
X25582600Y14421979D01*
X25582600Y14421981D01*
X25502428Y14579328D01*
X25479845Y14623651D01*
X25346810Y14806757D01*
X25346809Y14806758D01*
X25346807Y14806761D01*
X25186761Y14966807D01*
X25186758Y14966810D01*
X25186756Y14966811D01*
X25003650Y15099846D01*
X24801975Y15202603D01*
X24586731Y15272540D01*
X24586722Y15272542D01*
X24586721Y15272542D01*
X24474945Y15290246D01*
X24363170Y15307950D01*
X24363169Y15307950D01*
X24136831Y15307950D01*
X24136830Y15307950D01*
X23913279Y15272542D01*
X23913275Y15272541D01*
X23883088Y15262733D01*
X23826625Y15267178D01*
X23789843Y15310246D01*
X23794288Y15366709D01*
X23807897Y15385438D01*
X23860286Y15437826D01*
X23912611Y15459500D01*
X26041000Y15459500D01*
X26093326Y15437826D01*
G37*
%TD.AperFunction*%
%TA.AperFunction,Conductor*%
G36*
X9876417Y17139826D02*
G01*
X9898091Y17087500D01*
X9893425Y17061640D01*
X9856403Y16962381D01*
X9856402Y16962376D01*
X9850000Y16902829D01*
X9850000Y16880000D01*
X10788500Y16880000D01*
X10840826Y16858326D01*
X10862500Y16806000D01*
X10862500Y16604000D01*
X10840826Y16551674D01*
X10788500Y16530000D01*
X9850000Y16530000D01*
X9850000Y16507172D01*
X9856402Y16447625D01*
X9856403Y16447620D01*
X9893425Y16348360D01*
X9891404Y16291759D01*
X9849951Y16253166D01*
X9824091Y16248500D01*
X8680066Y16248500D01*
X8627796Y16270118D01*
X8548016Y16349898D01*
X8547609Y16350133D01*
X8543868Y16353866D01*
X8534708Y16375913D01*
X8522770Y16396594D01*
X8523853Y16402040D01*
X8522138Y16406169D01*
X8527034Y16418026D01*
X8532052Y16443247D01*
X8572069Y16512557D01*
X8605699Y16638068D01*
X8605700Y16638068D01*
X8605700Y17077134D01*
X8627374Y17129460D01*
X8637740Y17139826D01*
X8690066Y17161500D01*
X9824091Y17161500D01*
X9876417Y17139826D01*
G37*
%TD.AperFunction*%
%TA.AperFunction,Conductor*%
G36*
X38689270Y20627826D02*
G01*
X38705785Y20602646D01*
X38715637Y20577660D01*
X38807077Y20457079D01*
X38810657Y20453499D01*
X38808990Y20451833D01*
X38833601Y20409771D01*
X38819259Y20354980D01*
X38810721Y20346437D01*
X38811014Y20346144D01*
X38807437Y20342568D01*
X38716077Y20222093D01*
X38660614Y20081444D01*
X38650000Y19993062D01*
X38650000Y19875000D01*
X39326000Y19875000D01*
X39378326Y19853326D01*
X39400000Y19801000D01*
X39400000Y19599000D01*
X39378326Y19546674D01*
X39326000Y19525000D01*
X38650000Y19525000D01*
X38650000Y19406939D01*
X38660614Y19318557D01*
X38716077Y19177908D01*
X38807435Y19057436D01*
X38904981Y18983464D01*
X38933578Y18934576D01*
X38919231Y18879786D01*
X38870343Y18851189D01*
X38860267Y18850500D01*
X38740689Y18850500D01*
X38626117Y18819801D01*
X38626115Y18819800D01*
X38618436Y18815367D01*
X38607945Y18809309D01*
X38523385Y18760489D01*
X38039508Y18276611D01*
X37980201Y18173888D01*
X37977680Y18164477D01*
X37977679Y18164478D01*
X37977679Y18164475D01*
X37949500Y18059312D01*
X37949500Y17484500D01*
X37927826Y17432174D01*
X37875500Y17410500D01*
X37530499Y17410500D01*
X37478173Y17432174D01*
X37456499Y17484500D01*
X37456499Y17888745D01*
X37478173Y17941071D01*
X37726610Y18189508D01*
X38010489Y18473386D01*
X38069799Y18576113D01*
X38092705Y18661601D01*
X38100500Y18690691D01*
X38100500Y20132745D01*
X38122174Y20185071D01*
X38564929Y20627826D01*
X38617255Y20649500D01*
X38636944Y20649500D01*
X38689270Y20627826D01*
G37*
%TD.AperFunction*%
%TA.AperFunction,Conductor*%
G36*
X5281781Y21474671D02*
G01*
X5303455Y21422345D01*
X5297822Y21394027D01*
X5247666Y21272941D01*
X5247663Y21272931D01*
X5233157Y21200001D01*
X5233157Y21200000D01*
X5819625Y21200000D01*
X5785444Y21140796D01*
X5765000Y21064496D01*
X5765000Y20985504D01*
X5785444Y20909204D01*
X5819625Y20850000D01*
X5233157Y20850000D01*
X5247663Y20777070D01*
X5247665Y20777064D01*
X5311740Y20622374D01*
X5404761Y20483157D01*
X5523156Y20364762D01*
X5662374Y20271740D01*
X5799599Y20214900D01*
X5839648Y20174852D01*
X5839648Y20118215D01*
X5808282Y20082448D01*
X5761638Y20055518D01*
X5761638Y20055517D01*
X5761635Y20055515D01*
X5707120Y20001000D01*
X5654483Y19948363D01*
X5578721Y19817140D01*
X5578717Y19817131D01*
X5539500Y19670769D01*
X5539500Y19519232D01*
X5578717Y19372870D01*
X5578721Y19372861D01*
X5647800Y19253213D01*
X5654485Y19241635D01*
X5761635Y19134485D01*
X5892865Y19058719D01*
X6039231Y19019501D01*
X6039232Y19019500D01*
X6039234Y19019500D01*
X6190765Y19019500D01*
X6190766Y19019500D01*
X6330349Y19056901D01*
X6339973Y19055634D01*
X6348913Y19059420D01*
X6367074Y19052066D01*
X6386500Y19049508D01*
X6392409Y19041807D01*
X6401409Y19038162D01*
X6408864Y19020363D01*
X6420979Y19004575D01*
X6423498Y18986009D01*
X6423500Y18985681D01*
X6423501Y18907128D01*
X6424173Y18900868D01*
X6424203Y18897194D01*
X6414842Y18874080D01*
X6407817Y18850165D01*
X6402977Y18844778D01*
X6402945Y18844698D01*
X6402881Y18844672D01*
X6402532Y18844282D01*
X6341472Y18783221D01*
X6280280Y18663124D01*
X6264500Y18563489D01*
X6264500Y18504500D01*
X6242826Y18452174D01*
X6190500Y18430500D01*
X5997610Y18430500D01*
X5945284Y18452174D01*
X5047174Y19350285D01*
X5025500Y19402611D01*
X5025500Y21292390D01*
X5047173Y21344715D01*
X5177130Y21474672D01*
X5229455Y21496345D01*
X5281781Y21474671D01*
G37*
%TD.AperFunction*%
%TA.AperFunction,Conductor*%
G36*
X50452065Y28349385D02*
G01*
X50748112Y28332759D01*
X50756346Y28331830D01*
X51046603Y28282514D01*
X51054671Y28280673D01*
X51337605Y28199161D01*
X51345418Y28196427D01*
X51617428Y28083756D01*
X51624904Y28080156D01*
X51882594Y27937737D01*
X51889608Y27933329D01*
X52129716Y27762963D01*
X52136203Y27757791D01*
X52355741Y27561600D01*
X52361604Y27555737D01*
X52557789Y27336205D01*
X52562962Y27329717D01*
X52733324Y27089615D01*
X52737740Y27082588D01*
X52880155Y26824905D01*
X52883755Y26817429D01*
X52996422Y26545429D01*
X52999163Y26537596D01*
X53080669Y26254683D01*
X53082515Y26246592D01*
X53131828Y25956353D01*
X53132758Y25948107D01*
X53149384Y25652066D01*
X53149500Y25647917D01*
X53149500Y2902084D01*
X53149384Y2897935D01*
X53132758Y2601894D01*
X53131828Y2593648D01*
X53082515Y2303409D01*
X53080669Y2295318D01*
X52999163Y2012405D01*
X52996422Y2004572D01*
X52883755Y1732572D01*
X52880155Y1725096D01*
X52737740Y1467413D01*
X52733324Y1460386D01*
X52562962Y1220284D01*
X52557789Y1213796D01*
X52361604Y994264D01*
X52355736Y988396D01*
X52136204Y792211D01*
X52129716Y787038D01*
X51889614Y616676D01*
X51882587Y612260D01*
X51624904Y469845D01*
X51617428Y466245D01*
X51345428Y353578D01*
X51337595Y350837D01*
X51054682Y269331D01*
X51046591Y267485D01*
X50756352Y218172D01*
X50748106Y217242D01*
X50452066Y200616D01*
X50447917Y200500D01*
X2952083Y200500D01*
X2947934Y200616D01*
X2651893Y217242D01*
X2643647Y218172D01*
X2353408Y267485D01*
X2345317Y269331D01*
X2062404Y350837D01*
X2054571Y353578D01*
X1782571Y466245D01*
X1775095Y469845D01*
X1517412Y612260D01*
X1510385Y616676D01*
X1270283Y787038D01*
X1263795Y792211D01*
X1232612Y820078D01*
X1044258Y988401D01*
X1038400Y994259D01*
X842209Y1213797D01*
X837037Y1220284D01*
X831709Y1227793D01*
X666671Y1460392D01*
X662263Y1467406D01*
X519844Y1725096D01*
X516244Y1732572D01*
X466171Y1853458D01*
X403573Y2004582D01*
X400839Y2012395D01*
X319327Y2295329D01*
X317486Y2303397D01*
X268170Y2593654D01*
X267241Y2601894D01*
X260915Y2714535D01*
X255726Y2806939D01*
X8600000Y2806939D01*
X8610614Y2718557D01*
X8666077Y2577908D01*
X8757435Y2457436D01*
X8877907Y2366078D01*
X9018556Y2310615D01*
X9106939Y2300000D01*
X9775000Y2300000D01*
X10125000Y2300000D01*
X10793061Y2300000D01*
X10881443Y2310615D01*
X11022092Y2366078D01*
X11142564Y2457436D01*
X11233922Y2577908D01*
X11289385Y2718557D01*
X11299995Y2806896D01*
X13349499Y2806896D01*
X13357632Y2739176D01*
X13360123Y2718436D01*
X13370514Y2692087D01*
X13415638Y2577659D01*
X13479935Y2492871D01*
X13494282Y2438081D01*
X13482500Y2407047D01*
X13446297Y2352866D01*
X13382184Y2198083D01*
X13382182Y2198076D01*
X13349500Y2033767D01*
X13349500Y1866234D01*
X13382182Y1701925D01*
X13382184Y1701918D01*
X13446296Y1547138D01*
X13446297Y1547137D01*
X13539374Y1407838D01*
X13657838Y1289374D01*
X13797137Y1196297D01*
X13951918Y1132184D01*
X14116233Y1099500D01*
X14116234Y1099500D01*
X14333766Y1099500D01*
X14333767Y1099500D01*
X14498082Y1132184D01*
X14543415Y1150963D01*
X14652863Y1196296D01*
X14664324Y1203955D01*
X14670303Y1206574D01*
X14692578Y1207025D01*
X14714431Y1211373D01*
X14723422Y1207650D01*
X14726929Y1207720D01*
X14729718Y1205042D01*
X14741111Y1200323D01*
X14747137Y1196296D01*
X14856584Y1150963D01*
X14901918Y1132184D01*
X15066233Y1099500D01*
X15066234Y1099500D01*
X15283766Y1099500D01*
X15283767Y1099500D01*
X15448082Y1132184D01*
X15602863Y1196297D01*
X15742162Y1289374D01*
X15860626Y1407838D01*
X15953703Y1547137D01*
X16017816Y1701918D01*
X16050500Y1866233D01*
X16050500Y2033767D01*
X16017816Y2198082D01*
X15953703Y2352863D01*
X15917498Y2407047D01*
X15906449Y2462592D01*
X15920062Y2492869D01*
X15984361Y2577658D01*
X16039877Y2718436D01*
X16050500Y2806898D01*
X16050500Y3198615D01*
X17680001Y3198615D01*
X17686211Y3140844D01*
X17734947Y3010176D01*
X17734948Y3010175D01*
X17818527Y2898528D01*
X17930174Y2814949D01*
X17930175Y2814948D01*
X18060841Y2766213D01*
X18060846Y2766212D01*
X18118613Y2760001D01*
X18174999Y2760002D01*
X18175000Y2760002D01*
X18175000Y3205000D01*
X18525000Y3205000D01*
X18525000Y2760001D01*
X18581384Y2760001D01*
X18639156Y2766212D01*
X18769824Y2814948D01*
X18769825Y2814949D01*
X18881473Y2898528D01*
X18885216Y2902270D01*
X18887231Y2900255D01*
X18927888Y2924400D01*
X18982772Y2910417D01*
X18982797Y2910398D01*
X19042753Y2865515D01*
X19042754Y2865514D01*
X19174767Y2816276D01*
X19174773Y2816274D01*
X19233128Y2810000D01*
X19275000Y2810000D01*
X19625000Y2810000D01*
X19666872Y2810000D01*
X19725226Y2816274D01*
X19725232Y2816276D01*
X19857245Y2865514D01*
X19857246Y2865515D01*
X19970044Y2949956D01*
X19994877Y2983129D01*
X30740000Y2983129D01*
X30746273Y2924774D01*
X30746275Y2924768D01*
X30795513Y2792755D01*
X30795514Y2792754D01*
X30879955Y2679956D01*
X30992753Y2595515D01*
X30992754Y2595514D01*
X31124767Y2546276D01*
X31124773Y2546274D01*
X31183128Y2540000D01*
X31195000Y2540000D01*
X31195000Y3025000D01*
X30740000Y3025000D01*
X30740000Y2983129D01*
X19994877Y2983129D01*
X20054484Y3062753D01*
X20061481Y3081511D01*
X20061481Y3081512D01*
X20061482Y3081513D01*
X20103725Y3194771D01*
X20103726Y3194774D01*
X20110000Y3253129D01*
X20110000Y3265000D01*
X19625000Y3265000D01*
X19625000Y2810000D01*
X19275000Y2810000D01*
X19275000Y3265000D01*
X19100000Y3265000D01*
X19090100Y3255101D01*
X19078326Y3226674D01*
X19026000Y3205000D01*
X18525000Y3205000D01*
X18175000Y3205000D01*
X17680001Y3205000D01*
X17680001Y3198615D01*
X16050500Y3198615D01*
X16050500Y3293102D01*
X16050334Y3294481D01*
X16047082Y3321557D01*
X16039877Y3381564D01*
X16038707Y3384530D01*
X16035878Y3391706D01*
X16025954Y3416872D01*
X30740000Y3416872D01*
X30740000Y3375000D01*
X31195000Y3375000D01*
X31195000Y3860000D01*
X31545000Y3860000D01*
X31545000Y2540000D01*
X31556869Y2540000D01*
X31586144Y2543148D01*
X31640487Y2527193D01*
X31667632Y2477484D01*
X31666634Y2455136D01*
X31652282Y2382980D01*
X31649500Y2368993D01*
X31649500Y2231007D01*
X31658391Y2186306D01*
X31676418Y2095678D01*
X31676421Y2095668D01*
X31729223Y1968192D01*
X31775121Y1899500D01*
X31805886Y1853458D01*
X31903458Y1755886D01*
X32018189Y1679225D01*
X32145672Y1626420D01*
X32281007Y1599500D01*
X32281009Y1599500D01*
X32418991Y1599500D01*
X32418993Y1599500D01*
X32554328Y1626420D01*
X32681811Y1679225D01*
X32796542Y1755886D01*
X32894114Y1853458D01*
X32970775Y1968189D01*
X33023580Y2095672D01*
X33050500Y2231007D01*
X33050500Y2368993D01*
X33023580Y2504328D01*
X33006205Y2546274D01*
X32970775Y2631811D01*
X32942971Y2673423D01*
X32930500Y2714535D01*
X32930500Y2847722D01*
X32935165Y2873580D01*
X32954219Y2924665D01*
X32960500Y2983085D01*
X32960499Y3416914D01*
X32959904Y3422445D01*
X32959554Y3425699D01*
X32954219Y3475335D01*
X32904929Y3607489D01*
X32820403Y3720403D01*
X32707489Y3804929D01*
X32707488Y3804930D01*
X32707486Y3804931D01*
X32575339Y3854218D01*
X32575336Y3854219D01*
X32575335Y3854219D01*
X32516915Y3860500D01*
X32143084Y3860500D01*
X32093449Y3855164D01*
X32084665Y3854219D01*
X31985535Y3817246D01*
X31952511Y3804929D01*
X31893928Y3761075D01*
X31839050Y3747069D01*
X31805235Y3761076D01*
X31747246Y3804486D01*
X31747245Y3804487D01*
X31615232Y3853725D01*
X31615226Y3853727D01*
X31556872Y3860000D01*
X31545000Y3860000D01*
X31195000Y3860000D01*
X31183128Y3860000D01*
X31124773Y3853727D01*
X31124767Y3853725D01*
X30992754Y3804487D01*
X30992753Y3804486D01*
X30879955Y3720045D01*
X30795514Y3607247D01*
X30795513Y3607246D01*
X30746275Y3475233D01*
X30746273Y3475227D01*
X30740000Y3416872D01*
X16025954Y3416872D01*
X15984361Y3522342D01*
X15892922Y3642922D01*
X15892921Y3642923D01*
X15772341Y3734362D01*
X15683234Y3769501D01*
X15631564Y3789877D01*
X15602076Y3793418D01*
X15543104Y3800500D01*
X15543102Y3800500D01*
X15125315Y3800500D01*
X15096996Y3806133D01*
X14948082Y3867816D01*
X14948075Y3867818D01*
X14824288Y3892440D01*
X14783767Y3900500D01*
X14616233Y3900500D01*
X14583728Y3894035D01*
X14451924Y3867818D01*
X14451917Y3867816D01*
X14358689Y3829199D01*
X14303003Y3806133D01*
X14274685Y3800500D01*
X13856896Y3800500D01*
X13768436Y3789877D01*
X13627658Y3734362D01*
X13507078Y3642923D01*
X13507077Y3642922D01*
X13415638Y3522342D01*
X13360123Y3381564D01*
X13349666Y3294481D01*
X13349500Y3293102D01*
X13349500Y2806898D01*
X13349500Y2806896D01*
X13349499Y2806896D01*
X11299995Y2806896D01*
X11300000Y2806939D01*
X11300000Y2875000D01*
X10125000Y2875000D01*
X10125000Y2300000D01*
X9775000Y2300000D01*
X9775000Y2875000D01*
X8600000Y2875000D01*
X8600000Y2806939D01*
X255726Y2806939D01*
X250616Y2897935D01*
X250500Y2902084D01*
X250500Y3293062D01*
X8600000Y3293062D01*
X8600000Y3225000D01*
X9775000Y3225000D01*
X10125000Y3225000D01*
X11300000Y3225000D01*
X11300000Y3293050D01*
X11299998Y3293073D01*
X11289385Y3381444D01*
X11233922Y3522093D01*
X11142564Y3642565D01*
X11022092Y3733923D01*
X10881443Y3789386D01*
X10793061Y3800000D01*
X10125000Y3800000D01*
X10125000Y3225000D01*
X9775000Y3225000D01*
X9775000Y3800000D01*
X9106939Y3800000D01*
X9018556Y3789386D01*
X8877907Y3733923D01*
X8757435Y3642565D01*
X8666077Y3522093D01*
X8610614Y3381444D01*
X8600000Y3293062D01*
X250500Y3293062D01*
X250500Y12560001D01*
X1203157Y12560001D01*
X1203157Y12560000D01*
X1789625Y12560000D01*
X1755444Y12500796D01*
X1735000Y12424496D01*
X1735000Y12345504D01*
X1755444Y12269204D01*
X1789625Y12210000D01*
X1203157Y12210000D01*
X1217663Y12137070D01*
X1217665Y12137064D01*
X1281740Y11982374D01*
X1374761Y11843157D01*
X1493156Y11724762D01*
X1632373Y11631741D01*
X1787063Y11567666D01*
X1787069Y11567664D01*
X1951284Y11535000D01*
X2260000Y11535000D01*
X2260000Y12085000D01*
X2610000Y12085000D01*
X2610000Y11535000D01*
X2918716Y11535000D01*
X3082930Y11567664D01*
X3082936Y11567666D01*
X3237626Y11631741D01*
X3376843Y11724762D01*
X3376845Y11724763D01*
X3495237Y11843155D01*
X3495238Y11843157D01*
X3588259Y11982374D01*
X3652334Y12137064D01*
X3652336Y12137070D01*
X3666842Y12210000D01*
X3080375Y12210000D01*
X3114556Y12269204D01*
X3135000Y12345504D01*
X3135000Y12424496D01*
X3114556Y12500796D01*
X3080375Y12560000D01*
X3666843Y12560000D01*
X3666842Y12560001D01*
X3652336Y12632931D01*
X3652334Y12632937D01*
X3588259Y12787627D01*
X3495238Y12926844D01*
X3376843Y13045239D01*
X3237626Y13138260D01*
X3082936Y13202335D01*
X3082930Y13202337D01*
X2918716Y13235000D01*
X2610000Y13235000D01*
X2610000Y12685000D01*
X2260000Y12685000D01*
X2260000Y13235000D01*
X1951284Y13235000D01*
X1787069Y13202337D01*
X1787063Y13202335D01*
X1632373Y13138260D01*
X1493156Y13045239D01*
X1493155Y13045237D01*
X1374763Y12926845D01*
X1374761Y12926844D01*
X1281740Y12787627D01*
X1217665Y12632937D01*
X1217663Y12632931D01*
X1203157Y12560001D01*
X250500Y12560001D01*
X250500Y21200001D01*
X1203157Y21200001D01*
X1203157Y21200000D01*
X1789625Y21200000D01*
X1755444Y21140796D01*
X1735000Y21064496D01*
X1735000Y20985504D01*
X1755444Y20909204D01*
X1789625Y20850000D01*
X1203157Y20850000D01*
X1217663Y20777070D01*
X1217665Y20777064D01*
X1281740Y20622374D01*
X1374761Y20483157D01*
X1493156Y20364762D01*
X1632373Y20271741D01*
X1787063Y20207666D01*
X1787069Y20207664D01*
X1951284Y20175000D01*
X2260000Y20175000D01*
X2260000Y20725000D01*
X2610000Y20725000D01*
X2610000Y20175000D01*
X2918716Y20175000D01*
X3082930Y20207664D01*
X3082936Y20207666D01*
X3237626Y20271741D01*
X3376843Y20364762D01*
X3376845Y20364763D01*
X3495237Y20483155D01*
X3495238Y20483157D01*
X3588259Y20622374D01*
X3652334Y20777064D01*
X3652336Y20777070D01*
X3666842Y20850000D01*
X3080375Y20850000D01*
X3114556Y20909204D01*
X3135000Y20985504D01*
X3135000Y21064496D01*
X3114556Y21140796D01*
X3080375Y21200000D01*
X3666843Y21200000D01*
X3666842Y21200001D01*
X3652336Y21272931D01*
X3652334Y21272937D01*
X3588259Y21427627D01*
X3508939Y21546339D01*
X3495238Y21566844D01*
X3479478Y21582604D01*
X4074500Y21582604D01*
X4074500Y19112397D01*
X4106904Y18991465D01*
X4169504Y18883037D01*
X5386916Y17665626D01*
X5386921Y17665620D01*
X5389505Y17663036D01*
X5478036Y17574505D01*
X5572495Y17519970D01*
X5586464Y17511905D01*
X5667087Y17490301D01*
X5707398Y17479499D01*
X5707399Y17479499D01*
X5837131Y17479499D01*
X5837147Y17479500D01*
X6163775Y17479500D01*
X6216101Y17457826D01*
X6237775Y17405500D01*
X6216101Y17353174D01*
X6212826Y17349900D01*
X6212824Y17349898D01*
X6077924Y17214998D01*
X5964784Y17101858D01*
X5872902Y17009977D01*
X5807932Y16897446D01*
X5807930Y16897441D01*
X5774300Y16771933D01*
X5774300Y16138068D01*
X5807930Y16012560D01*
X5807932Y16012555D01*
X5858249Y15925405D01*
X5858249Y15925404D01*
X5872902Y15900024D01*
X6216100Y15556826D01*
X6237774Y15504500D01*
X6216100Y15452174D01*
X6163774Y15430500D01*
X5547147Y15430500D01*
X5547131Y15430501D01*
X5542601Y15430501D01*
X5417399Y15430501D01*
X5417398Y15430501D01*
X5296463Y15398096D01*
X5188036Y15335496D01*
X5134352Y15281811D01*
X5099505Y15246964D01*
X5099503Y15246962D01*
X4712414Y14859873D01*
X4322628Y14470088D01*
X4244504Y14391964D01*
X4181904Y14283536D01*
X4149500Y14162604D01*
X4149500Y11412397D01*
X4181904Y11291465D01*
X4236875Y11196252D01*
X4244505Y11183036D01*
X5029503Y10398039D01*
X5029505Y10398036D01*
X5066440Y10361101D01*
X5093429Y10334112D01*
X5110437Y10307648D01*
X5124414Y10270175D01*
X5124506Y10269930D01*
X5157895Y10225328D01*
X5208169Y10158169D01*
X5319932Y10074505D01*
X5319931Y10074505D01*
X5397742Y10045483D01*
X5450738Y10025716D01*
X5508557Y10019500D01*
X5871442Y10019501D01*
X5871443Y10019501D01*
X5871443Y10019502D01*
X5929262Y10025716D01*
X6060068Y10074505D01*
X6156072Y10146373D01*
X6210949Y10160379D01*
X6244765Y10146372D01*
X6340174Y10074949D01*
X6340175Y10074948D01*
X6470841Y10026213D01*
X6470847Y10026211D01*
X6528613Y10020001D01*
X6885000Y10020001D01*
X6891384Y10020001D01*
X6949156Y10026212D01*
X7079824Y10074948D01*
X7079825Y10074949D01*
X7191472Y10158528D01*
X7275051Y10270175D01*
X7275052Y10270176D01*
X7323787Y10400842D01*
X7323788Y10400847D01*
X7330000Y10458615D01*
X7330000Y10515000D01*
X6885000Y10515000D01*
X6885000Y10020001D01*
X6528613Y10020001D01*
X6534999Y10020002D01*
X6535000Y10020002D01*
X6535000Y10865000D01*
X6885000Y10865000D01*
X7329999Y10865000D01*
X7329999Y10921386D01*
X7323788Y10979157D01*
X7275052Y11109825D01*
X7275051Y11109826D01*
X7191472Y11221473D01*
X7079825Y11305052D01*
X7079824Y11305053D01*
X6949158Y11353788D01*
X6949153Y11353789D01*
X6891386Y11360000D01*
X6885000Y11360000D01*
X6885000Y10865000D01*
X6535000Y10865000D01*
X6535000Y11360000D01*
X6534999Y11360001D01*
X6528619Y11360000D01*
X6528610Y11359999D01*
X6470843Y11353789D01*
X6340175Y11305053D01*
X6340170Y11305050D01*
X6244763Y11233629D01*
X6189885Y11219622D01*
X6156071Y11233629D01*
X6095316Y11279109D01*
X6060067Y11305496D01*
X6060068Y11305496D01*
X5929263Y11354284D01*
X5929260Y11354285D01*
X5871444Y11360500D01*
X5508556Y11360500D01*
X5508555Y11360499D01*
X5477622Y11357174D01*
X5456535Y11354908D01*
X5402194Y11370864D01*
X5396301Y11376157D01*
X5259519Y11512939D01*
X5122174Y11650285D01*
X5100500Y11702611D01*
X5100500Y12125578D01*
X5122174Y12177904D01*
X5174500Y12199578D01*
X5226826Y12177904D01*
X5247078Y12140013D01*
X5247662Y12137073D01*
X5247665Y12137064D01*
X5311740Y11982374D01*
X5404761Y11843157D01*
X5523156Y11724762D01*
X5662373Y11631741D01*
X5817063Y11567666D01*
X5817069Y11567664D01*
X5981284Y11535000D01*
X6440000Y11535000D01*
X6440000Y12085000D01*
X6790000Y12085000D01*
X6790000Y11535000D01*
X7248716Y11535000D01*
X7412930Y11567664D01*
X7412936Y11567666D01*
X7567626Y11631741D01*
X7706843Y11724762D01*
X7706845Y11724763D01*
X7825237Y11843155D01*
X7825238Y11843157D01*
X7918259Y11982374D01*
X7982334Y12137064D01*
X7982336Y12137070D01*
X7996842Y12210000D01*
X7410375Y12210000D01*
X7444556Y12269204D01*
X7465000Y12345504D01*
X7465000Y12424496D01*
X7444556Y12500796D01*
X7410375Y12560000D01*
X7996843Y12560000D01*
X7996842Y12560001D01*
X7982336Y12632931D01*
X7982334Y12632937D01*
X7918259Y12787627D01*
X7884594Y12838011D01*
X7873545Y12893560D01*
X7901776Y12938363D01*
X7981188Y12997812D01*
X8067353Y13112912D01*
X8067354Y13112913D01*
X8117596Y13247620D01*
X8117597Y13247625D01*
X8124000Y13307172D01*
X8124000Y13330000D01*
X7449000Y13330000D01*
X7449000Y12849000D01*
X7427326Y12796674D01*
X7375000Y12775000D01*
X7173000Y12775000D01*
X7120674Y12796674D01*
X7099000Y12849000D01*
X7099000Y13330000D01*
X6622531Y13330000D01*
X6570205Y13351674D01*
X6548531Y13404000D01*
X6570204Y13456325D01*
X6575515Y13461635D01*
X6651281Y13592865D01*
X6653982Y13602948D01*
X6659933Y13625153D01*
X6671691Y13640477D01*
X6679085Y13658326D01*
X6688324Y13662154D01*
X6694412Y13670086D01*
X6731411Y13680000D01*
X6751982Y13680000D01*
X6777841Y13675335D01*
X6816517Y13660909D01*
X6876127Y13654500D01*
X7671872Y13654501D01*
X7731483Y13660909D01*
X7770159Y13675334D01*
X7796019Y13680000D01*
X8124000Y13680000D01*
X8126826Y13682826D01*
X8179152Y13704500D01*
X10850021Y13704500D01*
X10850037Y13704499D01*
X10854567Y13704499D01*
X11012683Y13704499D01*
X11012683Y13704500D01*
X11165409Y13745423D01*
X11219433Y13776614D01*
X11302340Y13824480D01*
X11414144Y13936284D01*
X11414145Y13936287D01*
X12459720Y14981860D01*
X12509220Y15067599D01*
X12554153Y15102077D01*
X12575145Y15104269D01*
X12575145Y15104500D01*
X12577126Y15104501D01*
X12577127Y15104500D01*
X13697306Y15104501D01*
X13697872Y15104501D01*
X13757483Y15110909D01*
X13824907Y15136057D01*
X13892329Y15161203D01*
X13892329Y15161204D01*
X13892331Y15161204D01*
X14006592Y15246741D01*
X14050939Y15261500D01*
X14216223Y15261500D01*
X14216223Y15261501D01*
X14341735Y15295132D01*
X14454267Y15360102D01*
X14546149Y15451984D01*
X15019391Y15925226D01*
X15071717Y15946900D01*
X22845789Y15946900D01*
X22898115Y15925226D01*
X22919789Y15872900D01*
X22898115Y15820574D01*
X22244504Y15166964D01*
X22181904Y15058536D01*
X22149500Y14937604D01*
X22149500Y14605951D01*
X22127826Y14553625D01*
X22075500Y14531951D01*
X22047182Y14537584D01*
X21927546Y14587139D01*
X21927535Y14587142D01*
X21783455Y14615800D01*
X21636545Y14615800D01*
X21636544Y14615800D01*
X21536104Y14595823D01*
X21480556Y14606873D01*
X21449091Y14653966D01*
X21453301Y14696715D01*
X21473580Y14745672D01*
X21500500Y14881007D01*
X21500500Y15018993D01*
X21473580Y15154328D01*
X21444061Y15225594D01*
X21420776Y15281809D01*
X21412348Y15294422D01*
X21344114Y15396542D01*
X21246542Y15494114D01*
X21230998Y15504500D01*
X21131808Y15570777D01*
X21004332Y15623579D01*
X21004322Y15623582D01*
X20913694Y15641609D01*
X20868993Y15650500D01*
X20731007Y15650500D01*
X20692642Y15642869D01*
X20595677Y15623582D01*
X20595667Y15623579D01*
X20468191Y15570777D01*
X20353461Y15494117D01*
X20255883Y15396539D01*
X20179223Y15281809D01*
X20126421Y15154333D01*
X20126418Y15154323D01*
X20113899Y15091384D01*
X20082433Y15044292D01*
X20026884Y15033243D01*
X19997825Y15045954D01*
X19923650Y15099846D01*
X19721975Y15202603D01*
X19506731Y15272540D01*
X19506722Y15272542D01*
X19506721Y15272542D01*
X19394945Y15290246D01*
X19283170Y15307950D01*
X19283169Y15307950D01*
X19056831Y15307950D01*
X19056830Y15307950D01*
X18833279Y15272542D01*
X18833268Y15272540D01*
X18618024Y15202603D01*
X18416349Y15099846D01*
X18233243Y14966811D01*
X18073189Y14806757D01*
X17940154Y14623651D01*
X17837397Y14421976D01*
X17767460Y14206732D01*
X17767458Y14206721D01*
X17734637Y13999500D01*
X17732050Y13983169D01*
X17732050Y13756831D01*
X17765859Y13543372D01*
X17767458Y13533280D01*
X17767460Y13533269D01*
X17837397Y13318025D01*
X17940154Y13116350D01*
X18073189Y12933244D01*
X18073193Y12933239D01*
X18073198Y12933234D01*
X18129606Y12876826D01*
X18151280Y12824500D01*
X18129606Y12772174D01*
X18077280Y12750500D01*
X18037397Y12750500D01*
X17916464Y12718096D01*
X17808036Y12655496D01*
X16519504Y11366964D01*
X16456904Y11258536D01*
X16424500Y11137604D01*
X16424500Y9827611D01*
X16402826Y9775285D01*
X15774715Y9147174D01*
X15722389Y9125500D01*
X10412397Y9125500D01*
X10291464Y9093096D01*
X10183036Y9030496D01*
X9569504Y8416964D01*
X9506904Y8308536D01*
X9474500Y8187604D01*
X9474500Y8074500D01*
X9452826Y8022174D01*
X9400500Y8000500D01*
X9106896Y8000500D01*
X9018436Y7989877D01*
X8877658Y7934362D01*
X8757078Y7842923D01*
X8757077Y7842922D01*
X8665638Y7722342D01*
X8610123Y7581564D01*
X8601296Y7508054D01*
X8599500Y7493102D01*
X8599500Y7006898D01*
X8599500Y7006896D01*
X8599499Y7006896D01*
X8610123Y6918437D01*
X8665638Y6777659D01*
X8720747Y6704988D01*
X8757078Y6657078D01*
X8877658Y6565639D01*
X9018436Y6510123D01*
X9089764Y6501558D01*
X9106896Y6499500D01*
X9106898Y6499500D01*
X10793104Y6499500D01*
X10808722Y6501376D01*
X10881564Y6510123D01*
X11022342Y6565639D01*
X11142922Y6657078D01*
X11234361Y6777658D01*
X11289877Y6918436D01*
X11300500Y7006896D01*
X13349499Y7006896D01*
X13360123Y6918437D01*
X13415638Y6777659D01*
X13470747Y6704988D01*
X13507078Y6657078D01*
X13627658Y6565639D01*
X13768436Y6510123D01*
X13839764Y6501558D01*
X13856896Y6499500D01*
X13856898Y6499500D01*
X14747389Y6499500D01*
X14799715Y6477826D01*
X16188036Y5089505D01*
X16296464Y5026905D01*
X16296463Y5026905D01*
X16366286Y5008196D01*
X16417396Y4994501D01*
X16417397Y4994500D01*
X16417399Y4994500D01*
X16542601Y4994500D01*
X16778959Y4994500D01*
X16831285Y4972826D01*
X16838200Y4964845D01*
X16858166Y4938172D01*
X16858167Y4938171D01*
X16858169Y4938169D01*
X16969932Y4854505D01*
X16969931Y4854505D01*
X17047742Y4825483D01*
X17100738Y4805716D01*
X17158557Y4799500D01*
X17521442Y4799501D01*
X17521443Y4799501D01*
X17521443Y4799502D01*
X17579262Y4805716D01*
X17623215Y4822110D01*
X17679815Y4820089D01*
X17718409Y4778637D01*
X17718409Y4726916D01*
X17685717Y4639267D01*
X17685715Y4639261D01*
X17679500Y4581445D01*
X17679500Y4218557D01*
X17679501Y4218556D01*
X17685716Y4160738D01*
X17734504Y4029933D01*
X17742035Y4019873D01*
X17805764Y3934740D01*
X17806371Y3933930D01*
X17820378Y3879052D01*
X17806371Y3845237D01*
X17734950Y3749830D01*
X17734947Y3749825D01*
X17686212Y3619159D01*
X17686211Y3619154D01*
X17680000Y3561386D01*
X17680000Y3555000D01*
X18710000Y3555000D01*
X18719899Y3564900D01*
X18731674Y3593326D01*
X18784000Y3615000D01*
X20110000Y3615000D01*
X20110000Y3626872D01*
X20103726Y3685227D01*
X20103724Y3685233D01*
X20054486Y3817246D01*
X20054485Y3817247D01*
X20044075Y3831153D01*
X20030068Y3886030D01*
X20058968Y3934740D01*
X20103315Y3949500D01*
X24659309Y3949500D01*
X24749673Y3973714D01*
X24749674Y3973714D01*
X24760350Y3976575D01*
X24773887Y3980201D01*
X24876614Y4039511D01*
X27939929Y7102826D01*
X27992255Y7124500D01*
X28066530Y7124500D01*
X28066531Y7124500D01*
X28197036Y7150460D01*
X28319969Y7201380D01*
X28430606Y7275305D01*
X28524695Y7369394D01*
X28598620Y7480031D01*
X28649540Y7602964D01*
X28675500Y7733469D01*
X28675500Y7866531D01*
X28673713Y7875515D01*
X28649541Y7997032D01*
X28649539Y7997039D01*
X28598620Y8119969D01*
X28524695Y8230606D01*
X28492172Y8263129D01*
X29660000Y8263129D01*
X29666273Y8204774D01*
X29666275Y8204768D01*
X29715513Y8072755D01*
X29715514Y8072754D01*
X29799955Y7959956D01*
X29912753Y7875515D01*
X29912754Y7875514D01*
X30044767Y7826276D01*
X30044773Y7826274D01*
X30103128Y7820000D01*
X30115000Y7820000D01*
X30115000Y8305000D01*
X29660000Y8305000D01*
X29660000Y8263129D01*
X28492172Y8263129D01*
X28430605Y8324696D01*
X28319968Y8398621D01*
X28197038Y8449540D01*
X28197031Y8449542D01*
X28088085Y8471213D01*
X28066531Y8475500D01*
X27933469Y8475500D01*
X27914970Y8471821D01*
X27802968Y8449542D01*
X27802961Y8449540D01*
X27680031Y8398621D01*
X27569394Y8324696D01*
X27569393Y8324694D01*
X27475306Y8230607D01*
X27475304Y8230606D01*
X27401379Y8119969D01*
X27350460Y7997039D01*
X27350458Y7997032D01*
X27324500Y7866531D01*
X27324500Y7792255D01*
X27302826Y7739929D01*
X24435071Y4872174D01*
X24382745Y4850500D01*
X20037316Y4850500D01*
X19984990Y4872174D01*
X19978076Y4880153D01*
X19970404Y4890402D01*
X19935522Y4916514D01*
X19857489Y4974929D01*
X19857488Y4974930D01*
X19857486Y4974931D01*
X19725339Y5024218D01*
X19725336Y5024219D01*
X19725335Y5024219D01*
X19666915Y5030500D01*
X19233084Y5030500D01*
X19183449Y5025164D01*
X19174665Y5024219D01*
X19042511Y4974929D01*
X19042506Y4974927D01*
X19037868Y4972394D01*
X19037081Y4973836D01*
X18988219Y4961372D01*
X18939515Y4990280D01*
X18925517Y5045160D01*
X18929426Y5060474D01*
X18974284Y5180738D01*
X18980500Y5238557D01*
X18980499Y5701442D01*
X18974284Y5759262D01*
X18926937Y5886203D01*
X18925495Y5890069D01*
X18925493Y5890072D01*
X18875916Y5956299D01*
X18875911Y5956305D01*
X18874545Y5958129D01*
X20490000Y5958129D01*
X20496273Y5899774D01*
X20496275Y5899768D01*
X20545513Y5767755D01*
X20545514Y5767754D01*
X20629955Y5654956D01*
X20742753Y5570515D01*
X20742754Y5570514D01*
X20874767Y5521276D01*
X20874773Y5521274D01*
X20933128Y5515000D01*
X20975000Y5515000D01*
X21325000Y5515000D01*
X21366872Y5515000D01*
X21425226Y5521274D01*
X21425232Y5521276D01*
X21557245Y5570514D01*
X21557246Y5570515D01*
X21670044Y5654956D01*
X21754485Y5767754D01*
X21754486Y5767755D01*
X21803724Y5899768D01*
X21803726Y5899774D01*
X21810000Y5958129D01*
X21810000Y5970000D01*
X21325000Y5970000D01*
X21325000Y5515000D01*
X20975000Y5515000D01*
X20975000Y5970000D01*
X20490000Y5970000D01*
X20490000Y5958129D01*
X18874545Y5958129D01*
X18869999Y5964202D01*
X18841831Y6001831D01*
X18758166Y6064462D01*
X18730067Y6085496D01*
X18730068Y6085496D01*
X18599263Y6134284D01*
X18599260Y6134285D01*
X18541444Y6140500D01*
X18178556Y6140500D01*
X18178555Y6140499D01*
X18120737Y6134284D01*
X17989931Y6085496D01*
X17989928Y6085494D01*
X17894346Y6013942D01*
X17839468Y5999935D01*
X17805654Y6013942D01*
X17710071Y6085494D01*
X17710068Y6085496D01*
X17579263Y6134284D01*
X17579260Y6134285D01*
X17521444Y6140500D01*
X17158556Y6140500D01*
X17158555Y6140499D01*
X17100737Y6134284D01*
X16969932Y6085496D01*
X16858166Y6001829D01*
X16838200Y5975155D01*
X16833414Y5972316D01*
X16831285Y5967174D01*
X16809640Y5958209D01*
X16789492Y5946253D01*
X16778959Y5945500D01*
X16707611Y5945500D01*
X16655285Y5967174D01*
X15969797Y6652662D01*
X15948123Y6704988D01*
X15963160Y6749702D01*
X15984361Y6777658D01*
X16039877Y6918436D01*
X16050500Y7006898D01*
X16050500Y7493102D01*
X16048704Y7508054D01*
X16044083Y7546539D01*
X16039877Y7581564D01*
X15984361Y7722342D01*
X15892922Y7842922D01*
X15875665Y7856009D01*
X15772341Y7934362D01*
X15672010Y7973927D01*
X15631564Y7989877D01*
X15597297Y7993992D01*
X15543104Y8000500D01*
X15543102Y8000500D01*
X13856898Y8000500D01*
X13856896Y8000500D01*
X13768436Y7989877D01*
X13627658Y7934362D01*
X13507078Y7842923D01*
X13507077Y7842922D01*
X13415638Y7722342D01*
X13360123Y7581564D01*
X13351296Y7508054D01*
X13349500Y7493102D01*
X13349500Y7006898D01*
X13349500Y7006896D01*
X13349499Y7006896D01*
X11300500Y7006896D01*
X11300500Y7006898D01*
X11300500Y7493102D01*
X11298704Y7508054D01*
X11294083Y7546539D01*
X11289877Y7581564D01*
X11234361Y7722342D01*
X11142922Y7842922D01*
X11125665Y7856009D01*
X11022341Y7934362D01*
X10922010Y7973927D01*
X10881564Y7989877D01*
X10847297Y7993992D01*
X10793104Y8000500D01*
X10793102Y8000500D01*
X10676611Y8000500D01*
X10624285Y8022174D01*
X10602611Y8074500D01*
X10624285Y8126826D01*
X10650285Y8152826D01*
X10702611Y8174500D01*
X16012603Y8174500D01*
X16012603Y8174501D01*
X16133536Y8206905D01*
X16241964Y8269505D01*
X16710174Y8737715D01*
X16762500Y8759389D01*
X16814826Y8737715D01*
X18833036Y6719505D01*
X18941464Y6656905D01*
X18941463Y6656905D01*
X19011286Y6638196D01*
X19062396Y6624501D01*
X19062397Y6624500D01*
X19062399Y6624500D01*
X19187601Y6624500D01*
X19196849Y6626979D01*
X19216003Y6629500D01*
X20479359Y6629500D01*
X20531685Y6607826D01*
X20553359Y6555500D01*
X20546244Y6527624D01*
X20547364Y6527206D01*
X20496275Y6390233D01*
X20496273Y6390227D01*
X20490000Y6331872D01*
X20490000Y6320000D01*
X21810000Y6320000D01*
X21810000Y6331872D01*
X21803726Y6390227D01*
X21803724Y6390233D01*
X21753593Y6524640D01*
X21754072Y6538077D01*
X21748927Y6550500D01*
X21755043Y6565267D01*
X21755614Y6581241D01*
X21765455Y6590404D01*
X21770601Y6602826D01*
X21785368Y6608944D01*
X21797067Y6619834D01*
X21822927Y6624500D01*
X21879192Y6624500D01*
X21931518Y6602826D01*
X21931518Y6602825D01*
X21968705Y6565639D01*
X21978458Y6555886D01*
X22093189Y6479225D01*
X22093190Y6479225D01*
X22093191Y6479224D01*
X22104596Y6474500D01*
X22220672Y6426420D01*
X22356007Y6399500D01*
X22356009Y6399500D01*
X22493991Y6399500D01*
X22493993Y6399500D01*
X22629328Y6426420D01*
X22756811Y6479225D01*
X22871542Y6555886D01*
X22969114Y6653458D01*
X23045775Y6768189D01*
X23098580Y6895672D01*
X23125500Y7031007D01*
X23125500Y7168993D01*
X23098580Y7304328D01*
X23071629Y7369394D01*
X23045776Y7431809D01*
X23015580Y7477000D01*
X22969114Y7546542D01*
X22871542Y7644114D01*
X22756811Y7720775D01*
X22756810Y7720776D01*
X22756808Y7720777D01*
X22629332Y7773579D01*
X22629322Y7773582D01*
X22535443Y7792255D01*
X22493993Y7800500D01*
X22356007Y7800500D01*
X22317642Y7792869D01*
X22220677Y7773582D01*
X22220667Y7773579D01*
X22093191Y7720777D01*
X21978461Y7644117D01*
X21978454Y7644111D01*
X21931517Y7597174D01*
X21879192Y7575500D01*
X21720957Y7575500D01*
X21676041Y7594105D01*
X21674639Y7592231D01*
X21670404Y7595401D01*
X21670403Y7595403D01*
X21557489Y7679929D01*
X21557488Y7679930D01*
X21557486Y7679931D01*
X21425339Y7729218D01*
X21425336Y7729219D01*
X21425335Y7729219D01*
X21366915Y7735500D01*
X20933084Y7735500D01*
X20883449Y7730164D01*
X20874665Y7729219D01*
X20742511Y7679929D01*
X20742510Y7679929D01*
X20742509Y7679928D01*
X20629405Y7595260D01*
X20585059Y7580500D01*
X19347611Y7580500D01*
X19295285Y7602174D01*
X17397174Y9500285D01*
X17375500Y9552611D01*
X17375500Y10847390D01*
X17397173Y10899715D01*
X17664190Y11166733D01*
X17716514Y11188405D01*
X17768840Y11166731D01*
X17790514Y11114405D01*
X17786893Y11091539D01*
X17770500Y11041084D01*
X17767458Y11031721D01*
X17732050Y10808169D01*
X17732050Y10581831D01*
X17761160Y10398039D01*
X17767458Y10358280D01*
X17767460Y10358269D01*
X17837397Y10143025D01*
X17940154Y9941350D01*
X18057333Y9780068D01*
X18073193Y9758239D01*
X18233239Y9598193D01*
X18233242Y9598191D01*
X18233243Y9598190D01*
X18416349Y9465155D01*
X18513552Y9415628D01*
X18618019Y9362400D01*
X18618021Y9362400D01*
X18618024Y9362398D01*
X18833268Y9292461D01*
X18833272Y9292461D01*
X18833279Y9292458D01*
X19026263Y9261892D01*
X19056830Y9257050D01*
X19056831Y9257050D01*
X19283170Y9257050D01*
X19310059Y9261310D01*
X19506721Y9292458D01*
X19506729Y9292461D01*
X19506731Y9292461D01*
X19721975Y9362398D01*
X19721975Y9362399D01*
X19721981Y9362400D01*
X19923650Y9465155D01*
X20106761Y9598193D01*
X20266807Y9758239D01*
X20270796Y9763729D01*
X20319086Y9793323D01*
X20374159Y9780102D01*
X20399031Y9748553D01*
X20415941Y9707727D01*
X20483939Y9605962D01*
X20494988Y9550413D01*
X20463522Y9503321D01*
X20450729Y9496483D01*
X20340731Y9450921D01*
X20218583Y9369304D01*
X20114696Y9265417D01*
X20033078Y9143267D01*
X19976861Y9007547D01*
X19976858Y9007536D01*
X19948200Y8863455D01*
X19948200Y8716546D01*
X19976858Y8572465D01*
X19976861Y8572454D01*
X20033078Y8436734D01*
X20107939Y8324696D01*
X20114699Y8314580D01*
X20218580Y8210699D01*
X20340731Y8129080D01*
X20340732Y8129080D01*
X20340733Y8129079D01*
X20369327Y8117235D01*
X20476458Y8072860D01*
X20620545Y8044200D01*
X20767455Y8044200D01*
X20911542Y8072860D01*
X21047269Y8129080D01*
X21169420Y8210699D01*
X21273301Y8314580D01*
X21354920Y8436731D01*
X21411140Y8572458D01*
X21439800Y8716545D01*
X21439800Y8863455D01*
X21411140Y9007542D01*
X21387168Y9065416D01*
X21354921Y9143267D01*
X21354920Y9143269D01*
X21285848Y9246641D01*
X21274800Y9302188D01*
X21306266Y9349281D01*
X21319060Y9356119D01*
X21427270Y9400940D01*
X21427271Y9400941D01*
X21462818Y9424693D01*
X21462818Y9424694D01*
X21003582Y9883930D01*
X20981908Y9936256D01*
X21003582Y9988582D01*
X21053326Y10038326D01*
X21105652Y10060000D01*
X21291836Y10060000D01*
X21344162Y10038326D01*
X21701485Y9681003D01*
X21710687Y9669790D01*
X21766937Y9585606D01*
X21766939Y9585604D01*
X21766942Y9585600D01*
X21870600Y9481942D01*
X21992489Y9400498D01*
X22100655Y9355695D01*
X22140704Y9315647D01*
X22140704Y9259010D01*
X22133866Y9246216D01*
X22065078Y9143267D01*
X22008861Y9007547D01*
X22008858Y9007536D01*
X21980200Y8863455D01*
X21980200Y8716546D01*
X22008858Y8572465D01*
X22008861Y8572454D01*
X22065078Y8436734D01*
X22139939Y8324696D01*
X22146699Y8314580D01*
X22250580Y8210699D01*
X22372731Y8129080D01*
X22372732Y8129080D01*
X22372733Y8129079D01*
X22401327Y8117235D01*
X22508458Y8072860D01*
X22652545Y8044200D01*
X22799455Y8044200D01*
X22943542Y8072860D01*
X23079269Y8129080D01*
X23201420Y8210699D01*
X23305301Y8314580D01*
X23386920Y8436731D01*
X23430768Y8542591D01*
X23470815Y8582638D01*
X23527452Y8582638D01*
X23551460Y8566597D01*
X23578547Y8539510D01*
X23681274Y8480201D01*
X23693604Y8476898D01*
X23698814Y8475501D01*
X23698817Y8475501D01*
X23698819Y8475500D01*
X23795849Y8449501D01*
X23795850Y8449500D01*
X23795852Y8449500D01*
X25259311Y8449500D01*
X25259311Y8449501D01*
X25356342Y8475500D01*
X25373887Y8480201D01*
X25476614Y8539511D01*
X26460489Y9523386D01*
X26519799Y9626113D01*
X26526333Y9650500D01*
X26530653Y9666624D01*
X26565132Y9711554D01*
X26621285Y9718945D01*
X26666217Y9684465D01*
X26670497Y9675785D01*
X26697737Y9610021D01*
X26789905Y9489906D01*
X26910020Y9397738D01*
X27049895Y9339800D01*
X27162312Y9325000D01*
X27250000Y9325000D01*
X27250000Y10975000D01*
X27162312Y10975000D01*
X27049895Y10960201D01*
X26910020Y10902263D01*
X26789905Y10810095D01*
X26697738Y10689981D01*
X26692867Y10678221D01*
X26652818Y10638173D01*
X26596181Y10638173D01*
X26556133Y10678222D01*
X26550500Y10706540D01*
X26550500Y11882745D01*
X26572174Y11935071D01*
X27364929Y12727826D01*
X27417255Y12749500D01*
X27736045Y12749500D01*
X27788371Y12727826D01*
X27810045Y12675500D01*
X27805379Y12649639D01*
X27796274Y12625230D01*
X27796273Y12625227D01*
X27790000Y12566872D01*
X27790000Y12555000D01*
X29275000Y12555000D01*
X29275000Y13010000D01*
X29233128Y13010000D01*
X29174773Y13003727D01*
X29174767Y13003725D01*
X29042754Y12954487D01*
X29042753Y12954486D01*
X28994347Y12918249D01*
X28978889Y12914304D01*
X28965796Y12905195D01*
X28953585Y12907846D01*
X28939469Y12904242D01*
X28910050Y12915200D01*
X28830386Y12966294D01*
X28818395Y12983530D01*
X28803023Y12997842D01*
X28802729Y13006049D01*
X28798042Y13012787D01*
X28801751Y13033456D01*
X28801002Y13054444D01*
X28807268Y13064195D01*
X28808047Y13068533D01*
X28811681Y13071062D01*
X28818006Y13080904D01*
X29199929Y13462826D01*
X29252255Y13484500D01*
X29931501Y13484500D01*
X29983827Y13462826D01*
X30005501Y13410500D01*
X30005501Y13339998D01*
X30020818Y13243285D01*
X30020819Y13243279D01*
X30033397Y13218593D01*
X30037840Y13162131D01*
X30033397Y13151407D01*
X30020819Y13126722D01*
X30020818Y13126717D01*
X30005500Y13030004D01*
X30005500Y12991338D01*
X29983826Y12939012D01*
X29931500Y12917338D01*
X29887154Y12932098D01*
X29857250Y12954484D01*
X29857245Y12954487D01*
X29725232Y13003725D01*
X29725226Y13003727D01*
X29666872Y13010000D01*
X29625000Y13010000D01*
X29625000Y12454000D01*
X29603326Y12401674D01*
X29551000Y12380000D01*
X29450000Y12380000D01*
X29450000Y12311575D01*
X29428326Y12259249D01*
X29376000Y12237575D01*
X29375051Y12237581D01*
X28450000Y12249440D01*
X28227999Y12252287D01*
X28190630Y12247731D01*
X28190623Y12247730D01*
X28186327Y12247207D01*
X28183459Y12247194D01*
X28179329Y12246355D01*
X28176406Y12245999D01*
X28176404Y12245998D01*
X28133644Y12240785D01*
X28133639Y12240784D01*
X28133636Y12240784D01*
X28133634Y12240783D01*
X28114071Y12235675D01*
X28089805Y12229339D01*
X28088800Y12228521D01*
X28084447Y12227057D01*
X28068780Y12223870D01*
X28063332Y12221782D01*
X28050293Y12215568D01*
X28046068Y12214146D01*
X28045388Y12214193D01*
X28041631Y12212807D01*
X28021916Y12207523D01*
X28002759Y12205000D01*
X27790000Y12205000D01*
X27783254Y12198255D01*
X27768326Y12162214D01*
X27749667Y12149322D01*
X27749843Y12149016D01*
X27746697Y12147208D01*
X27651448Y12079201D01*
X27595302Y12023055D01*
X27580204Y12006991D01*
X27518234Y11907717D01*
X27496564Y11855402D01*
X27488762Y11834780D01*
X27469500Y11719351D01*
X27469500Y11030637D01*
X27470182Y11008630D01*
X27470182Y11008626D01*
X27470183Y11008624D01*
X27481386Y10960201D01*
X27496561Y10894609D01*
X27496561Y10894608D01*
X27518230Y10842293D01*
X27518235Y10842283D01*
X27527296Y10822192D01*
X27586225Y10739657D01*
X27600000Y10696659D01*
X27600000Y9325000D01*
X27687688Y9325000D01*
X27800102Y9339800D01*
X27889118Y9376671D01*
X27945756Y9376671D01*
X27985804Y9336623D01*
X27989532Y9324985D01*
X27996558Y9294619D01*
X27996561Y9294608D01*
X28018230Y9242293D01*
X28018235Y9242283D01*
X28027296Y9222192D01*
X28095298Y9126950D01*
X28226950Y8995298D01*
X28243010Y8980203D01*
X28342283Y8918235D01*
X28394598Y8896565D01*
X28394609Y8896561D01*
X28415221Y8888762D01*
X28530652Y8869500D01*
X29602315Y8869500D01*
X29654641Y8847826D01*
X29676315Y8795500D01*
X29671649Y8769640D01*
X29666275Y8755233D01*
X29666273Y8755227D01*
X29660000Y8696872D01*
X29660000Y8655000D01*
X30216000Y8655000D01*
X30268326Y8633326D01*
X30290000Y8581000D01*
X30290000Y8480000D01*
X30391000Y8480000D01*
X30443326Y8458326D01*
X30465000Y8406000D01*
X30465000Y7820000D01*
X30476872Y7820000D01*
X30535226Y7826274D01*
X30535232Y7826276D01*
X30667245Y7875514D01*
X30667246Y7875515D01*
X30681153Y7885925D01*
X30736030Y7899932D01*
X30784740Y7871032D01*
X30799500Y7826685D01*
X30799500Y7567293D01*
X30777826Y7514967D01*
X30769848Y7508054D01*
X30742454Y7487547D01*
X30656203Y7372331D01*
X30656202Y7372330D01*
X30605910Y7237488D01*
X30605909Y7237483D01*
X30599500Y7177874D01*
X30599500Y6282127D01*
X30605909Y6222515D01*
X30656202Y6087671D01*
X30656203Y6087670D01*
X30657831Y6085495D01*
X30742454Y5972454D01*
X30839542Y5899774D01*
X30857669Y5886204D01*
X30857670Y5886203D01*
X30968605Y5844828D01*
X30992517Y5835909D01*
X31052127Y5829500D01*
X31447872Y5829501D01*
X31507483Y5835909D01*
X31574907Y5861057D01*
X31642329Y5886203D01*
X31642329Y5886204D01*
X31642331Y5886204D01*
X31757546Y5972454D01*
X31843796Y6087669D01*
X31861183Y6134284D01*
X31880666Y6186522D01*
X31919259Y6227975D01*
X31975860Y6229996D01*
X32017313Y6191403D01*
X32019334Y6186522D01*
X32056202Y6087671D01*
X32056203Y6087670D01*
X32057831Y6085495D01*
X32142454Y5972454D01*
X32239542Y5899774D01*
X32257669Y5886204D01*
X32257670Y5886203D01*
X32368605Y5844828D01*
X32392517Y5835909D01*
X32452127Y5829500D01*
X32847872Y5829501D01*
X32907483Y5835909D01*
X32974907Y5861057D01*
X33042329Y5886203D01*
X33042329Y5886204D01*
X33042331Y5886204D01*
X33157546Y5972454D01*
X33243796Y6087669D01*
X33294091Y6222517D01*
X33300500Y6282127D01*
X33300499Y7177872D01*
X33294091Y7237483D01*
X33282486Y7268598D01*
X33243797Y7372330D01*
X33243796Y7372331D01*
X33199269Y7431811D01*
X33157546Y7487546D01*
X33157545Y7487547D01*
X33130152Y7508054D01*
X33101253Y7556763D01*
X33100500Y7567293D01*
X33100500Y7826685D01*
X33122174Y7879011D01*
X33174500Y7900685D01*
X33218847Y7885925D01*
X33232753Y7875515D01*
X33232754Y7875514D01*
X33364767Y7826276D01*
X33364773Y7826274D01*
X33423128Y7820000D01*
X33435000Y7820000D01*
X33785000Y7820000D01*
X33796872Y7820000D01*
X33855226Y7826274D01*
X33855232Y7826276D01*
X33987245Y7875514D01*
X33987246Y7875515D01*
X34100044Y7959956D01*
X34184485Y8072754D01*
X34184486Y8072755D01*
X34233724Y8204768D01*
X34233726Y8204774D01*
X34240000Y8263129D01*
X34240000Y8305000D01*
X33785000Y8305000D01*
X33785000Y7820000D01*
X33435000Y7820000D01*
X33435000Y8406000D01*
X33456674Y8458326D01*
X33509000Y8480000D01*
X33610000Y8480000D01*
X33610000Y8581000D01*
X33631674Y8633326D01*
X33684000Y8655000D01*
X34240000Y8655000D01*
X34240000Y8696872D01*
X34233726Y8755227D01*
X34233725Y8755230D01*
X34207588Y8825305D01*
X34209609Y8881906D01*
X34251061Y8920500D01*
X34263068Y8923276D01*
X34262966Y8923791D01*
X34266530Y8924500D01*
X34266531Y8924500D01*
X34397036Y8950460D01*
X34519969Y9001380D01*
X34540798Y9015299D01*
X34596346Y9026348D01*
X34641308Y8996307D01*
X34641899Y8996748D01*
X34643151Y8995076D01*
X34643439Y8994883D01*
X34644049Y8993876D01*
X34650420Y8985365D01*
X34729597Y8879597D01*
X34729599Y8879596D01*
X34732769Y8875361D01*
X34730895Y8873959D01*
X34749500Y8829043D01*
X34749500Y8260123D01*
X34743867Y8231805D01*
X34701421Y8129333D01*
X34701418Y8129323D01*
X34684487Y8044200D01*
X34675105Y7997032D01*
X34674500Y7993992D01*
X34674500Y7856009D01*
X34701418Y7720678D01*
X34701421Y7720668D01*
X34754223Y7593192D01*
X34824813Y7487546D01*
X34830886Y7478458D01*
X34928458Y7380886D01*
X35043189Y7304225D01*
X35043190Y7304225D01*
X35043191Y7304224D01*
X35129200Y7268598D01*
X35170672Y7251420D01*
X35306007Y7224500D01*
X35306009Y7224500D01*
X35443991Y7224500D01*
X35443993Y7224500D01*
X35579328Y7251420D01*
X35706811Y7304225D01*
X35821542Y7380886D01*
X35919114Y7478458D01*
X35995775Y7593189D01*
X36048580Y7720672D01*
X36075500Y7856007D01*
X36075500Y7993993D01*
X36048580Y8129328D01*
X36015763Y8208556D01*
X35995776Y8256809D01*
X35983697Y8274886D01*
X35919114Y8371542D01*
X35821542Y8469114D01*
X35821538Y8469117D01*
X35821536Y8469119D01*
X35783387Y8494609D01*
X35751922Y8541701D01*
X35750500Y8556137D01*
X35750500Y8708424D01*
X35772174Y8760750D01*
X35824500Y8782424D01*
X35850361Y8777758D01*
X35934770Y8746275D01*
X35934773Y8746274D01*
X35993128Y8740000D01*
X36005000Y8740000D01*
X36005000Y9326000D01*
X36026674Y9378326D01*
X36079000Y9400000D01*
X36281000Y9400000D01*
X36333326Y9378326D01*
X36355000Y9326000D01*
X36355000Y8740000D01*
X36366872Y8740000D01*
X36425226Y8746274D01*
X36425232Y8746276D01*
X36557245Y8795514D01*
X36557246Y8795515D01*
X36670044Y8879956D01*
X36732389Y8963237D01*
X36751208Y8974404D01*
X36767614Y8988885D01*
X36774493Y8988219D01*
X36781098Y8992137D01*
X36824142Y8985365D01*
X36826417Y8984252D01*
X36856464Y8966905D01*
X36868454Y8963693D01*
X36874891Y8960544D01*
X36889250Y8944278D01*
X36906464Y8931069D01*
X36907437Y8923675D01*
X36912373Y8918084D01*
X36911024Y8896430D01*
X36913857Y8874917D01*
X36909071Y8865067D01*
X36908853Y8861556D01*
X36906250Y8859259D01*
X36901618Y8849723D01*
X36834506Y8760072D01*
X36834504Y8760069D01*
X36785716Y8629264D01*
X36785715Y8629261D01*
X36779500Y8571445D01*
X36779500Y8208557D01*
X36779501Y8208556D01*
X36785716Y8150738D01*
X36834504Y8019933D01*
X36853923Y7993992D01*
X36918169Y7908169D01*
X36918170Y7908169D01*
X36918171Y7908167D01*
X36944845Y7888200D01*
X36973747Y7839492D01*
X36974500Y7828959D01*
X36974500Y5127611D01*
X36952826Y5075285D01*
X36949504Y5071964D01*
X36886904Y4963536D01*
X36854500Y4842604D01*
X36854500Y4350421D01*
X36832826Y4298095D01*
X36814096Y4284487D01*
X36700799Y4226759D01*
X36700798Y4226759D01*
X36547931Y4115694D01*
X36414306Y3982069D01*
X36303239Y3829199D01*
X36217449Y3660825D01*
X36159062Y3481129D01*
X36159059Y3481116D01*
X36133089Y3317142D01*
X36103496Y3268851D01*
X36048424Y3255629D01*
X36000133Y3285222D01*
X35986911Y3317142D01*
X35971109Y3416914D01*
X35960940Y3481118D01*
X35960938Y3481123D01*
X35960937Y3481129D01*
X35902550Y3660825D01*
X35902547Y3660829D01*
X35902547Y3660832D01*
X35816760Y3829199D01*
X35705690Y3982073D01*
X35572073Y4115690D01*
X35572070Y4115693D01*
X35572068Y4115694D01*
X35419198Y4226761D01*
X35250824Y4312551D01*
X35071128Y4370938D01*
X35071115Y4370941D01*
X34884482Y4400500D01*
X34884481Y4400500D01*
X34695519Y4400500D01*
X34695518Y4400500D01*
X34508884Y4370941D01*
X34508871Y4370938D01*
X34329175Y4312551D01*
X34160801Y4226761D01*
X34007931Y4115694D01*
X33874306Y3982069D01*
X33763239Y3829199D01*
X33677449Y3660825D01*
X33619062Y3481129D01*
X33619059Y3481116D01*
X33589500Y3294482D01*
X33589500Y3105519D01*
X33619059Y2918885D01*
X33619062Y2918872D01*
X33677449Y2739176D01*
X33763239Y2570802D01*
X33841858Y2462592D01*
X33874310Y2417927D01*
X34007927Y2284310D01*
X34007930Y2284308D01*
X34007931Y2284307D01*
X34056871Y2248750D01*
X34160801Y2173240D01*
X34329168Y2087453D01*
X34329171Y2087453D01*
X34329175Y2087450D01*
X34508871Y2029063D01*
X34508877Y2029062D01*
X34508882Y2029060D01*
X34614039Y2012405D01*
X34695518Y1999500D01*
X34695519Y1999500D01*
X34884482Y1999500D01*
X34950227Y2009913D01*
X35071118Y2029060D01*
X35071125Y2029063D01*
X35071128Y2029063D01*
X35250824Y2087450D01*
X35250826Y2087452D01*
X35250832Y2087453D01*
X35419199Y2173240D01*
X35572073Y2284310D01*
X35705690Y2417927D01*
X35816760Y2570801D01*
X35902547Y2739168D01*
X35903565Y2742299D01*
X35960937Y2918872D01*
X35960937Y2918875D01*
X35960940Y2918882D01*
X35986911Y3082860D01*
X36016504Y3131150D01*
X36071576Y3144372D01*
X36119867Y3114779D01*
X36133089Y3082859D01*
X36159059Y2918885D01*
X36159062Y2918872D01*
X36217449Y2739176D01*
X36303239Y2570802D01*
X36381858Y2462592D01*
X36414310Y2417927D01*
X36547927Y2284310D01*
X36547930Y2284308D01*
X36547931Y2284307D01*
X36596871Y2248750D01*
X36700801Y2173240D01*
X36869168Y2087453D01*
X36869171Y2087453D01*
X36869175Y2087450D01*
X37048871Y2029063D01*
X37048877Y2029062D01*
X37048882Y2029060D01*
X37154039Y2012405D01*
X37235518Y1999500D01*
X37235519Y1999500D01*
X37424482Y1999500D01*
X37490227Y2009913D01*
X37611118Y2029060D01*
X37611125Y2029063D01*
X37611128Y2029063D01*
X37790824Y2087450D01*
X37790826Y2087452D01*
X37790832Y2087453D01*
X37959199Y2173240D01*
X38112073Y2284310D01*
X38245690Y2417927D01*
X38356760Y2570801D01*
X38442547Y2739168D01*
X38443565Y2742299D01*
X38500937Y2918872D01*
X38500937Y2918875D01*
X38500940Y2918882D01*
X38526911Y3082860D01*
X38556504Y3131150D01*
X38611576Y3144372D01*
X38659867Y3114779D01*
X38673089Y3082859D01*
X38699059Y2918885D01*
X38699062Y2918872D01*
X38757449Y2739176D01*
X38843239Y2570802D01*
X38921858Y2462592D01*
X38954310Y2417927D01*
X39087927Y2284310D01*
X39087930Y2284308D01*
X39087931Y2284307D01*
X39136871Y2248750D01*
X39240801Y2173240D01*
X39409168Y2087453D01*
X39409171Y2087453D01*
X39409175Y2087450D01*
X39588871Y2029063D01*
X39588877Y2029062D01*
X39588882Y2029060D01*
X39694039Y2012405D01*
X39775518Y1999500D01*
X39775519Y1999500D01*
X39964482Y1999500D01*
X40030227Y2009913D01*
X40151118Y2029060D01*
X40151125Y2029063D01*
X40151128Y2029063D01*
X40330824Y2087450D01*
X40330826Y2087452D01*
X40330832Y2087453D01*
X40499199Y2173240D01*
X40652073Y2284310D01*
X40785690Y2417927D01*
X40896760Y2570801D01*
X40982547Y2739168D01*
X40983565Y2742299D01*
X41040937Y2918872D01*
X41040937Y2918875D01*
X41040940Y2918882D01*
X41062911Y3057609D01*
X41092504Y3105898D01*
X41147576Y3119120D01*
X41195867Y3089527D01*
X41210000Y3046031D01*
X41210000Y2316783D01*
X41219912Y2248750D01*
X41271213Y2143812D01*
X41353810Y2061215D01*
X41458750Y2009913D01*
X41526781Y2000001D01*
X42235000Y2000001D01*
X42235000Y2729254D01*
X42344174Y2700000D01*
X42475826Y2700000D01*
X42585000Y2729254D01*
X42585000Y2000001D01*
X43293211Y2000001D01*
X43293224Y2000002D01*
X43361250Y2009913D01*
X43466188Y2061214D01*
X43548785Y2143811D01*
X43600087Y2248751D01*
X43609999Y2316777D01*
X43610000Y2316788D01*
X43610000Y3025000D01*
X42880746Y3025000D01*
X42897255Y3086612D01*
X45099500Y3086612D01*
X45099500Y2913389D01*
X45126597Y2742302D01*
X45126600Y2742289D01*
X45180125Y2577558D01*
X45180127Y2577554D01*
X45258767Y2423213D01*
X45359688Y2284307D01*
X45360586Y2283072D01*
X45483072Y2160586D01*
X45483075Y2160584D01*
X45483076Y2160583D01*
X45623212Y2058768D01*
X45777553Y1980128D01*
X45777557Y1980126D01*
X45942288Y1926601D01*
X45942294Y1926600D01*
X45942299Y1926598D01*
X46056359Y1908533D01*
X46113388Y1899500D01*
X46113389Y1899500D01*
X46286612Y1899500D01*
X46329383Y1906275D01*
X46457701Y1926598D01*
X46457708Y1926601D01*
X46457711Y1926601D01*
X46622442Y1980126D01*
X46622442Y1980127D01*
X46622445Y1980127D01*
X46776788Y2058768D01*
X46916928Y2160586D01*
X47039414Y2283072D01*
X47141232Y2423212D01*
X47219873Y2577555D01*
X47225709Y2595515D01*
X47273399Y2742289D01*
X47273399Y2742292D01*
X47273402Y2742299D01*
X47300500Y2913389D01*
X47300500Y3086611D01*
X47273402Y3257701D01*
X47273400Y3257706D01*
X47273399Y3257712D01*
X47219874Y3422443D01*
X47219872Y3422447D01*
X47141232Y3576788D01*
X47039417Y3716924D01*
X47039416Y3716925D01*
X47039414Y3716928D01*
X46916928Y3839414D01*
X46916925Y3839417D01*
X46916923Y3839418D01*
X46776787Y3941233D01*
X46622446Y4019873D01*
X46622442Y4019875D01*
X46457711Y4073400D01*
X46457698Y4073403D01*
X46286612Y4100500D01*
X46286611Y4100500D01*
X46113389Y4100500D01*
X46113388Y4100500D01*
X45942301Y4073403D01*
X45942288Y4073400D01*
X45777557Y4019875D01*
X45777553Y4019873D01*
X45623212Y3941233D01*
X45483076Y3839418D01*
X45360582Y3716924D01*
X45258767Y3576788D01*
X45180127Y3422447D01*
X45180125Y3422443D01*
X45126600Y3257712D01*
X45126597Y3257699D01*
X45099500Y3086612D01*
X42897255Y3086612D01*
X42910000Y3134174D01*
X42910000Y3265826D01*
X42880746Y3375000D01*
X43609999Y3375000D01*
X43609999Y4083211D01*
X43609998Y4083225D01*
X43600087Y4151251D01*
X43548786Y4256189D01*
X43466189Y4338786D01*
X43361249Y4390088D01*
X43293223Y4400000D01*
X42585000Y4400000D01*
X42585000Y3670747D01*
X42475826Y3700000D01*
X42344174Y3700000D01*
X42235000Y3670747D01*
X42235000Y4400000D01*
X41526782Y4400000D01*
X41458749Y4390088D01*
X41353811Y4338787D01*
X41271214Y4256190D01*
X41219912Y4151250D01*
X41210000Y4083224D01*
X41210000Y3353971D01*
X41188326Y3301645D01*
X41136000Y3279971D01*
X41083674Y3301645D01*
X41062911Y3342395D01*
X41057747Y3375000D01*
X41040940Y3481118D01*
X41040938Y3481123D01*
X41040937Y3481129D01*
X40982550Y3660825D01*
X40982547Y3660829D01*
X40982547Y3660832D01*
X40896760Y3829199D01*
X40785690Y3982073D01*
X40652073Y4115690D01*
X40652070Y4115693D01*
X40652068Y4115694D01*
X40499201Y4226759D01*
X40385904Y4284487D01*
X40349122Y4327554D01*
X40345500Y4350421D01*
X40345500Y4717603D01*
X40345499Y4717604D01*
X40313095Y4838536D01*
X40250495Y4946964D01*
X39197174Y6000285D01*
X39175500Y6052611D01*
X39175500Y7470615D01*
X40620001Y7470615D01*
X40626211Y7412844D01*
X40674947Y7282176D01*
X40674948Y7282175D01*
X40758527Y7170528D01*
X40870174Y7086949D01*
X40870175Y7086948D01*
X41000841Y7038213D01*
X41000846Y7038212D01*
X41058613Y7032001D01*
X41465000Y7032001D01*
X41521384Y7032001D01*
X41579156Y7038212D01*
X41709824Y7086948D01*
X41709825Y7086949D01*
X41821472Y7170528D01*
X41905051Y7282175D01*
X41905052Y7282176D01*
X41953787Y7412842D01*
X41953788Y7412847D01*
X41960000Y7470615D01*
X41960000Y7477000D01*
X41465000Y7477000D01*
X41465000Y7032001D01*
X41058613Y7032001D01*
X41114999Y7032002D01*
X41115000Y7032002D01*
X41115000Y7477000D01*
X40620001Y7477000D01*
X40620001Y7470615D01*
X39175500Y7470615D01*
X39175500Y7828959D01*
X39197174Y7881285D01*
X39205155Y7888200D01*
X39231828Y7908167D01*
X39231827Y7908167D01*
X39231831Y7908169D01*
X39315495Y8019932D01*
X39364284Y8150738D01*
X39370500Y8208557D01*
X39370499Y8571442D01*
X39364284Y8629262D01*
X39315495Y8760068D01*
X39243939Y8855657D01*
X39229933Y8910531D01*
X39243938Y8944343D01*
X39315495Y9039932D01*
X39364284Y9170738D01*
X39370500Y9228557D01*
X39370499Y9591442D01*
X39364284Y9649262D01*
X39315495Y9780068D01*
X39231831Y9891831D01*
X39127084Y9970243D01*
X39120067Y9975496D01*
X39120068Y9975496D01*
X38989263Y10024284D01*
X38989260Y10024285D01*
X38931445Y10030500D01*
X38931443Y10030500D01*
X38782611Y10030500D01*
X38730285Y10052174D01*
X38072703Y10709756D01*
X37964274Y10772356D01*
X37964276Y10772356D01*
X37843343Y10804760D01*
X37843341Y10804760D01*
X37530499Y10804760D01*
X37478173Y10826434D01*
X37456499Y10878760D01*
X37456499Y10885501D01*
X37478173Y10937827D01*
X37530499Y10959501D01*
X38076003Y10959501D01*
X38089225Y10961596D01*
X38172715Y10974818D01*
X38289281Y11034211D01*
X38376480Y11121411D01*
X38428805Y11143084D01*
X38481131Y11121410D01*
X39263036Y10339505D01*
X39371464Y10276905D01*
X39371463Y10276905D01*
X39441286Y10258196D01*
X39492396Y10244501D01*
X39492397Y10244500D01*
X39492399Y10244500D01*
X39617601Y10244500D01*
X40609015Y10244500D01*
X40661341Y10222826D01*
X40683015Y10170500D01*
X40676288Y10144132D01*
X40677770Y10143579D01*
X40625878Y10004451D01*
X40625877Y10004446D01*
X40619500Y9945133D01*
X40619500Y9554868D01*
X40625877Y9495555D01*
X40625878Y9495550D01*
X40675919Y9361382D01*
X40675920Y9361381D01*
X40675921Y9361380D01*
X40759779Y9249359D01*
X40761560Y9246981D01*
X40775567Y9192103D01*
X40759329Y9159573D01*
X40761341Y9158067D01*
X40758171Y9153833D01*
X40758169Y9153831D01*
X40717967Y9100128D01*
X40674504Y9042068D01*
X40625716Y8911264D01*
X40625715Y8911261D01*
X40619500Y8853445D01*
X40619500Y8490557D01*
X40619501Y8490556D01*
X40625716Y8432738D01*
X40674504Y8301933D01*
X40674505Y8301932D01*
X40744403Y8208558D01*
X40746371Y8205930D01*
X40760378Y8151052D01*
X40746371Y8117237D01*
X40674950Y8021830D01*
X40674947Y8021825D01*
X40626212Y7891159D01*
X40626211Y7891154D01*
X40620000Y7833386D01*
X40620000Y7827000D01*
X41959999Y7827000D01*
X41959999Y7833386D01*
X41953788Y7891157D01*
X41905052Y8021825D01*
X41905051Y8021826D01*
X41833628Y8117235D01*
X41819621Y8172113D01*
X41833627Y8205927D01*
X41905495Y8301932D01*
X41954284Y8432738D01*
X41960500Y8490557D01*
X41960499Y8853442D01*
X41954284Y8911262D01*
X41905495Y9042068D01*
X41821831Y9153831D01*
X41821828Y9153833D01*
X41818659Y9158067D01*
X41821315Y9160056D01*
X41803679Y9202634D01*
X41818437Y9246978D01*
X41904079Y9361380D01*
X41904460Y9362400D01*
X41929916Y9430652D01*
X41954123Y9495554D01*
X41960500Y9554868D01*
X41960500Y9945132D01*
X41954123Y10004446D01*
X41944405Y10030500D01*
X41904080Y10138619D01*
X41904079Y10138620D01*
X41865127Y10190653D01*
X41851120Y10245531D01*
X41865127Y10279347D01*
X41886313Y10307648D01*
X41904079Y10331380D01*
X41907110Y10339505D01*
X41951513Y10458557D01*
X41954123Y10465554D01*
X41960500Y10524868D01*
X41960500Y10915132D01*
X41954123Y10974446D01*
X41933165Y11030637D01*
X41904080Y11108619D01*
X41904079Y11108620D01*
X41882384Y11137601D01*
X41818260Y11223260D01*
X41709002Y11305050D01*
X41703619Y11309080D01*
X41703618Y11309081D01*
X41569450Y11359122D01*
X41569447Y11359123D01*
X41569446Y11359123D01*
X41539789Y11362312D01*
X41510133Y11365500D01*
X41510132Y11365500D01*
X41069868Y11365500D01*
X41069867Y11365500D01*
X41010554Y11359123D01*
X41010549Y11359122D01*
X40876381Y11309081D01*
X40876380Y11309080D01*
X40761739Y11223260D01*
X40757998Y11219518D01*
X40756383Y11221133D01*
X40714442Y11196252D01*
X40703917Y11195500D01*
X39782611Y11195500D01*
X39730285Y11217174D01*
X39046174Y11901285D01*
X39024500Y11953611D01*
X39024500Y12605757D01*
X39024499Y12605758D01*
X39019281Y12625230D01*
X38992095Y12726690D01*
X38929495Y12835118D01*
X38850939Y12913674D01*
X38829265Y12966000D01*
X38850939Y13018326D01*
X38903265Y13040000D01*
X38925000Y13040000D01*
X38925000Y13596000D01*
X38946674Y13648326D01*
X38999000Y13670000D01*
X39201000Y13670000D01*
X39253326Y13648326D01*
X39275000Y13596000D01*
X39275000Y13040000D01*
X39316872Y13040000D01*
X39375226Y13046274D01*
X39375232Y13046276D01*
X39507245Y13095514D01*
X39507246Y13095515D01*
X39547494Y13125644D01*
X39602372Y13139651D01*
X39644167Y13118730D01*
X39887193Y12875704D01*
X39908867Y12823378D01*
X39907446Y12808944D01*
X39899500Y12768993D01*
X39899500Y12631007D01*
X39904523Y12605757D01*
X39926418Y12495678D01*
X39926421Y12495668D01*
X39979223Y12368192D01*
X40052016Y12259249D01*
X40055886Y12253458D01*
X40153458Y12155886D01*
X40268189Y12079225D01*
X40268190Y12079225D01*
X40268191Y12079224D01*
X40268247Y12079201D01*
X40395672Y12026420D01*
X40531007Y11999500D01*
X40531009Y11999500D01*
X40668991Y11999500D01*
X40668993Y11999500D01*
X40804328Y12026420D01*
X40931811Y12079225D01*
X41046542Y12155886D01*
X41144114Y12253458D01*
X41220775Y12368189D01*
X41273580Y12495672D01*
X41300500Y12631007D01*
X41300500Y12768993D01*
X41273580Y12904328D01*
X41259482Y12938363D01*
X41220776Y13031809D01*
X41211802Y13045239D01*
X41144114Y13146542D01*
X41046542Y13244114D01*
X41041287Y13247625D01*
X40931808Y13320777D01*
X40804332Y13373579D01*
X40804322Y13373582D01*
X40713694Y13391609D01*
X40668993Y13400500D01*
X40668991Y13400500D01*
X40667255Y13400500D01*
X40666711Y13400725D01*
X40665372Y13400857D01*
X40665412Y13401264D01*
X40614929Y13422174D01*
X40376424Y13660679D01*
X47975001Y13660679D01*
X47990443Y13543372D01*
X47990444Y13543368D01*
X48050900Y13397413D01*
X48147075Y13272076D01*
X48272412Y13175901D01*
X48418369Y13115444D01*
X48535678Y13100001D01*
X49250000Y13100001D01*
X49600000Y13100001D01*
X50314321Y13100001D01*
X50431628Y13115444D01*
X50431632Y13115445D01*
X50577587Y13175901D01*
X50702924Y13272076D01*
X50799099Y13397413D01*
X50859556Y13543370D01*
X50875000Y13660679D01*
X50875000Y13800000D01*
X49600000Y13800000D01*
X49600000Y13100001D01*
X49250000Y13100001D01*
X49250000Y13800000D01*
X47975001Y13800000D01*
X47975001Y13660679D01*
X40376424Y13660679D01*
X40372174Y13664929D01*
X40350500Y13717255D01*
X40350500Y13771502D01*
X40372174Y13823828D01*
X40424500Y13845502D01*
X40432432Y13845076D01*
X40433137Y13845000D01*
X40475000Y13845000D01*
X40825000Y13845000D01*
X40866872Y13845000D01*
X40925226Y13851274D01*
X40925232Y13851276D01*
X41057245Y13900514D01*
X41057246Y13900515D01*
X41170044Y13984956D01*
X41254485Y14097754D01*
X41254486Y14097755D01*
X41303724Y14229768D01*
X41303726Y14229774D01*
X41310000Y14288129D01*
X43090000Y14288129D01*
X43096273Y14229774D01*
X43096275Y14229768D01*
X43145513Y14097755D01*
X43145514Y14097754D01*
X43229955Y13984956D01*
X43342753Y13900515D01*
X43342754Y13900514D01*
X43474767Y13851276D01*
X43474773Y13851274D01*
X43533128Y13845000D01*
X43575000Y13845000D01*
X43925000Y13845000D01*
X43966872Y13845000D01*
X44025226Y13851274D01*
X44025229Y13851275D01*
X44155829Y13899986D01*
X44155829Y13899987D01*
X44155831Y13899987D01*
X44157247Y13900516D01*
X44270044Y13984956D01*
X44354485Y14097754D01*
X44354486Y14097755D01*
X44403724Y14229768D01*
X44403726Y14229774D01*
X44410000Y14288129D01*
X44410000Y14300000D01*
X43925000Y14300000D01*
X43925000Y13845000D01*
X43575000Y13845000D01*
X43575000Y14300000D01*
X43090000Y14300000D01*
X43090000Y14288129D01*
X41310000Y14288129D01*
X41310000Y14300000D01*
X40825000Y14300000D01*
X40825000Y13845000D01*
X40475000Y13845000D01*
X40475000Y14401000D01*
X40496674Y14453326D01*
X40549000Y14475000D01*
X40650000Y14475000D01*
X40650000Y14576000D01*
X40671674Y14628326D01*
X40724000Y14650000D01*
X41310000Y14650000D01*
X41310000Y14661871D01*
X41304307Y14714821D01*
X41320263Y14769164D01*
X41369972Y14796308D01*
X41403743Y14792066D01*
X41409162Y14790045D01*
X41460554Y14770877D01*
X41514109Y14765120D01*
X41519867Y14764500D01*
X41519868Y14764500D01*
X41910133Y14764500D01*
X41915381Y14765065D01*
X41969446Y14770877D01*
X42074715Y14810140D01*
X42103618Y14820920D01*
X42103618Y14820921D01*
X42103620Y14820921D01*
X42155653Y14859874D01*
X42210531Y14873880D01*
X42244346Y14859874D01*
X42270896Y14839998D01*
X42296380Y14820921D01*
X42296381Y14820920D01*
X42379162Y14790045D01*
X42430554Y14770877D01*
X42484109Y14765120D01*
X42489867Y14764500D01*
X42489868Y14764500D01*
X42880133Y14764500D01*
X42885381Y14765065D01*
X42939446Y14770877D01*
X42996256Y14792066D01*
X43052856Y14790045D01*
X43091450Y14748593D01*
X43095692Y14714823D01*
X43090000Y14661874D01*
X43090000Y14650000D01*
X44410000Y14650000D01*
X44410000Y14661872D01*
X44403726Y14720227D01*
X44403724Y14720233D01*
X44370191Y14810140D01*
X44370670Y14823577D01*
X44365525Y14836000D01*
X44371641Y14850767D01*
X44372212Y14866741D01*
X44382053Y14875904D01*
X44387199Y14888326D01*
X44401966Y14894444D01*
X44413665Y14905334D01*
X44439525Y14910000D01*
X44526167Y14910000D01*
X44578493Y14888326D01*
X44656017Y14810802D01*
X44761107Y14759427D01*
X44829240Y14749500D01*
X44829246Y14749500D01*
X45170754Y14749500D01*
X45170760Y14749500D01*
X45238893Y14759427D01*
X45238896Y14759429D01*
X45242064Y14760407D01*
X45279942Y14760410D01*
X45280064Y14761241D01*
X45353781Y14750501D01*
X45489500Y14750501D01*
X45489500Y15149000D01*
X45511174Y15201326D01*
X45563500Y15223000D01*
X45660500Y15223000D01*
X45712826Y15201326D01*
X45734500Y15149000D01*
X45734500Y14750501D01*
X45870211Y14750501D01*
X45870224Y14750502D01*
X45938245Y14760412D01*
X45938728Y14760561D01*
X45939269Y14760562D01*
X45943937Y14761241D01*
X45944036Y14760562D01*
X45982430Y14760563D01*
X45986103Y14759428D01*
X45986105Y14759428D01*
X45986107Y14759427D01*
X46054240Y14749500D01*
X46054246Y14749500D01*
X46395754Y14749500D01*
X46395760Y14749500D01*
X46463893Y14759427D01*
X46568983Y14810802D01*
X46651698Y14893517D01*
X46651700Y14893522D01*
X46652039Y14893995D01*
X46652403Y14894223D01*
X46656034Y14897853D01*
X46656873Y14897014D01*
X46700081Y14923990D01*
X46712267Y14925000D01*
X47042608Y14925000D01*
X47094934Y14903326D01*
X47101316Y14896048D01*
X47196715Y14771721D01*
X47196720Y14771716D01*
X47265947Y14718597D01*
X47322159Y14675464D01*
X47468238Y14614956D01*
X47585639Y14599500D01*
X47959584Y14599501D01*
X48011910Y14577827D01*
X48033584Y14525501D01*
X48027951Y14497183D01*
X47990443Y14406631D01*
X47975000Y14289322D01*
X47975000Y14150000D01*
X50874999Y14150000D01*
X50874999Y14289322D01*
X50859556Y14406629D01*
X50859555Y14406633D01*
X50799099Y14552588D01*
X50702924Y14677925D01*
X50577586Y14774101D01*
X50570679Y14776962D01*
X50530632Y14817012D01*
X50525000Y14845328D01*
X50525000Y16054674D01*
X50546674Y16107000D01*
X50570687Y16123043D01*
X50577588Y16125902D01*
X50702924Y16222076D01*
X50799099Y16347413D01*
X50859556Y16493370D01*
X50875000Y16610679D01*
X50875000Y16750000D01*
X47975001Y16750000D01*
X47975001Y16610679D01*
X47990443Y16493372D01*
X47990444Y16493368D01*
X48027951Y16402818D01*
X48027951Y16346181D01*
X47987902Y16306133D01*
X47959584Y16300500D01*
X47585640Y16300500D01*
X47468240Y16285045D01*
X47468236Y16285044D01*
X47322159Y16224537D01*
X47196720Y16128285D01*
X47196715Y16128280D01*
X47101316Y16003952D01*
X47052267Y15975633D01*
X47042608Y15975000D01*
X46712267Y15975000D01*
X46659941Y15996674D01*
X46652039Y16006005D01*
X46651697Y16006484D01*
X46568982Y16089199D01*
X46463894Y16140573D01*
X46395764Y16150500D01*
X46395760Y16150500D01*
X46054240Y16150500D01*
X46054237Y16150500D01*
X45986099Y16140572D01*
X45982421Y16139435D01*
X45944034Y16139437D01*
X45943936Y16138759D01*
X45939282Y16139437D01*
X45938738Y16139437D01*
X45938251Y16139588D01*
X45870223Y16149500D01*
X45734500Y16149500D01*
X45734500Y15751000D01*
X45712826Y15698674D01*
X45660500Y15677000D01*
X45563500Y15677000D01*
X45511174Y15698674D01*
X45489500Y15751000D01*
X45489500Y16149500D01*
X45353788Y16149500D01*
X45353774Y16149498D01*
X45280064Y16138760D01*
X45279943Y16139591D01*
X45242074Y16139591D01*
X45238899Y16140572D01*
X45238893Y16140573D01*
X45226802Y16142335D01*
X45170764Y16150500D01*
X45170760Y16150500D01*
X44829240Y16150500D01*
X44829235Y16150500D01*
X44761106Y16140573D01*
X44761105Y16140573D01*
X44656017Y16089199D01*
X44573301Y16006483D01*
X44573300Y16006481D01*
X44570866Y16001501D01*
X44528414Y15964010D01*
X44504385Y15960000D01*
X44248816Y15960000D01*
X44204470Y15974760D01*
X44157488Y16009930D01*
X44025339Y16059218D01*
X44025336Y16059219D01*
X44025335Y16059219D01*
X43966915Y16065500D01*
X43533084Y16065500D01*
X43483449Y16060164D01*
X43474665Y16059219D01*
X43342511Y16009929D01*
X43342510Y16009929D01*
X43342509Y16009928D01*
X43295530Y15974760D01*
X43251184Y15960000D01*
X43217244Y15960000D01*
X43172898Y15974760D01*
X43093481Y16034211D01*
X43073619Y16049080D01*
X43073618Y16049081D01*
X42939450Y16099122D01*
X42939447Y16099123D01*
X42939446Y16099123D01*
X42909789Y16102312D01*
X42880133Y16105500D01*
X42880132Y16105500D01*
X42489868Y16105500D01*
X42489867Y16105500D01*
X42430554Y16099123D01*
X42430549Y16099122D01*
X42296381Y16049081D01*
X42296376Y16049078D01*
X42244346Y16010128D01*
X42189469Y15996121D01*
X42155654Y16010128D01*
X42103623Y16049078D01*
X42103618Y16049081D01*
X41969450Y16099122D01*
X41969447Y16099123D01*
X41969446Y16099123D01*
X41939789Y16102312D01*
X41910133Y16105500D01*
X41910132Y16105500D01*
X41519868Y16105500D01*
X41519867Y16105500D01*
X41460554Y16099123D01*
X41460549Y16099122D01*
X41326381Y16049081D01*
X41326380Y16049080D01*
X41277591Y16012556D01*
X41227101Y15974760D01*
X41182756Y15960000D01*
X41148816Y15960000D01*
X41104470Y15974760D01*
X41057488Y16009930D01*
X40925339Y16059218D01*
X40925336Y16059219D01*
X40925335Y16059219D01*
X40866915Y16065500D01*
X40433084Y16065500D01*
X40383449Y16060164D01*
X40374665Y16059219D01*
X40242511Y16009929D01*
X40242510Y16009929D01*
X40242509Y16009928D01*
X40195530Y15974760D01*
X40151184Y15960000D01*
X40048850Y15960000D01*
X39996524Y15981674D01*
X39974850Y16034000D01*
X39979516Y16059860D01*
X40003724Y16124768D01*
X40003726Y16124774D01*
X40010000Y16183129D01*
X40010000Y16195000D01*
X39424000Y16195000D01*
X39371674Y16216674D01*
X39350000Y16269000D01*
X39350000Y16471000D01*
X39371674Y16523326D01*
X39424000Y16545000D01*
X40010000Y16545000D01*
X40010000Y16556870D01*
X40005759Y16596308D01*
X40021714Y16650651D01*
X40071423Y16677796D01*
X40093772Y16676798D01*
X40095671Y16676421D01*
X40095672Y16676420D01*
X40231007Y16649500D01*
X40231009Y16649500D01*
X40368991Y16649500D01*
X40368993Y16649500D01*
X40504328Y16676420D01*
X40631811Y16729225D01*
X40746542Y16805886D01*
X40844114Y16903458D01*
X40920775Y17018189D01*
X40973580Y17145672D01*
X40992208Y17239322D01*
X47975000Y17239322D01*
X47975000Y17100000D01*
X49250000Y17100000D01*
X49600000Y17100000D01*
X50874999Y17100000D01*
X50874999Y17239322D01*
X50859556Y17356629D01*
X50859555Y17356633D01*
X50799099Y17502588D01*
X50702924Y17627925D01*
X50577587Y17724100D01*
X50431630Y17784557D01*
X50314321Y17800000D01*
X49600000Y17800000D01*
X49600000Y17100000D01*
X49250000Y17100000D01*
X49250000Y17800000D01*
X48535678Y17800000D01*
X48418371Y17784557D01*
X48418367Y17784556D01*
X48272412Y17724100D01*
X48147075Y17627925D01*
X48050900Y17502588D01*
X47990443Y17356631D01*
X47975000Y17239322D01*
X40992208Y17239322D01*
X41000500Y17281007D01*
X41000500Y17418993D01*
X40973580Y17554328D01*
X40973578Y17554333D01*
X40920776Y17681809D01*
X40844116Y17796539D01*
X40844114Y17796542D01*
X40746542Y17894114D01*
X40732490Y17903503D01*
X40631808Y17970777D01*
X40504332Y18023579D01*
X40504322Y18023582D01*
X40395185Y18045290D01*
X40348093Y18076756D01*
X40337044Y18132305D01*
X40357294Y18170192D01*
X40860489Y18673386D01*
X40914926Y18767676D01*
X40914929Y18767678D01*
X40919799Y18776114D01*
X40928337Y18807978D01*
X40950499Y18890689D01*
X40950500Y18890689D01*
X40950500Y18912322D01*
X40972174Y18964648D01*
X40979775Y18971277D01*
X41092922Y19057078D01*
X41184361Y19177658D01*
X41239877Y19318436D01*
X41250500Y19406898D01*
X41250500Y19993102D01*
X41239877Y20081564D01*
X41184361Y20222342D01*
X41092922Y20342922D01*
X41089343Y20346501D01*
X41091006Y20348165D01*
X41066396Y20390243D01*
X41080746Y20445032D01*
X41089283Y20453566D01*
X41088989Y20453860D01*
X41092563Y20457435D01*
X41183922Y20577908D01*
X41239385Y20718557D01*
X41250000Y20806939D01*
X41250000Y20925000D01*
X40574000Y20925000D01*
X40521674Y20946674D01*
X40500000Y20999000D01*
X40500000Y21100000D01*
X40399000Y21100000D01*
X40346674Y21121674D01*
X40325000Y21174000D01*
X40325000Y21275000D01*
X40675000Y21275000D01*
X41250000Y21275000D01*
X41250000Y21393062D01*
X41239385Y21481444D01*
X41183922Y21622093D01*
X41092564Y21742565D01*
X40972092Y21833923D01*
X40831443Y21889386D01*
X40743061Y21900000D01*
X40675000Y21900000D01*
X40675000Y21275000D01*
X40325000Y21275000D01*
X40325000Y21900000D01*
X40256939Y21900000D01*
X40168556Y21889386D01*
X40027906Y21833922D01*
X39995125Y21809064D01*
X39940335Y21794718D01*
X39905700Y21809065D01*
X39872341Y21834362D01*
X39769289Y21875000D01*
X39731564Y21889877D01*
X39702076Y21893418D01*
X39643104Y21900500D01*
X39643102Y21900500D01*
X39156898Y21900500D01*
X39156896Y21900500D01*
X39068436Y21889877D01*
X38927658Y21834362D01*
X38807078Y21742923D01*
X38807077Y21742922D01*
X38715637Y21622341D01*
X38705785Y21597354D01*
X38666426Y21556627D01*
X38636944Y21550500D01*
X38340689Y21550500D01*
X38254961Y21527529D01*
X38250326Y21526287D01*
X38236345Y21522541D01*
X38226111Y21519799D01*
X38123389Y21460492D01*
X37289508Y20626611D01*
X37230200Y20523887D01*
X37228479Y20517464D01*
X37227342Y20513216D01*
X37199500Y20409312D01*
X37199500Y18967256D01*
X37177826Y18914930D01*
X36686741Y18423846D01*
X36634415Y18402172D01*
X36622840Y18403083D01*
X36576005Y18410500D01*
X36385997Y18410500D01*
X36289284Y18395182D01*
X36289278Y18395181D01*
X36264593Y18382603D01*
X36208131Y18378160D01*
X36197407Y18382603D01*
X36172721Y18395181D01*
X36172716Y18395182D01*
X36076003Y18410500D01*
X35885997Y18410500D01*
X35789284Y18395182D01*
X35789278Y18395181D01*
X35764593Y18382603D01*
X35708131Y18378160D01*
X35697407Y18382603D01*
X35672721Y18395181D01*
X35672716Y18395182D01*
X35576003Y18410500D01*
X35385997Y18410500D01*
X35289284Y18395182D01*
X35289278Y18395181D01*
X35264593Y18382603D01*
X35208131Y18378160D01*
X35197407Y18382603D01*
X35172721Y18395181D01*
X35172716Y18395182D01*
X35076004Y18410500D01*
X35026718Y18410500D01*
X34974392Y18432174D01*
X34952718Y18484500D01*
X34963943Y18523683D01*
X35006765Y18592283D01*
X35028439Y18644609D01*
X35036238Y18665221D01*
X35055500Y18780652D01*
X35055500Y19172096D01*
X35077174Y19224422D01*
X35099754Y19247002D01*
X35129702Y19276950D01*
X35144797Y19293010D01*
X35206765Y19392283D01*
X35206772Y19392302D01*
X35207318Y19393360D01*
X35207571Y19393575D01*
X35208386Y19394880D01*
X35208803Y19394620D01*
X35250528Y19429975D01*
X35306973Y19425313D01*
X35318171Y19418217D01*
X35410020Y19347738D01*
X35549895Y19289800D01*
X35662312Y19275000D01*
X35750000Y19275000D01*
X36100000Y19275000D01*
X36187688Y19275000D01*
X36300104Y19289800D01*
X36439979Y19347738D01*
X36560094Y19439906D01*
X36652262Y19560021D01*
X36710200Y19699896D01*
X36725000Y19812312D01*
X36725000Y19925000D01*
X36100000Y19925000D01*
X36100000Y19275000D01*
X35750000Y19275000D01*
X35750000Y20026000D01*
X35771674Y20078326D01*
X35824000Y20100000D01*
X35925000Y20100000D01*
X35925000Y20201000D01*
X35946674Y20253326D01*
X35999000Y20275000D01*
X36725000Y20275000D01*
X36725000Y20387689D01*
X36710200Y20500105D01*
X36652262Y20639980D01*
X36560094Y20760095D01*
X36439979Y20852263D01*
X36300104Y20910201D01*
X36187688Y20925000D01*
X36154304Y20925000D01*
X36101978Y20946674D01*
X36080304Y20999000D01*
X36093998Y21039222D01*
X36092871Y21039926D01*
X36094794Y21043008D01*
X36094797Y21043010D01*
X36156765Y21142283D01*
X36178439Y21194609D01*
X36186238Y21215221D01*
X36205500Y21330652D01*
X36205500Y22419348D01*
X36204817Y22441376D01*
X36178439Y22555391D01*
X36156765Y22607717D01*
X36147704Y22627808D01*
X36079702Y22723050D01*
X35873050Y22929702D01*
X35856990Y22944797D01*
X35772231Y22997705D01*
X35757716Y23006766D01*
X35705401Y23028436D01*
X35684779Y23036238D01*
X35569350Y23055500D01*
X35569348Y23055500D01*
X34780652Y23055500D01*
X34780637Y23055500D01*
X34758629Y23054818D01*
X34758624Y23054818D01*
X34758624Y23054817D01*
X34712572Y23044163D01*
X34644608Y23028439D01*
X34644607Y23028439D01*
X34592292Y23006770D01*
X34572193Y22997705D01*
X34476948Y22929701D01*
X34220302Y22673055D01*
X34214879Y22667285D01*
X34205203Y22656990D01*
X34193881Y22638852D01*
X34143234Y22557717D01*
X34121564Y22505402D01*
X34113762Y22484780D01*
X34094500Y22369351D01*
X34094500Y21477906D01*
X34072826Y21425580D01*
X33947606Y21300361D01*
X33895280Y21278687D01*
X33842954Y21300361D01*
X33821280Y21352687D01*
X33822942Y21365308D01*
X33822715Y21365337D01*
X33826949Y21397500D01*
X33838000Y21481439D01*
X33837999Y22318560D01*
X33823348Y22429854D01*
X33765989Y22568331D01*
X33674746Y22687242D01*
X33674741Y22687247D01*
X33555830Y22778490D01*
X33417356Y22835848D01*
X33417352Y22835849D01*
X33335363Y22846643D01*
X33306061Y22850500D01*
X33306059Y22850500D01*
X32793940Y22850500D01*
X32682648Y22835849D01*
X32682644Y22835848D01*
X32544172Y22778491D01*
X32482575Y22731227D01*
X32427867Y22716569D01*
X32378818Y22744888D01*
X32375998Y22748824D01*
X32360103Y22772612D01*
X32344114Y22796542D01*
X32246542Y22894114D01*
X32205641Y22921443D01*
X32131808Y22970777D01*
X32004332Y23023579D01*
X32004322Y23023582D01*
X31913694Y23041609D01*
X31868993Y23050500D01*
X31731007Y23050500D01*
X31692642Y23042869D01*
X31595677Y23023582D01*
X31595667Y23023579D01*
X31468191Y22970777D01*
X31366112Y22902570D01*
X31310563Y22891521D01*
X31283888Y22902570D01*
X31181808Y22970777D01*
X31054332Y23023579D01*
X31054322Y23023582D01*
X30963694Y23041609D01*
X30918993Y23050500D01*
X30781007Y23050500D01*
X30742642Y23042869D01*
X30645677Y23023582D01*
X30645667Y23023579D01*
X30518191Y22970777D01*
X30403461Y22894117D01*
X30305883Y22796539D01*
X30229223Y22681809D01*
X30176421Y22554333D01*
X30176418Y22554323D01*
X30158651Y22465000D01*
X30149500Y22418993D01*
X30149500Y22281007D01*
X30158391Y22236306D01*
X30176418Y22145678D01*
X30176420Y22145672D01*
X30198580Y22092172D01*
X30204733Y22077319D01*
X30204733Y22020681D01*
X30164685Y21980633D01*
X30136366Y21975000D01*
X30100000Y21975000D01*
X30100000Y20325000D01*
X30104345Y20320655D01*
X30126019Y20268329D01*
X30121353Y20242469D01*
X30096275Y20175233D01*
X30096273Y20175227D01*
X30090000Y20116872D01*
X30090000Y20075000D01*
X30646000Y20075000D01*
X30698326Y20053326D01*
X30720000Y20001000D01*
X30720000Y19900000D01*
X30821000Y19900000D01*
X30873326Y19878326D01*
X30895000Y19826000D01*
X30895000Y18240000D01*
X30906871Y18240000D01*
X30952591Y18244916D01*
X31006934Y18228960D01*
X31034078Y18179251D01*
X31026438Y18137748D01*
X31020818Y18126718D01*
X31005500Y18030005D01*
X31005500Y17485542D01*
X30983826Y17433216D01*
X30931500Y17411542D01*
X30912347Y17414064D01*
X30858472Y17428500D01*
X30858470Y17428500D01*
X30072279Y17428500D01*
X30072278Y17428500D01*
X30061538Y17425622D01*
X30042384Y17423100D01*
X15071717Y17423100D01*
X15019391Y17444774D01*
X14414266Y18049899D01*
X14413223Y18050501D01*
X14413223Y18050503D01*
X14413215Y18050505D01*
X14301736Y18114868D01*
X14301731Y18114870D01*
X14176223Y18148500D01*
X14176221Y18148500D01*
X14050939Y18148500D01*
X14006592Y18163260D01*
X14004966Y18164477D01*
X13920293Y18227864D01*
X13892330Y18248797D01*
X13892329Y18248798D01*
X13757487Y18299090D01*
X13757484Y18299091D01*
X13757483Y18299091D01*
X13727678Y18302296D01*
X13697874Y18305500D01*
X13697873Y18305500D01*
X13248386Y18305500D01*
X13196060Y18327174D01*
X13174386Y18379500D01*
X13196060Y18431826D01*
X13216409Y18452174D01*
X13447364Y18683129D01*
X30090000Y18683129D01*
X30096273Y18624774D01*
X30096275Y18624768D01*
X30145513Y18492755D01*
X30145514Y18492754D01*
X30229955Y18379956D01*
X30342753Y18295515D01*
X30342754Y18295514D01*
X30474767Y18246276D01*
X30474773Y18246274D01*
X30533128Y18240000D01*
X30545000Y18240000D01*
X30545000Y18725000D01*
X30090000Y18725000D01*
X30090000Y18683129D01*
X13447364Y18683129D01*
X13454928Y18690693D01*
X13572214Y18807978D01*
X13617062Y18852826D01*
X13669388Y18874500D01*
X13877718Y18874500D01*
X13877720Y18874500D01*
X13990236Y18889313D01*
X14130233Y18947302D01*
X14250451Y19039549D01*
X14342698Y19159767D01*
X14400687Y19299764D01*
X14415500Y19412280D01*
X14415500Y19685615D01*
X18755001Y19685615D01*
X18761211Y19627844D01*
X18809947Y19497176D01*
X18809948Y19497175D01*
X18893527Y19385528D01*
X19005174Y19301949D01*
X19005175Y19301948D01*
X19135841Y19253213D01*
X19135846Y19253212D01*
X19193613Y19247001D01*
X19600000Y19247001D01*
X19656384Y19247001D01*
X19714156Y19253212D01*
X19844824Y19301948D01*
X19844825Y19301949D01*
X19956472Y19385528D01*
X20040051Y19497175D01*
X20040052Y19497176D01*
X20088787Y19627842D01*
X20088788Y19627847D01*
X20094733Y19683129D01*
X30090000Y19683129D01*
X30096273Y19624774D01*
X30096275Y19624768D01*
X30145513Y19492755D01*
X30145514Y19492754D01*
X30181751Y19444347D01*
X30195758Y19389469D01*
X30181751Y19355653D01*
X30145514Y19307247D01*
X30145513Y19307246D01*
X30096275Y19175233D01*
X30096273Y19175227D01*
X30090000Y19116872D01*
X30090000Y19075000D01*
X30545000Y19075000D01*
X30545000Y19725000D01*
X30090000Y19725000D01*
X30090000Y19683129D01*
X20094733Y19683129D01*
X20095000Y19685615D01*
X20095000Y19692000D01*
X19600000Y19692000D01*
X19600000Y19247001D01*
X19193613Y19247001D01*
X19249999Y19247002D01*
X19250000Y19247002D01*
X19250000Y19692000D01*
X18755001Y19692000D01*
X18755001Y19685615D01*
X14415500Y19685615D01*
X14415500Y19987720D01*
X14400687Y20100236D01*
X14342698Y20240233D01*
X14250451Y20360451D01*
X14244446Y20365059D01*
X14216132Y20414109D01*
X14215500Y20423763D01*
X14215500Y20622238D01*
X14237174Y20674564D01*
X14278141Y20694161D01*
X14277980Y20694845D01*
X14281126Y20695589D01*
X14281597Y20695814D01*
X14282483Y20695909D01*
X14399357Y20739500D01*
X14417329Y20746203D01*
X14417329Y20746204D01*
X14417331Y20746204D01*
X14532546Y20832454D01*
X14618796Y20947669D01*
X14669091Y21082517D01*
X14675500Y21142127D01*
X14675499Y21537872D01*
X14669091Y21597483D01*
X14659819Y21622342D01*
X14618798Y21732328D01*
X14618796Y21732331D01*
X14589793Y21771074D01*
X14575787Y21825948D01*
X14589796Y21859767D01*
X14618354Y21897914D01*
X14668596Y22032620D01*
X14668597Y22032625D01*
X14675000Y22092172D01*
X14675000Y22115000D01*
X12650000Y22115000D01*
X12650000Y22092172D01*
X12656402Y22032622D01*
X12656663Y22031519D01*
X12656577Y22030993D01*
X12656897Y22028022D01*
X12656082Y22027935D01*
X12647605Y21975611D01*
X12601666Y21942484D01*
X12584647Y21940500D01*
X12224500Y21940500D01*
X12172174Y21962174D01*
X12150500Y22014500D01*
X12150500Y22565500D01*
X12172174Y22617826D01*
X12224500Y22639500D01*
X12584647Y22639500D01*
X12636973Y22617826D01*
X12658647Y22565500D01*
X12656663Y22548481D01*
X12656402Y22547379D01*
X12650000Y22487829D01*
X12650000Y22465000D01*
X14686637Y22465000D01*
X14719093Y22478445D01*
X14770062Y22458096D01*
X14830439Y22400738D01*
X14933844Y22302502D01*
X14946345Y22291180D01*
X14946352Y22291174D01*
X14963048Y22281009D01*
X15046309Y22230317D01*
X15046315Y22230315D01*
X15046316Y22230314D01*
X15097020Y22209971D01*
X15112854Y22204050D01*
X15112856Y22204050D01*
X15112858Y22204049D01*
X15228225Y22184405D01*
X17044889Y22178384D01*
X17097141Y22156536D01*
X17118642Y22104139D01*
X17113009Y22076066D01*
X17059799Y21947605D01*
X17045000Y21835189D01*
X17045000Y21737092D01*
X17023326Y21684766D01*
X16971000Y21663092D01*
X16918674Y21684766D01*
X16901666Y21711232D01*
X16893797Y21732330D01*
X16893796Y21732331D01*
X16807546Y21847546D01*
X16692331Y21933796D01*
X16692330Y21933797D01*
X16692329Y21933798D01*
X16557487Y21984090D01*
X16557484Y21984091D01*
X16557483Y21984091D01*
X16497873Y21990500D01*
X15377126Y21990500D01*
X15317514Y21984091D01*
X15182670Y21933798D01*
X15182669Y21933797D01*
X15067454Y21847546D01*
X14981203Y21732331D01*
X14981202Y21732330D01*
X14930910Y21597488D01*
X14930909Y21597483D01*
X14924500Y21537874D01*
X14924500Y21142128D01*
X14930909Y21082515D01*
X14981202Y20947671D01*
X14981203Y20947670D01*
X14981204Y20947669D01*
X15067454Y20832454D01*
X15182669Y20746204D01*
X15182670Y20746203D01*
X15289499Y20706359D01*
X15317517Y20695909D01*
X15377127Y20689500D01*
X16497872Y20689501D01*
X16557483Y20695909D01*
X16674357Y20739500D01*
X16692329Y20746203D01*
X16692329Y20746204D01*
X16692331Y20746204D01*
X16807546Y20832454D01*
X16893796Y20947669D01*
X16944091Y21082517D01*
X16946748Y21107237D01*
X16973890Y21156945D01*
X17028233Y21172902D01*
X17077943Y21145760D01*
X17088691Y21127645D01*
X17117738Y21057520D01*
X17209905Y20937406D01*
X17330020Y20845238D01*
X17469895Y20787300D01*
X17582312Y20772500D01*
X17695000Y20772500D01*
X17695000Y21498500D01*
X17716674Y21550826D01*
X17769000Y21572500D01*
X17870000Y21572500D01*
X17870000Y21673500D01*
X17891674Y21725826D01*
X17944000Y21747500D01*
X18721897Y21747500D01*
X18728284Y21750147D01*
X18780614Y21728483D01*
X18797632Y21702008D01*
X18810920Y21666381D01*
X18893082Y21556627D01*
X18896740Y21551740D01*
X18919846Y21534443D01*
X18922685Y21529659D01*
X18927826Y21527529D01*
X18936790Y21505888D01*
X18948747Y21485736D01*
X18949500Y21475203D01*
X18949500Y21448042D01*
X18927826Y21395716D01*
X18919847Y21388802D01*
X18893170Y21368833D01*
X18828240Y21282096D01*
X18779531Y21253196D01*
X18724653Y21267203D01*
X18695753Y21315912D01*
X18695000Y21326443D01*
X18695000Y21397500D01*
X18045000Y21397500D01*
X18045000Y20772500D01*
X18157688Y20772500D01*
X18270104Y20787300D01*
X18409979Y20845238D01*
X18530095Y20937407D01*
X18530096Y20937408D01*
X18621792Y21056907D01*
X18670841Y21085226D01*
X18725548Y21070567D01*
X18753867Y21021518D01*
X18754500Y21011859D01*
X18754500Y20705557D01*
X18754501Y20705556D01*
X18760716Y20647738D01*
X18809504Y20516933D01*
X18809505Y20516932D01*
X18871316Y20434361D01*
X18881371Y20420930D01*
X18895378Y20366052D01*
X18881371Y20332237D01*
X18809950Y20236830D01*
X18809947Y20236825D01*
X18761212Y20106159D01*
X18761211Y20106154D01*
X18755000Y20048386D01*
X18755000Y20042000D01*
X20094999Y20042000D01*
X20094999Y20048386D01*
X20088788Y20106157D01*
X20040052Y20236825D01*
X20040051Y20236826D01*
X19968628Y20332235D01*
X19954621Y20387113D01*
X19968627Y20420927D01*
X20040495Y20516932D01*
X20089284Y20647738D01*
X20095500Y20705557D01*
X20095500Y20862312D01*
X29125000Y20862312D01*
X29139799Y20749896D01*
X29197737Y20610021D01*
X29289905Y20489906D01*
X29410020Y20397738D01*
X29549895Y20339800D01*
X29662312Y20325000D01*
X29750000Y20325000D01*
X29750000Y20975000D01*
X29125000Y20975000D01*
X29125000Y20862312D01*
X20095500Y20862312D01*
X20095499Y21068442D01*
X20089284Y21126262D01*
X20040495Y21257068D01*
X19956831Y21368831D01*
X19956829Y21368832D01*
X19956829Y21368833D01*
X19940745Y21380873D01*
X19940745Y21380874D01*
X19930154Y21388802D01*
X19901253Y21437510D01*
X19901240Y21437689D01*
X29125000Y21437689D01*
X29125000Y21325000D01*
X29750000Y21325000D01*
X29750000Y21975000D01*
X29662312Y21975000D01*
X29549895Y21960201D01*
X29410020Y21902263D01*
X29289905Y21810095D01*
X29197737Y21689980D01*
X29139799Y21550105D01*
X29125000Y21437689D01*
X19901240Y21437689D01*
X19900500Y21448042D01*
X19900500Y21475203D01*
X19922174Y21527529D01*
X19930148Y21534440D01*
X19953260Y21551740D01*
X20039079Y21666380D01*
X20040169Y21669301D01*
X20067494Y21742565D01*
X20089123Y21800554D01*
X20095500Y21859868D01*
X20095500Y22250132D01*
X20089123Y22309446D01*
X20084845Y22320916D01*
X20086864Y22377514D01*
X20101853Y22399103D01*
X20121743Y22418992D01*
X20254702Y22551950D01*
X20269797Y22568011D01*
X20331765Y22667284D01*
X20353439Y22719610D01*
X20361238Y22740222D01*
X20380500Y22855653D01*
X20380500Y24744348D01*
X20379817Y24766376D01*
X20353439Y24880391D01*
X20331765Y24932717D01*
X20322704Y24952808D01*
X20254702Y25048050D01*
X19998050Y25304702D01*
X19981990Y25319797D01*
X19897231Y25372705D01*
X19882716Y25381766D01*
X19830401Y25403436D01*
X19818901Y25407787D01*
X19809779Y25411238D01*
X19778080Y25416528D01*
X19694350Y25430500D01*
X19694348Y25430500D01*
X15230652Y25430500D01*
X15230637Y25430500D01*
X15208629Y25429818D01*
X15208624Y25429818D01*
X15208624Y25429817D01*
X15162572Y25419163D01*
X15094608Y25403439D01*
X15094607Y25403439D01*
X15042292Y25381770D01*
X15022193Y25372705D01*
X14926948Y25304701D01*
X14670302Y25048055D01*
X14655204Y25031991D01*
X14593234Y24932717D01*
X14571564Y24880402D01*
X14563762Y24859780D01*
X14544500Y24744351D01*
X14544500Y23886432D01*
X14522826Y23834106D01*
X14470500Y23812432D01*
X14426153Y23827192D01*
X14417330Y23833797D01*
X14417329Y23833798D01*
X14282487Y23884090D01*
X14282484Y23884091D01*
X14282483Y23884091D01*
X14222873Y23890500D01*
X13102126Y23890500D01*
X13042514Y23884091D01*
X12938153Y23845166D01*
X12912293Y23840500D01*
X11785940Y23840500D01*
X11633218Y23799579D01*
X11633213Y23799577D01*
X11597964Y23779225D01*
X11496283Y23720520D01*
X11069480Y23293717D01*
X11034789Y23233629D01*
X11027978Y23221831D01*
X11026703Y23219622D01*
X10990422Y23156784D01*
X10990421Y23156782D01*
X10949499Y23004060D01*
X10949499Y22839985D01*
X10949500Y22839972D01*
X10949500Y21733604D01*
X10949499Y21733586D01*
X10949499Y21570941D01*
X10990421Y21418219D01*
X10990422Y21418217D01*
X10990423Y21418215D01*
X10991769Y21415884D01*
X10991771Y21415877D01*
X10991773Y21415877D01*
X11069480Y21281284D01*
X11185499Y21165265D01*
X11185505Y21165260D01*
X11376891Y20973874D01*
X11376896Y20973868D01*
X11379480Y20971284D01*
X11491284Y20859480D01*
X11578095Y20809361D01*
X11628215Y20780423D01*
X11628217Y20780423D01*
X11628218Y20780422D01*
X11657784Y20772500D01*
X11780939Y20739501D01*
X11780940Y20739500D01*
X11780942Y20739500D01*
X11780943Y20739500D01*
X12912291Y20739500D01*
X12938150Y20734835D01*
X12966359Y20724314D01*
X13007812Y20685721D01*
X13014500Y20654979D01*
X13014500Y20423763D01*
X12992826Y20371437D01*
X12985553Y20365059D01*
X12979549Y20360451D01*
X12965827Y20342568D01*
X12898393Y20254688D01*
X12849343Y20226370D01*
X12794636Y20241029D01*
X12780977Y20254688D01*
X12700094Y20360095D01*
X12579979Y20452263D01*
X12440104Y20510201D01*
X12327688Y20525000D01*
X12240000Y20525000D01*
X12240000Y19774000D01*
X12218326Y19721674D01*
X12166000Y19700000D01*
X12065000Y19700000D01*
X12065000Y19599000D01*
X12043326Y19546674D01*
X11991000Y19525000D01*
X11265000Y19525000D01*
X11265000Y19412312D01*
X11279799Y19299896D01*
X11337737Y19160021D01*
X11361733Y19128749D01*
X11376392Y19074041D01*
X11348074Y19024992D01*
X11303025Y19009700D01*
X10937402Y19009700D01*
X10885076Y19031374D01*
X10452954Y19463495D01*
X10452952Y19463498D01*
X10336929Y19579521D01*
X10250118Y19629640D01*
X10250116Y19629641D01*
X10200002Y19658576D01*
X10199995Y19658579D01*
X10047273Y19699501D01*
X10047271Y19699501D01*
X9889157Y19699501D01*
X9884627Y19699501D01*
X9884611Y19699500D01*
X8185152Y19699500D01*
X8132826Y19721174D01*
X8124000Y19730000D01*
X7796018Y19730000D01*
X7770159Y19734666D01*
X7731483Y19749091D01*
X7671873Y19755500D01*
X6876126Y19755500D01*
X6821363Y19749612D01*
X6816517Y19749091D01*
X6816516Y19749091D01*
X6816512Y19749090D01*
X6777841Y19734666D01*
X6751981Y19730000D01*
X6731411Y19730000D01*
X6679085Y19751674D01*
X6659933Y19784847D01*
X6651282Y19817131D01*
X6651281Y19817135D01*
X6575515Y19948365D01*
X6568750Y19955130D01*
X6567399Y19956639D01*
X6558646Y19981578D01*
X6556115Y19987689D01*
X11265000Y19987689D01*
X11265000Y19875000D01*
X11890000Y19875000D01*
X11890000Y20525000D01*
X11802312Y20525000D01*
X11689895Y20510201D01*
X11550020Y20452263D01*
X11429905Y20360095D01*
X11337737Y20239980D01*
X11279799Y20100105D01*
X11265000Y19987689D01*
X6556115Y19987689D01*
X6548531Y20006000D01*
X6549367Y20008020D01*
X6548644Y20010081D01*
X6560089Y20033905D01*
X6570205Y20058326D01*
X6572223Y20059163D01*
X6573170Y20061132D01*
X6598108Y20069885D01*
X6622531Y20080000D01*
X8124000Y20080000D01*
X8124000Y20102829D01*
X8117597Y20162376D01*
X8117596Y20162381D01*
X8067354Y20297088D01*
X8067353Y20297089D01*
X7981188Y20412189D01*
X7901775Y20471638D01*
X7872875Y20520347D01*
X7884594Y20571991D01*
X7918259Y20622374D01*
X7982334Y20777064D01*
X7982336Y20777070D01*
X7996842Y20850000D01*
X7410375Y20850000D01*
X7444556Y20909204D01*
X7465000Y20985504D01*
X7465000Y21064496D01*
X7444556Y21140796D01*
X7410375Y21200000D01*
X7996843Y21200000D01*
X7996842Y21200001D01*
X7982336Y21272931D01*
X7982334Y21272937D01*
X7918259Y21427627D01*
X7825238Y21566844D01*
X7706843Y21685239D01*
X7567626Y21778260D01*
X7412936Y21842335D01*
X7412930Y21842337D01*
X7248716Y21875000D01*
X6790000Y21875000D01*
X6790000Y21325000D01*
X6440000Y21325000D01*
X6440000Y21875000D01*
X5981284Y21875000D01*
X5817069Y21842337D01*
X5817059Y21842334D01*
X5695972Y21792178D01*
X5639335Y21792178D01*
X5599287Y21832227D01*
X5599287Y21888864D01*
X5615325Y21912868D01*
X5700285Y21997828D01*
X5752611Y22019501D01*
X5901444Y22019501D01*
X5901444Y22019502D01*
X5959262Y22025716D01*
X6090068Y22074505D01*
X6186072Y22146373D01*
X6240949Y22160379D01*
X6274765Y22146372D01*
X6370174Y22074949D01*
X6370175Y22074948D01*
X6500841Y22026213D01*
X6500847Y22026211D01*
X6558613Y22020001D01*
X6564999Y22020002D01*
X6565000Y22020002D01*
X6565000Y22023000D01*
X6915000Y22023000D01*
X6949282Y22023000D01*
X6979156Y22026212D01*
X7109824Y22074948D01*
X7109825Y22074949D01*
X7221472Y22158528D01*
X7305051Y22270175D01*
X7305052Y22270176D01*
X7353787Y22400842D01*
X7353788Y22400847D01*
X7360000Y22458615D01*
X7360000Y22515000D01*
X6915000Y22515000D01*
X6915000Y22023000D01*
X6565000Y22023000D01*
X6565000Y22865000D01*
X6915000Y22865000D01*
X7359999Y22865000D01*
X7359999Y22921386D01*
X7353788Y22979157D01*
X7305052Y23109825D01*
X7305051Y23109826D01*
X7221472Y23221473D01*
X7109825Y23305052D01*
X7109824Y23305053D01*
X6979158Y23353788D01*
X6979153Y23353789D01*
X6921386Y23360000D01*
X6915000Y23360000D01*
X6915000Y22865000D01*
X6565000Y22865000D01*
X6565000Y23360000D01*
X6564999Y23360001D01*
X6558619Y23360000D01*
X6558610Y23359999D01*
X6500843Y23353789D01*
X6370175Y23305053D01*
X6370170Y23305050D01*
X6274763Y23233629D01*
X6219885Y23219622D01*
X6186071Y23233629D01*
X6105802Y23293717D01*
X6090067Y23305496D01*
X6090068Y23305496D01*
X5959263Y23354284D01*
X5959260Y23354285D01*
X5901444Y23360500D01*
X5538556Y23360500D01*
X5538555Y23360499D01*
X5480737Y23354284D01*
X5349932Y23305496D01*
X5238169Y23221831D01*
X5154504Y23110068D01*
X5105716Y22979264D01*
X5105715Y22979261D01*
X5099500Y22921445D01*
X5099500Y22772612D01*
X5077826Y22720286D01*
X4258036Y21900495D01*
X4169504Y21811964D01*
X4106904Y21703536D01*
X4074500Y21582604D01*
X3479478Y21582604D01*
X3376843Y21685239D01*
X3237626Y21778260D01*
X3082936Y21842335D01*
X3082930Y21842337D01*
X2918716Y21875000D01*
X2610000Y21875000D01*
X2610000Y21325000D01*
X2260000Y21325000D01*
X2260000Y21875000D01*
X1951284Y21875000D01*
X1787069Y21842337D01*
X1787063Y21842335D01*
X1632373Y21778260D01*
X1493156Y21685239D01*
X1493155Y21685237D01*
X1374763Y21566845D01*
X1374761Y21566844D01*
X1281740Y21427627D01*
X1217665Y21272937D01*
X1217663Y21272931D01*
X1203157Y21200001D01*
X250500Y21200001D01*
X250500Y25486612D01*
X8299500Y25486612D01*
X8299500Y25313389D01*
X8326597Y25142302D01*
X8326600Y25142289D01*
X8380125Y24977558D01*
X8380127Y24977554D01*
X8458767Y24823213D01*
X8516054Y24744364D01*
X8560586Y24683072D01*
X8683072Y24560586D01*
X8683075Y24560584D01*
X8683076Y24560583D01*
X8823212Y24458768D01*
X8977553Y24380128D01*
X8977557Y24380126D01*
X9142288Y24326601D01*
X9142294Y24326600D01*
X9142299Y24326598D01*
X9256359Y24308533D01*
X9313388Y24299500D01*
X9313389Y24299500D01*
X9486612Y24299500D01*
X9529383Y24306275D01*
X9657701Y24326598D01*
X9657708Y24326601D01*
X9657711Y24326601D01*
X9822442Y24380126D01*
X9822442Y24380127D01*
X9822445Y24380127D01*
X9976788Y24458768D01*
X10116928Y24560586D01*
X10239414Y24683072D01*
X10341232Y24823212D01*
X10419873Y24977555D01*
X10437560Y25031990D01*
X10473399Y25142289D01*
X10473399Y25142292D01*
X10473402Y25142299D01*
X10500500Y25313389D01*
X10500500Y25486611D01*
X10500500Y25486612D01*
X45099500Y25486612D01*
X45099500Y25313389D01*
X45126597Y25142302D01*
X45126600Y25142289D01*
X45180125Y24977558D01*
X45180127Y24977554D01*
X45258767Y24823213D01*
X45316054Y24744364D01*
X45360586Y24683072D01*
X45483072Y24560586D01*
X45483075Y24560584D01*
X45483076Y24560583D01*
X45623212Y24458768D01*
X45777553Y24380128D01*
X45777557Y24380126D01*
X45942288Y24326601D01*
X45942294Y24326600D01*
X45942299Y24326598D01*
X46056359Y24308533D01*
X46113388Y24299500D01*
X46113389Y24299500D01*
X46286612Y24299500D01*
X46329383Y24306275D01*
X46457701Y24326598D01*
X46457708Y24326601D01*
X46457711Y24326601D01*
X46622442Y24380126D01*
X46622442Y24380127D01*
X46622445Y24380127D01*
X46776788Y24458768D01*
X46916928Y24560586D01*
X47039414Y24683072D01*
X47141232Y24823212D01*
X47219873Y24977555D01*
X47237560Y25031990D01*
X47273399Y25142289D01*
X47273399Y25142292D01*
X47273402Y25142299D01*
X47300500Y25313389D01*
X47300500Y25486611D01*
X47273402Y25657701D01*
X47273400Y25657706D01*
X47273399Y25657712D01*
X47219874Y25822443D01*
X47219872Y25822447D01*
X47141232Y25976788D01*
X47039417Y26116924D01*
X47039416Y26116925D01*
X47039414Y26116928D01*
X46916928Y26239414D01*
X46916925Y26239417D01*
X46916923Y26239418D01*
X46776787Y26341233D01*
X46622446Y26419873D01*
X46622442Y26419875D01*
X46457711Y26473400D01*
X46457698Y26473403D01*
X46286612Y26500500D01*
X46286611Y26500500D01*
X46113389Y26500500D01*
X46113388Y26500500D01*
X45942301Y26473403D01*
X45942288Y26473400D01*
X45777557Y26419875D01*
X45777553Y26419873D01*
X45623212Y26341233D01*
X45483076Y26239418D01*
X45360582Y26116924D01*
X45258767Y25976788D01*
X45180127Y25822447D01*
X45180125Y25822443D01*
X45126600Y25657712D01*
X45126597Y25657699D01*
X45099500Y25486612D01*
X10500500Y25486612D01*
X10473402Y25657701D01*
X10473400Y25657706D01*
X10473399Y25657712D01*
X10419874Y25822443D01*
X10419872Y25822447D01*
X10341232Y25976788D01*
X10239417Y26116924D01*
X10239416Y26116925D01*
X10239414Y26116928D01*
X10116928Y26239414D01*
X10116925Y26239417D01*
X10116923Y26239418D01*
X9976787Y26341233D01*
X9822446Y26419873D01*
X9822442Y26419875D01*
X9657711Y26473400D01*
X9657698Y26473403D01*
X9486612Y26500500D01*
X9486611Y26500500D01*
X9313389Y26500500D01*
X9313388Y26500500D01*
X9142301Y26473403D01*
X9142288Y26473400D01*
X8977557Y26419875D01*
X8977553Y26419873D01*
X8823212Y26341233D01*
X8683076Y26239418D01*
X8560582Y26116924D01*
X8458767Y25976788D01*
X8380127Y25822447D01*
X8380125Y25822443D01*
X8326600Y25657712D01*
X8326597Y25657699D01*
X8299500Y25486612D01*
X250500Y25486612D01*
X250500Y25647917D01*
X250616Y25652066D01*
X267241Y25948107D01*
X268171Y25956353D01*
X295453Y26116924D01*
X317487Y26246608D01*
X319326Y26254668D01*
X400841Y26537611D01*
X403571Y26545414D01*
X516246Y26817436D01*
X519840Y26824898D01*
X662268Y27082603D01*
X666665Y27089601D01*
X837044Y27329727D01*
X842202Y27336196D01*
X1038408Y27555751D01*
X1044249Y27561592D01*
X1263804Y27757798D01*
X1270273Y27762956D01*
X1510399Y27933335D01*
X1517397Y27937732D01*
X1775102Y28080160D01*
X1782564Y28083754D01*
X2054586Y28196429D01*
X2062389Y28199159D01*
X2345332Y28280674D01*
X2353392Y28282513D01*
X2643655Y28331830D01*
X2651885Y28332759D01*
X2947934Y28349385D01*
X2952083Y28349500D01*
X2997595Y28349500D01*
X50402405Y28349500D01*
X50447917Y28349500D01*
X50452065Y28349385D01*
G37*
%TD.AperFunction*%
%TD*%
%TA.AperFunction,Conductor*%
%TO.N,+3.3V*%
G36*
X29894905Y11875386D02*
G01*
X29946282Y11853718D01*
X30175000Y11625000D01*
X30307389Y11625000D01*
X30321824Y11623579D01*
X30392599Y11609500D01*
X31134847Y11609501D01*
X31187173Y11587827D01*
X31208826Y11566174D01*
X31230500Y11513848D01*
X31230500Y11365254D01*
X31242133Y11306768D01*
X31271608Y11262657D01*
X31286448Y11240448D01*
X31330560Y11210973D01*
X31352767Y11196134D01*
X31352768Y11196134D01*
X31352769Y11196133D01*
X31411252Y11184500D01*
X31576000Y11184500D01*
X31628326Y11162826D01*
X31650000Y11110500D01*
X31650000Y10280652D01*
X31628326Y10228326D01*
X31596674Y10196674D01*
X31544348Y10175000D01*
X30825000Y10175000D01*
X30725000Y10075000D01*
X30725000Y9405652D01*
X30703326Y9353326D01*
X30596674Y9246674D01*
X30544348Y9225000D01*
X28530652Y9225000D01*
X28478326Y9246674D01*
X28346674Y9378326D01*
X28325000Y9430652D01*
X28325000Y10750000D01*
X28200000Y10875000D01*
X27980652Y10875000D01*
X27928326Y10896674D01*
X27846674Y10978326D01*
X27825000Y11030652D01*
X27825000Y11719348D01*
X27846674Y11771674D01*
X27902826Y11827826D01*
X27955152Y11849500D01*
X28059309Y11849500D01*
X28149673Y11873714D01*
X28173887Y11880201D01*
X28190557Y11889827D01*
X28196005Y11891915D01*
X28203883Y11891707D01*
X28223446Y11896815D01*
X29894905Y11875386D01*
G37*
%TD.AperFunction*%
%TD*%
%TA.AperFunction,Conductor*%
%TO.N,+3.3V*%
G36*
X19746674Y25053326D02*
G01*
X20003326Y24796674D01*
X20025000Y24744348D01*
X20025000Y22855653D01*
X20003326Y22803327D01*
X19802177Y22602179D01*
X19749851Y22580505D01*
X19726984Y22584127D01*
X19722023Y22585739D01*
X19628823Y22600500D01*
X19221176Y22600500D01*
X19127977Y22585740D01*
X19127975Y22585739D01*
X19029349Y22535485D01*
X18995508Y22527419D01*
X15229403Y22539903D01*
X15178681Y22560253D01*
X14923031Y22803121D01*
X14900024Y22854872D01*
X14900000Y22856769D01*
X14900000Y24744348D01*
X14921674Y24796674D01*
X15178326Y25053326D01*
X15230652Y25075000D01*
X19694348Y25075000D01*
X19746674Y25053326D01*
G37*
%TD.AperFunction*%
%TD*%
%TA.AperFunction,Conductor*%
%TO.N,/SMPSFB*%
G36*
X35621674Y22678326D02*
G01*
X35828326Y22471674D01*
X35850000Y22419348D01*
X35850000Y21330652D01*
X35828326Y21278326D01*
X35671674Y21121674D01*
X35619348Y21100000D01*
X35150000Y21100000D01*
X34900000Y20850000D01*
X34900000Y19580652D01*
X34878326Y19528326D01*
X34700000Y19350000D01*
X34700000Y18780652D01*
X34678326Y18728326D01*
X34200000Y18250000D01*
X34194367Y18236401D01*
X34193553Y18236738D01*
X34178326Y18199975D01*
X34158150Y18179800D01*
X34111500Y18079759D01*
X34105500Y18034178D01*
X34105501Y17309500D01*
X34083827Y17257174D01*
X34031501Y17235500D01*
X33930500Y17235500D01*
X33878174Y17257174D01*
X33856500Y17309500D01*
X33856500Y17677893D01*
X33856499Y17677907D01*
X33856499Y18034178D01*
X33850499Y18079759D01*
X33850499Y18079760D01*
X33803850Y18179799D01*
X33756614Y18227035D01*
X33734950Y18278220D01*
X33700481Y20518685D01*
X33721347Y20571336D01*
X33722079Y20572080D01*
X34450000Y21300000D01*
X34450000Y22369348D01*
X34471674Y22421674D01*
X34728326Y22678326D01*
X34780652Y22700000D01*
X35569348Y22700000D01*
X35621674Y22678326D01*
G37*
%TD.AperFunction*%
%TD*%
M02*
