%TF.GenerationSoftware,KiCad,Pcbnew,9.0.6*%
%TF.CreationDate,2026-04-21T21:21:04+02:00*%
%TF.ProjectId,STM32WB_PCB2,53544d33-3257-4425-9f50-4342322e6b69,rev?*%
%TF.SameCoordinates,PX371f540PY6f01f80*%
%TF.FileFunction,Copper,L3,Inr*%
%TF.FilePolarity,Positive*%
%FSLAX46Y46*%
G04 Gerber Fmt 4.6, Leading zero omitted, Abs format (unit mm)*
G04 Created by KiCad (PCBNEW 9.0.6) date 2026-04-21 21:21:04*
%MOMM*%
%LPD*%
G01*
G04 APERTURE LIST*
%TA.AperFunction,ComponentPad*%
%ADD10C,0.700000*%
%TD*%
%TA.AperFunction,ComponentPad*%
%ADD11C,4.400000*%
%TD*%
%TA.AperFunction,HeatsinkPad*%
%ADD12O,2.100000X1.000000*%
%TD*%
%TA.AperFunction,HeatsinkPad*%
%ADD13O,1.800000X1.000000*%
%TD*%
%TA.AperFunction,ComponentPad*%
%ADD14R,1.700000X1.700000*%
%TD*%
%TA.AperFunction,ViaPad*%
%ADD15C,0.650000*%
%TD*%
%TA.AperFunction,ViaPad*%
%ADD16C,0.700000*%
%TD*%
%TA.AperFunction,ViaPad*%
%ADD17C,0.900000*%
%TD*%
G04 APERTURE END LIST*
D10*
%TO.N,GND*%
%TO.C,H2*%
X48800000Y25650000D03*
X49283274Y26816726D03*
X49283274Y24483274D03*
X50450000Y27300000D03*
D11*
X50450000Y25650000D03*
D10*
X50450000Y24000000D03*
X51616726Y26816726D03*
X51616726Y24483274D03*
X52100000Y25650000D03*
%TD*%
%TO.N,GND*%
%TO.C,H4*%
X1300000Y2900000D03*
X1783274Y4066726D03*
X1783274Y1733274D03*
X2950000Y4550000D03*
D11*
X2950000Y2900000D03*
D10*
X2950000Y1250000D03*
X4116726Y4066726D03*
X4116726Y1733274D03*
X4600000Y2900000D03*
%TD*%
D12*
%TO.N,GND*%
%TO.C,J1*%
X6615000Y21025000D03*
D13*
X2435000Y21025000D03*
D12*
X6615000Y12385000D03*
D13*
X2435000Y12385000D03*
%TD*%
D10*
%TO.N,GND*%
%TO.C,H1*%
X1300000Y25650000D03*
X1783274Y26816726D03*
X1783274Y24483274D03*
X2950000Y27300000D03*
D11*
X2950000Y25650000D03*
D10*
X2950000Y24000000D03*
X4116726Y26816726D03*
X4116726Y24483274D03*
X4600000Y25650000D03*
%TD*%
D14*
%TO.N,GND*%
%TO.C,J3*%
X42410000Y3200000D03*
%TD*%
D10*
%TO.N,GND*%
%TO.C,H3*%
X48800000Y2900000D03*
X49283274Y4066726D03*
X49283274Y1733274D03*
X50450000Y4550000D03*
D11*
X50450000Y2900000D03*
D10*
X50450000Y1250000D03*
X51616726Y4066726D03*
X51616726Y1733274D03*
X52100000Y2900000D03*
%TD*%
D15*
%TO.N,/BOOT*%
X28000000Y7800000D03*
%TO.N,/SWD_NRST*%
X34200000Y9600000D03*
D16*
%TO.N,+3.3V*%
X27250000Y14375000D03*
%TO.N,GND*%
X39500000Y12800000D03*
D17*
X50200000Y11150000D03*
X48700000Y11150000D03*
X17950000Y18400000D03*
X16450000Y1400000D03*
X17200000Y6900000D03*
X19200000Y8650000D03*
X24200000Y5900000D03*
X26200000Y8150000D03*
X6200000Y25400000D03*
X16100000Y19700000D03*
X52200000Y13400000D03*
X52200000Y15400000D03*
X52200000Y17400000D03*
X52200000Y19400000D03*
X52200000Y11400000D03*
X42200000Y12400000D03*
X46200000Y19400000D03*
X44200000Y19400000D03*
X42200000Y19400000D03*
X44200000Y21400000D03*
X46200000Y21400000D03*
X52200000Y21400000D03*
X50200000Y21400000D03*
X48200000Y21400000D03*
X48200000Y23400000D03*
X46200000Y23400000D03*
X44200000Y23400000D03*
X42200000Y23400000D03*
X40200000Y23400000D03*
X38200000Y23400000D03*
X42200000Y5400000D03*
X34200000Y1400000D03*
X36200000Y1400000D03*
X38200000Y1400000D03*
X40200000Y1400000D03*
X42200000Y1400000D03*
X44200000Y1400000D03*
X44200000Y5400000D03*
X48200000Y5400000D03*
X46200000Y5400000D03*
X50200000Y7400000D03*
X52200000Y7400000D03*
X52200000Y9400000D03*
X50200000Y9400000D03*
X48200000Y9400000D03*
X48200000Y7400000D03*
X46200000Y7400000D03*
X46200000Y9400000D03*
X46200000Y11400000D03*
X44200000Y7400000D03*
X44200000Y9400000D03*
X44200000Y11400000D03*
X30200000Y4900000D03*
X36200000Y6400000D03*
X34200000Y6400000D03*
X28200000Y5400000D03*
X28200000Y3400000D03*
X26200000Y3400000D03*
X24200000Y3400000D03*
X22200000Y3400000D03*
X30200000Y1400000D03*
X28200000Y1400000D03*
X26200000Y1400000D03*
X24200000Y1400000D03*
X22200000Y1400000D03*
X20200000Y1400000D03*
X18200000Y1400000D03*
X12200000Y7400000D03*
X12200000Y5400000D03*
X12200000Y3400000D03*
X12200000Y1400000D03*
X8200000Y1400000D03*
X6200000Y1400000D03*
X6200000Y3400000D03*
X6200000Y5400000D03*
X6200000Y7400000D03*
X4200000Y7400000D03*
X2200000Y7400000D03*
X2200000Y9400000D03*
X4200000Y9400000D03*
X6200000Y9400000D03*
X8200000Y9400000D03*
X14200000Y10400000D03*
X12200000Y10400000D03*
X10200000Y10400000D03*
X10200000Y12400000D03*
X12200000Y12400000D03*
X14200000Y12400000D03*
X16200000Y12400000D03*
X16200000Y14400000D03*
X14200000Y14400000D03*
X9700000Y20900000D03*
X9700000Y22900000D03*
X28200000Y19400000D03*
X26200000Y19400000D03*
X24200000Y19400000D03*
X22200000Y19400000D03*
X26200000Y21400000D03*
X24200000Y21400000D03*
X22200000Y21400000D03*
X28200000Y23400000D03*
X26200000Y23400000D03*
X24200000Y23400000D03*
X22200000Y23400000D03*
X19200000Y25900000D03*
X17200000Y25900000D03*
X15200000Y25900000D03*
X22200000Y25400000D03*
X24200000Y25400000D03*
X26200000Y25400000D03*
X28200000Y25400000D03*
X30200000Y25400000D03*
X32200000Y25400000D03*
X34200000Y25400000D03*
X36200000Y25400000D03*
X38200000Y25400000D03*
X40200000Y25400000D03*
X42200000Y25400000D03*
X44200000Y25400000D03*
X46200000Y27400000D03*
X44200000Y27400000D03*
X42200000Y27400000D03*
X40200000Y27400000D03*
X38200000Y27400000D03*
X36200000Y27400000D03*
X34200000Y27400000D03*
X32200000Y27400000D03*
X30200000Y27400000D03*
X28200000Y27400000D03*
X26200000Y27400000D03*
X24200000Y27400000D03*
X22200000Y27400000D03*
X20200000Y27400000D03*
X18200000Y27400000D03*
X16200000Y27400000D03*
X14200000Y27400000D03*
X12200000Y27400000D03*
X10200000Y27400000D03*
X8200000Y27400000D03*
X6200000Y27400000D03*
D16*
X29855000Y19625000D03*
X29850000Y18625000D03*
X34475000Y8480000D03*
X21925000Y5600000D03*
X27500000Y12300000D03*
X41650000Y21100000D03*
X38300000Y19650000D03*
X35400000Y19000000D03*
X36400000Y19000000D03*
X10950000Y20150000D03*
X18350000Y20450000D03*
X21700000Y8000000D03*
X43750000Y13610000D03*
X9550000Y16700000D03*
X40285000Y16350000D03*
X49450000Y12515000D03*
X45600000Y16600000D03*
X28800000Y21600000D03*
X41290000Y6797000D03*
X19450000Y2575000D03*
X48250000Y18415000D03*
X12350000Y22300000D03*
X10450000Y1950000D03*
X29425000Y8480000D03*
X50600000Y18415000D03*
X45600000Y14300000D03*
X18350000Y2555000D03*
X25880000Y15200000D03*
X41300000Y13610000D03*
X7565000Y10690000D03*
X49450000Y18415000D03*
X28800000Y20700000D03*
X7595000Y22690000D03*
X17400000Y20450000D03*
X8350000Y13500000D03*
X27400000Y9050000D03*
X9450000Y1950000D03*
X10950000Y19250000D03*
X19425000Y19012000D03*
X36200000Y8515000D03*
X48250000Y12515000D03*
X8350000Y19900000D03*
X50600000Y12515000D03*
X30505000Y3200000D03*
X29450000Y13250000D03*
%TD*%
%TA.AperFunction,Conductor*%
%TO.N,GND*%
G36*
X50452065Y28349385D02*
G01*
X50748112Y28332759D01*
X50756346Y28331830D01*
X51046603Y28282514D01*
X51054671Y28280673D01*
X51337605Y28199161D01*
X51345418Y28196427D01*
X51617428Y28083756D01*
X51624904Y28080156D01*
X51882594Y27937737D01*
X51889608Y27933329D01*
X52129716Y27762963D01*
X52136203Y27757791D01*
X52355741Y27561600D01*
X52361604Y27555737D01*
X52557789Y27336205D01*
X52562962Y27329717D01*
X52733324Y27089615D01*
X52737740Y27082588D01*
X52880155Y26824905D01*
X52883755Y26817429D01*
X52996422Y26545429D01*
X52999163Y26537596D01*
X53080669Y26254683D01*
X53082515Y26246592D01*
X53131828Y25956353D01*
X53132758Y25948107D01*
X53149384Y25652066D01*
X53149500Y25647917D01*
X53149500Y2902084D01*
X53149384Y2897935D01*
X53132758Y2601894D01*
X53131828Y2593648D01*
X53082515Y2303409D01*
X53080669Y2295318D01*
X52999163Y2012405D01*
X52996422Y2004572D01*
X52883755Y1732572D01*
X52880155Y1725096D01*
X52737740Y1467413D01*
X52733324Y1460386D01*
X52562962Y1220284D01*
X52557789Y1213796D01*
X52361604Y994264D01*
X52355736Y988396D01*
X52136204Y792211D01*
X52129716Y787038D01*
X51889614Y616676D01*
X51882587Y612260D01*
X51624904Y469845D01*
X51617428Y466245D01*
X51345428Y353578D01*
X51337595Y350837D01*
X51054682Y269331D01*
X51046591Y267485D01*
X50756352Y218172D01*
X50748106Y217242D01*
X50452066Y200616D01*
X50447917Y200500D01*
X2952083Y200500D01*
X2947934Y200616D01*
X2651893Y217242D01*
X2643647Y218172D01*
X2353408Y267485D01*
X2345317Y269331D01*
X2062404Y350837D01*
X2054571Y353578D01*
X1782571Y466245D01*
X1775095Y469845D01*
X1517412Y612260D01*
X1510385Y616676D01*
X1270283Y787038D01*
X1263795Y792211D01*
X1232612Y820078D01*
X1044258Y988401D01*
X1038400Y994259D01*
X842209Y1213797D01*
X837037Y1220284D01*
X666675Y1460386D01*
X662263Y1467406D01*
X519844Y1725096D01*
X516244Y1732572D01*
X498208Y1776114D01*
X403576Y2004576D01*
X401918Y2009312D01*
X13749500Y2009312D01*
X13749500Y1890689D01*
X13780199Y1776118D01*
X13780201Y1776113D01*
X13839508Y1673391D01*
X13839509Y1673390D01*
X13839511Y1673387D01*
X13923387Y1589511D01*
X14026114Y1530201D01*
X14026115Y1530201D01*
X14026117Y1530200D01*
X14083402Y1514851D01*
X14140688Y1499501D01*
X14140689Y1499500D01*
X14140691Y1499500D01*
X14259311Y1499500D01*
X14259311Y1499501D01*
X14373886Y1530201D01*
X14476613Y1589511D01*
X14560489Y1673387D01*
X14619799Y1776114D01*
X14628522Y1808667D01*
X14663000Y1853600D01*
X14719153Y1860992D01*
X14764086Y1826514D01*
X14771478Y1808667D01*
X14780199Y1776118D01*
X14780201Y1776113D01*
X14839508Y1673391D01*
X14839509Y1673390D01*
X14839511Y1673387D01*
X14923387Y1589511D01*
X15026114Y1530201D01*
X15026115Y1530201D01*
X15026117Y1530200D01*
X15083402Y1514851D01*
X15140688Y1499501D01*
X15140689Y1499500D01*
X15140691Y1499500D01*
X15259311Y1499500D01*
X15259311Y1499501D01*
X15373886Y1530201D01*
X15476613Y1589511D01*
X15560489Y1673387D01*
X15619799Y1776114D01*
X15650499Y1890689D01*
X15650500Y1890689D01*
X15650500Y2009311D01*
X15650499Y2009312D01*
X15619800Y2123883D01*
X15619798Y2123888D01*
X15560491Y2226610D01*
X15560490Y2226611D01*
X15560489Y2226613D01*
X15476613Y2310489D01*
X15476610Y2310491D01*
X15476609Y2310492D01*
X15392051Y2359312D01*
X31899500Y2359312D01*
X31899500Y2240689D01*
X31930199Y2126118D01*
X31930201Y2126113D01*
X31989508Y2023391D01*
X31989509Y2023390D01*
X31989511Y2023387D01*
X32073387Y1939511D01*
X32176114Y1880201D01*
X32176115Y1880201D01*
X32176117Y1880200D01*
X32233402Y1864851D01*
X32290688Y1849501D01*
X32290689Y1849500D01*
X32290691Y1849500D01*
X32409311Y1849500D01*
X32409311Y1849501D01*
X32523886Y1880201D01*
X32626613Y1939511D01*
X32710489Y2023387D01*
X32769799Y2126114D01*
X32800499Y2240689D01*
X32800500Y2240689D01*
X32800500Y2359311D01*
X32800499Y2359312D01*
X32797688Y2369801D01*
X32769799Y2473886D01*
X32710489Y2576613D01*
X32626613Y2660489D01*
X32626610Y2660491D01*
X32626609Y2660492D01*
X32523887Y2719799D01*
X32523882Y2719801D01*
X32409311Y2750500D01*
X32409309Y2750500D01*
X32290691Y2750500D01*
X32290689Y2750500D01*
X32176117Y2719801D01*
X32176112Y2719799D01*
X32073390Y2660492D01*
X31989508Y2576610D01*
X31930201Y2473888D01*
X31930199Y2473883D01*
X31899500Y2359312D01*
X15392051Y2359312D01*
X15373887Y2369799D01*
X15373882Y2369801D01*
X15259311Y2400500D01*
X15259309Y2400500D01*
X15140691Y2400500D01*
X15140689Y2400500D01*
X15026117Y2369801D01*
X15026112Y2369799D01*
X14923390Y2310492D01*
X14839508Y2226610D01*
X14780201Y2123888D01*
X14780199Y2123883D01*
X14771478Y2091334D01*
X14736999Y2046401D01*
X14680847Y2039009D01*
X14635914Y2073488D01*
X14628522Y2091334D01*
X14619800Y2123883D01*
X14619798Y2123888D01*
X14560491Y2226610D01*
X14560490Y2226611D01*
X14560489Y2226613D01*
X14476613Y2310489D01*
X14476610Y2310491D01*
X14476609Y2310492D01*
X14373887Y2369799D01*
X14373882Y2369801D01*
X14259311Y2400500D01*
X14259309Y2400500D01*
X14140691Y2400500D01*
X14140689Y2400500D01*
X14026117Y2369801D01*
X14026112Y2369799D01*
X13923390Y2310492D01*
X13839508Y2226610D01*
X13780201Y2123888D01*
X13780199Y2123883D01*
X13749500Y2009312D01*
X401918Y2009312D01*
X400839Y2012395D01*
X319327Y2295329D01*
X317486Y2303397D01*
X268170Y2593654D01*
X267241Y2601894D01*
X263950Y2660489D01*
X250616Y2897935D01*
X250500Y2902084D01*
X250500Y3278841D01*
X33989500Y3278841D01*
X33989500Y3121160D01*
X34020261Y2966509D01*
X34020264Y2966499D01*
X34080603Y2820826D01*
X34080605Y2820823D01*
X34080606Y2820821D01*
X34124997Y2754385D01*
X34143276Y2727028D01*
X34168211Y2689711D01*
X34279711Y2578211D01*
X34410821Y2490606D01*
X34410826Y2490604D01*
X34410825Y2490604D01*
X34451194Y2473883D01*
X34556503Y2430263D01*
X34711158Y2399500D01*
X34711160Y2399500D01*
X34868840Y2399500D01*
X34868842Y2399500D01*
X35023497Y2430263D01*
X35169179Y2490606D01*
X35300289Y2578211D01*
X35411789Y2689711D01*
X35499394Y2820821D01*
X35559737Y2966503D01*
X35590500Y3121158D01*
X35590500Y3278841D01*
X36529500Y3278841D01*
X36529500Y3121160D01*
X36560261Y2966509D01*
X36560264Y2966499D01*
X36620603Y2820826D01*
X36620605Y2820823D01*
X36620606Y2820821D01*
X36664997Y2754385D01*
X36683276Y2727028D01*
X36708211Y2689711D01*
X36819711Y2578211D01*
X36950821Y2490606D01*
X36950826Y2490604D01*
X36950825Y2490604D01*
X36991194Y2473883D01*
X37096503Y2430263D01*
X37251158Y2399500D01*
X37251160Y2399500D01*
X37408840Y2399500D01*
X37408842Y2399500D01*
X37563497Y2430263D01*
X37709179Y2490606D01*
X37840289Y2578211D01*
X37951789Y2689711D01*
X38039394Y2820821D01*
X38099737Y2966503D01*
X38130500Y3121158D01*
X38130500Y3278841D01*
X39069500Y3278841D01*
X39069500Y3121160D01*
X39100261Y2966509D01*
X39100264Y2966499D01*
X39160603Y2820826D01*
X39160605Y2820823D01*
X39160606Y2820821D01*
X39204997Y2754385D01*
X39223276Y2727028D01*
X39248211Y2689711D01*
X39359711Y2578211D01*
X39490821Y2490606D01*
X39490826Y2490604D01*
X39490825Y2490604D01*
X39531194Y2473883D01*
X39636503Y2430263D01*
X39791158Y2399500D01*
X39791160Y2399500D01*
X39948840Y2399500D01*
X39948842Y2399500D01*
X40103497Y2430263D01*
X40249179Y2490606D01*
X40380289Y2578211D01*
X40491789Y2689711D01*
X40579394Y2820821D01*
X40639737Y2966503D01*
X40670500Y3121158D01*
X40670500Y3278842D01*
X40639737Y3433497D01*
X40639735Y3433502D01*
X40579396Y3579175D01*
X40579395Y3579177D01*
X40579394Y3579179D01*
X40491789Y3710289D01*
X40380289Y3821789D01*
X40249179Y3909394D01*
X40249175Y3909396D01*
X40249173Y3909397D01*
X40249174Y3909397D01*
X40103501Y3969736D01*
X40103491Y3969739D01*
X39999925Y3990339D01*
X39948842Y4000500D01*
X39791158Y4000500D01*
X39747315Y3991780D01*
X39636508Y3969739D01*
X39636498Y3969736D01*
X39490825Y3909397D01*
X39359711Y3821790D01*
X39359710Y3821788D01*
X39248212Y3710290D01*
X39248210Y3710289D01*
X39160603Y3579175D01*
X39100264Y3433502D01*
X39100261Y3433492D01*
X39069500Y3278841D01*
X38130500Y3278841D01*
X38130500Y3278842D01*
X38099737Y3433497D01*
X38099735Y3433502D01*
X38039396Y3579175D01*
X38039395Y3579177D01*
X38039394Y3579179D01*
X37951789Y3710289D01*
X37840289Y3821789D01*
X37709179Y3909394D01*
X37709175Y3909396D01*
X37709173Y3909397D01*
X37709174Y3909397D01*
X37563501Y3969736D01*
X37563491Y3969739D01*
X37459925Y3990339D01*
X37408842Y4000500D01*
X37251158Y4000500D01*
X37207315Y3991780D01*
X37096508Y3969739D01*
X37096498Y3969736D01*
X36950825Y3909397D01*
X36819711Y3821790D01*
X36819710Y3821788D01*
X36708212Y3710290D01*
X36708210Y3710289D01*
X36620603Y3579175D01*
X36560264Y3433502D01*
X36560261Y3433492D01*
X36529500Y3278841D01*
X35590500Y3278841D01*
X35590500Y3278842D01*
X35559737Y3433497D01*
X35559735Y3433502D01*
X35499396Y3579175D01*
X35499395Y3579177D01*
X35499394Y3579179D01*
X35411789Y3710289D01*
X35300289Y3821789D01*
X35169179Y3909394D01*
X35169175Y3909396D01*
X35169173Y3909397D01*
X35169174Y3909397D01*
X35023501Y3969736D01*
X35023491Y3969739D01*
X34919925Y3990339D01*
X34868842Y4000500D01*
X34711158Y4000500D01*
X34667315Y3991780D01*
X34556508Y3969739D01*
X34556498Y3969736D01*
X34410825Y3909397D01*
X34279711Y3821790D01*
X34279710Y3821788D01*
X34168212Y3710290D01*
X34168210Y3710289D01*
X34080603Y3579175D01*
X34020264Y3433502D01*
X34020261Y3433492D01*
X33989500Y3278841D01*
X250500Y3278841D01*
X250500Y4081482D01*
X41160000Y4081482D01*
X41160000Y3325000D01*
X41925856Y3325000D01*
X41910000Y3265826D01*
X41910000Y3134174D01*
X41925856Y3075000D01*
X41160001Y3075000D01*
X41160001Y2318518D01*
X41174834Y2224852D01*
X41174835Y2224851D01*
X41232360Y2111954D01*
X41321953Y2022361D01*
X41434850Y1964836D01*
X41528518Y1950001D01*
X42285000Y1950001D01*
X42285000Y2715856D01*
X42344174Y2700000D01*
X42475826Y2700000D01*
X42535000Y2715856D01*
X42535000Y1950001D01*
X43291481Y1950001D01*
X43385148Y1964835D01*
X43385149Y1964836D01*
X43498046Y2022361D01*
X43587639Y2111954D01*
X43645164Y2224851D01*
X43645164Y2224852D01*
X43660000Y2318519D01*
X43660000Y3075000D01*
X42894144Y3075000D01*
X42910000Y3134174D01*
X42910000Y3265826D01*
X42894144Y3325000D01*
X43659999Y3325000D01*
X43659999Y4081483D01*
X43645165Y4175149D01*
X43645164Y4175150D01*
X43587639Y4288047D01*
X43498046Y4377640D01*
X43385149Y4435165D01*
X43291482Y4450000D01*
X42535000Y4450000D01*
X42535000Y3684145D01*
X42475826Y3700000D01*
X42344174Y3700000D01*
X42285000Y3684145D01*
X42285000Y4450000D01*
X41528518Y4450000D01*
X41434851Y4435166D01*
X41434850Y4435165D01*
X41321953Y4377640D01*
X41232360Y4288047D01*
X41174835Y4175150D01*
X41174835Y4175149D01*
X41160000Y4081482D01*
X250500Y4081482D01*
X250500Y7159312D01*
X21974500Y7159312D01*
X21974500Y7040689D01*
X22005199Y6926118D01*
X22005201Y6926113D01*
X22064508Y6823391D01*
X22064509Y6823390D01*
X22064511Y6823387D01*
X22148387Y6739511D01*
X22251114Y6680201D01*
X22251115Y6680201D01*
X22251117Y6680200D01*
X22308402Y6664851D01*
X22365688Y6649501D01*
X22365689Y6649500D01*
X22365691Y6649500D01*
X22484311Y6649500D01*
X22484311Y6649501D01*
X22598886Y6680201D01*
X22701613Y6739511D01*
X22785489Y6823387D01*
X22844799Y6926114D01*
X22875499Y7040689D01*
X22875500Y7040689D01*
X22875500Y7159311D01*
X22875499Y7159312D01*
X22871429Y7174500D01*
X22860149Y7216598D01*
X22844800Y7273883D01*
X22844798Y7273888D01*
X22785491Y7376610D01*
X22785490Y7376611D01*
X22785489Y7376613D01*
X22701613Y7460489D01*
X22701610Y7460491D01*
X22701609Y7460492D01*
X22598887Y7519799D01*
X22598882Y7519801D01*
X22484311Y7550500D01*
X22484309Y7550500D01*
X22365691Y7550500D01*
X22365689Y7550500D01*
X22251117Y7519801D01*
X22251112Y7519799D01*
X22148390Y7460492D01*
X22064508Y7376610D01*
X22005201Y7273888D01*
X22005199Y7273883D01*
X21974500Y7159312D01*
X250500Y7159312D01*
X250500Y7861606D01*
X27374500Y7861606D01*
X27374500Y7738395D01*
X27398535Y7617555D01*
X27398537Y7617548D01*
X27445688Y7503715D01*
X27465209Y7474500D01*
X27514142Y7401267D01*
X27601267Y7314142D01*
X27703714Y7245689D01*
X27817548Y7198537D01*
X27938394Y7174500D01*
X28061606Y7174500D01*
X28182452Y7198537D01*
X28296286Y7245689D01*
X28398733Y7314142D01*
X28485858Y7401267D01*
X28554311Y7503714D01*
X28601463Y7617548D01*
X28625500Y7738394D01*
X28625500Y7861606D01*
X28624687Y7865691D01*
X28603001Y7974723D01*
X28602306Y7978212D01*
X28601463Y7982452D01*
X28600693Y7984312D01*
X34924500Y7984312D01*
X34924500Y7865689D01*
X34955199Y7751118D01*
X34955201Y7751113D01*
X35014508Y7648391D01*
X35014509Y7648390D01*
X35014511Y7648387D01*
X35098387Y7564511D01*
X35098389Y7564510D01*
X35098390Y7564509D01*
X35201112Y7505202D01*
X35201114Y7505201D01*
X35201115Y7505201D01*
X35201117Y7505200D01*
X35258402Y7489851D01*
X35315688Y7474501D01*
X35315689Y7474500D01*
X35315691Y7474500D01*
X35434311Y7474500D01*
X35434311Y7474501D01*
X35548886Y7505201D01*
X35651613Y7564511D01*
X35735489Y7648387D01*
X35794799Y7751114D01*
X35825499Y7865689D01*
X35825500Y7865689D01*
X35825500Y7984311D01*
X35825499Y7984312D01*
X35794800Y8098883D01*
X35794798Y8098888D01*
X35735491Y8201610D01*
X35735490Y8201611D01*
X35735489Y8201613D01*
X35651613Y8285489D01*
X35651610Y8285491D01*
X35651609Y8285492D01*
X35548887Y8344799D01*
X35548882Y8344801D01*
X35434311Y8375500D01*
X35434309Y8375500D01*
X35315691Y8375500D01*
X35315689Y8375500D01*
X35201117Y8344801D01*
X35201112Y8344799D01*
X35098390Y8285492D01*
X35014508Y8201610D01*
X34955201Y8098888D01*
X34955199Y8098883D01*
X34924500Y7984312D01*
X28600693Y7984312D01*
X28554311Y8096286D01*
X28485858Y8198733D01*
X28398733Y8285858D01*
X28296286Y8354311D01*
X28296287Y8354311D01*
X28296285Y8354312D01*
X28182452Y8401463D01*
X28182445Y8401465D01*
X28061606Y8425500D01*
X27938394Y8425500D01*
X27817554Y8401465D01*
X27817547Y8401463D01*
X27703714Y8354312D01*
X27601270Y8285861D01*
X27514139Y8198730D01*
X27445688Y8096286D01*
X27398537Y7982453D01*
X27398535Y7982446D01*
X27374500Y7861606D01*
X250500Y7861606D01*
X250500Y8863455D01*
X19948200Y8863455D01*
X19948200Y8716546D01*
X19976858Y8572465D01*
X19976861Y8572454D01*
X20033078Y8436734D01*
X20033079Y8436732D01*
X20033080Y8436731D01*
X20114699Y8314580D01*
X20218580Y8210699D01*
X20340731Y8129080D01*
X20340732Y8129080D01*
X20340733Y8129079D01*
X20476453Y8072862D01*
X20476458Y8072860D01*
X20620545Y8044200D01*
X20767455Y8044200D01*
X20911542Y8072860D01*
X21047269Y8129080D01*
X21169420Y8210699D01*
X21273301Y8314580D01*
X21354920Y8436731D01*
X21411140Y8572458D01*
X21439800Y8716545D01*
X21439800Y8863455D01*
X21980200Y8863455D01*
X21980200Y8716546D01*
X22008858Y8572465D01*
X22008861Y8572454D01*
X22065078Y8436734D01*
X22065079Y8436732D01*
X22065080Y8436731D01*
X22146699Y8314580D01*
X22250580Y8210699D01*
X22372731Y8129080D01*
X22372732Y8129080D01*
X22372733Y8129079D01*
X22508453Y8072862D01*
X22508458Y8072860D01*
X22652545Y8044200D01*
X22799455Y8044200D01*
X22943542Y8072860D01*
X23079269Y8129080D01*
X23201420Y8210699D01*
X23305301Y8314580D01*
X23386920Y8436731D01*
X23443140Y8572458D01*
X23471800Y8716545D01*
X23471800Y8863455D01*
X23443140Y9007542D01*
X23386920Y9143269D01*
X23305301Y9265420D01*
X23201420Y9369301D01*
X23079269Y9450920D01*
X23079268Y9450921D01*
X23079266Y9450922D01*
X22943546Y9507139D01*
X22943535Y9507142D01*
X22799455Y9535800D01*
X22652545Y9535800D01*
X22508464Y9507142D01*
X22508453Y9507139D01*
X22372733Y9450922D01*
X22250583Y9369304D01*
X22146696Y9265417D01*
X22065078Y9143267D01*
X22008861Y9007547D01*
X22008858Y9007536D01*
X21980200Y8863455D01*
X21439800Y8863455D01*
X21411140Y9007542D01*
X21354920Y9143269D01*
X21273301Y9265420D01*
X21169420Y9369301D01*
X21047269Y9450920D01*
X21047268Y9450921D01*
X21047266Y9450922D01*
X20911546Y9507139D01*
X20911535Y9507142D01*
X20767455Y9535800D01*
X20620545Y9535800D01*
X20476464Y9507142D01*
X20476453Y9507139D01*
X20340733Y9450922D01*
X20218583Y9369304D01*
X20114696Y9265417D01*
X20033078Y9143267D01*
X19976861Y9007547D01*
X19976858Y9007536D01*
X19948200Y8863455D01*
X250500Y8863455D01*
X250500Y10808170D01*
X17732050Y10808170D01*
X17732050Y10581831D01*
X17767458Y10358280D01*
X17767460Y10358269D01*
X17837397Y10143025D01*
X17837399Y10143020D01*
X17837400Y10143019D01*
X17839577Y10138746D01*
X17940154Y9941350D01*
X18073189Y9758244D01*
X18073193Y9758239D01*
X18233239Y9598193D01*
X18233242Y9598191D01*
X18233243Y9598190D01*
X18416349Y9465155D01*
X18509771Y9417555D01*
X18618019Y9362400D01*
X18618021Y9362400D01*
X18618024Y9362398D01*
X18833268Y9292461D01*
X18833272Y9292461D01*
X18833279Y9292458D01*
X19026263Y9261892D01*
X19056830Y9257050D01*
X19056831Y9257050D01*
X19283170Y9257050D01*
X19310059Y9261310D01*
X19506721Y9292458D01*
X19506729Y9292461D01*
X19506731Y9292461D01*
X19721975Y9362398D01*
X19721975Y9362399D01*
X19721981Y9362400D01*
X19923650Y9465155D01*
X20106761Y9598193D01*
X20266807Y9758239D01*
X20399845Y9941350D01*
X20502600Y10143019D01*
X20562091Y10326114D01*
X20572539Y10358269D01*
X20572539Y10358271D01*
X20572542Y10358279D01*
X20607950Y10581831D01*
X20607950Y10808169D01*
X20607950Y10808170D01*
X22812050Y10808170D01*
X22812050Y10581831D01*
X22847458Y10358280D01*
X22847460Y10358269D01*
X22917397Y10143025D01*
X22917399Y10143020D01*
X22917400Y10143019D01*
X22919577Y10138746D01*
X23020154Y9941350D01*
X23153189Y9758244D01*
X23153193Y9758239D01*
X23313239Y9598193D01*
X23313242Y9598191D01*
X23313243Y9598190D01*
X23496349Y9465155D01*
X23589771Y9417555D01*
X23698019Y9362400D01*
X23698021Y9362400D01*
X23698024Y9362398D01*
X23913268Y9292461D01*
X23913272Y9292461D01*
X23913279Y9292458D01*
X24106263Y9261892D01*
X24136830Y9257050D01*
X24136831Y9257050D01*
X24363170Y9257050D01*
X24390059Y9261310D01*
X24586721Y9292458D01*
X24586729Y9292461D01*
X24586731Y9292461D01*
X24801975Y9362398D01*
X24801975Y9362399D01*
X24801981Y9362400D01*
X25003650Y9465155D01*
X25186761Y9598193D01*
X25346807Y9758239D01*
X25479845Y9941350D01*
X25582600Y10143019D01*
X25642091Y10326114D01*
X25652539Y10358269D01*
X25652539Y10358271D01*
X25652542Y10358279D01*
X25684383Y10559311D01*
X25684383Y10559312D01*
X29649500Y10559312D01*
X29649500Y10440689D01*
X29680199Y10326118D01*
X29680201Y10326113D01*
X29739508Y10223391D01*
X29739509Y10223390D01*
X29739511Y10223387D01*
X29823387Y10139511D01*
X29823389Y10139510D01*
X29823390Y10139509D01*
X29824124Y10139085D01*
X29824384Y10138746D01*
X29827241Y10136553D01*
X29826653Y10135788D01*
X29858601Y10094150D01*
X29851207Y10037998D01*
X29826986Y10013778D01*
X29827241Y10013447D01*
X29824724Y10011516D01*
X29824124Y10010915D01*
X29823390Y10010492D01*
X29739508Y9926610D01*
X29680201Y9823888D01*
X29680199Y9823883D01*
X29649500Y9709312D01*
X29649500Y9590689D01*
X29680199Y9476118D01*
X29680201Y9476113D01*
X29739508Y9373391D01*
X29739509Y9373390D01*
X29739511Y9373387D01*
X29823387Y9289511D01*
X29823389Y9289510D01*
X29823390Y9289509D01*
X29882811Y9255202D01*
X29926114Y9230201D01*
X29926115Y9230201D01*
X29926117Y9230200D01*
X29947390Y9224500D01*
X30040688Y9199501D01*
X30040689Y9199500D01*
X30040691Y9199500D01*
X30159311Y9199500D01*
X30159311Y9199501D01*
X30273886Y9230201D01*
X30376613Y9289511D01*
X30460489Y9373387D01*
X30519799Y9476114D01*
X30550499Y9590689D01*
X30550500Y9590689D01*
X30550500Y9709310D01*
X30547634Y9720005D01*
X30547634Y9720006D01*
X30543801Y9734312D01*
X32799500Y9734312D01*
X32799500Y9615689D01*
X32830199Y9501118D01*
X32830201Y9501113D01*
X32889508Y9398391D01*
X32889509Y9398390D01*
X32889511Y9398387D01*
X32973387Y9314511D01*
X32973389Y9314510D01*
X32973390Y9314509D01*
X33072911Y9257050D01*
X33076114Y9255201D01*
X33076115Y9255201D01*
X33076117Y9255200D01*
X33133402Y9239851D01*
X33190688Y9224501D01*
X33190689Y9224500D01*
X33190691Y9224500D01*
X33309311Y9224500D01*
X33309311Y9224501D01*
X33423886Y9255201D01*
X33526613Y9314511D01*
X33529906Y9317805D01*
X33582229Y9339482D01*
X33634557Y9317812D01*
X33643764Y9306595D01*
X33645688Y9303715D01*
X33645689Y9303714D01*
X33714142Y9201267D01*
X33801267Y9114142D01*
X33903714Y9045689D01*
X34017548Y8998537D01*
X34138394Y8974500D01*
X34261606Y8974500D01*
X34382452Y8998537D01*
X34496286Y9045689D01*
X34598733Y9114142D01*
X34685858Y9201267D01*
X34754311Y9303714D01*
X34801463Y9417548D01*
X34825500Y9538394D01*
X34825500Y9661606D01*
X34801463Y9782452D01*
X34754311Y9896286D01*
X34685858Y9998733D01*
X34598733Y10085858D01*
X34598729Y10085861D01*
X34496285Y10154312D01*
X34382452Y10201463D01*
X34382445Y10201465D01*
X34261606Y10225500D01*
X34138394Y10225500D01*
X34017554Y10201465D01*
X34017547Y10201463D01*
X33903714Y10154312D01*
X33801270Y10085861D01*
X33714140Y9998731D01*
X33703845Y9983323D01*
X33656752Y9951858D01*
X33601203Y9962909D01*
X33589991Y9972111D01*
X33563369Y9998733D01*
X33526613Y10035489D01*
X33526610Y10035491D01*
X33526609Y10035492D01*
X33423887Y10094799D01*
X33423882Y10094801D01*
X33309311Y10125500D01*
X33309309Y10125500D01*
X33190691Y10125500D01*
X33190689Y10125500D01*
X33076117Y10094801D01*
X33076112Y10094799D01*
X32973390Y10035492D01*
X32889508Y9951610D01*
X32830201Y9848888D01*
X32830199Y9848883D01*
X32799500Y9734312D01*
X30543801Y9734312D01*
X30519800Y9823883D01*
X30519798Y9823888D01*
X30460491Y9926610D01*
X30460490Y9926611D01*
X30460489Y9926613D01*
X30376613Y10010489D01*
X30376610Y10010491D01*
X30376609Y10010492D01*
X30375881Y10010912D01*
X30375621Y10011250D01*
X30372759Y10013447D01*
X30373347Y10014214D01*
X30341400Y10055843D01*
X30348789Y10111996D01*
X30373013Y10136221D01*
X30372759Y10136553D01*
X30375283Y10138491D01*
X30375881Y10139088D01*
X30376280Y10139319D01*
X30376613Y10139511D01*
X30460489Y10223387D01*
X30519799Y10326114D01*
X30550499Y10440689D01*
X30550500Y10440689D01*
X30550500Y10559311D01*
X30550499Y10559312D01*
X30519800Y10673883D01*
X30519798Y10673888D01*
X30460491Y10776610D01*
X30460490Y10776611D01*
X30460489Y10776613D01*
X30376613Y10860489D01*
X30376610Y10860491D01*
X30376609Y10860492D01*
X30273887Y10919799D01*
X30273882Y10919801D01*
X30159311Y10950500D01*
X30159309Y10950500D01*
X30040691Y10950500D01*
X30040689Y10950500D01*
X29926117Y10919801D01*
X29926112Y10919799D01*
X29823390Y10860492D01*
X29739508Y10776610D01*
X29680201Y10673888D01*
X29680199Y10673883D01*
X29649500Y10559312D01*
X25684383Y10559312D01*
X25686985Y10575736D01*
X25686985Y10575738D01*
X25687949Y10581827D01*
X25687950Y10581828D01*
X25687950Y10808170D01*
X25670269Y10919799D01*
X25652542Y11031721D01*
X25652539Y11031728D01*
X25652539Y11031732D01*
X25582602Y11246976D01*
X25582600Y11246979D01*
X25582600Y11246981D01*
X25529372Y11351448D01*
X25479845Y11448651D01*
X25346810Y11631757D01*
X25346809Y11631758D01*
X25346807Y11631761D01*
X25186761Y11791807D01*
X25186758Y11791810D01*
X25186756Y11791811D01*
X25003650Y11924846D01*
X24801975Y12027603D01*
X24586731Y12097540D01*
X24586722Y12097542D01*
X24586721Y12097542D01*
X24429298Y12122476D01*
X24363170Y12132950D01*
X24363169Y12132950D01*
X24136831Y12132950D01*
X24136830Y12132950D01*
X23913279Y12097542D01*
X23913268Y12097540D01*
X23698024Y12027603D01*
X23496349Y11924846D01*
X23313243Y11791811D01*
X23153189Y11631757D01*
X23020154Y11448651D01*
X22917397Y11246976D01*
X22847460Y11031732D01*
X22847458Y11031721D01*
X22812050Y10808170D01*
X20607950Y10808170D01*
X20572542Y11031721D01*
X20572539Y11031728D01*
X20572539Y11031732D01*
X20502602Y11246976D01*
X20502600Y11246979D01*
X20502600Y11246981D01*
X20449372Y11351448D01*
X20399845Y11448651D01*
X20266810Y11631757D01*
X20266809Y11631758D01*
X20266807Y11631761D01*
X20106761Y11791807D01*
X20106758Y11791810D01*
X20106756Y11791811D01*
X19923650Y11924846D01*
X19721975Y12027603D01*
X19506731Y12097540D01*
X19506722Y12097542D01*
X19506721Y12097542D01*
X19349298Y12122476D01*
X19283170Y12132950D01*
X19283169Y12132950D01*
X19056831Y12132950D01*
X19056830Y12132950D01*
X18833279Y12097542D01*
X18833268Y12097540D01*
X18618024Y12027603D01*
X18416349Y11924846D01*
X18233243Y11791811D01*
X18073189Y11631757D01*
X17940154Y11448651D01*
X17837397Y11246976D01*
X17767460Y11031732D01*
X17767458Y11031721D01*
X17732050Y10808170D01*
X250500Y10808170D01*
X250500Y12510001D01*
X1142231Y12510001D01*
X1142232Y12510000D01*
X1760758Y12510000D01*
X1755444Y12500796D01*
X1735000Y12424496D01*
X1735000Y12345504D01*
X1755444Y12269204D01*
X1760758Y12260000D01*
X1142231Y12260000D01*
X1169584Y12122487D01*
X1169587Y12122476D01*
X1237427Y11958695D01*
X1335923Y11811284D01*
X1461283Y11685924D01*
X1608695Y11587428D01*
X1608694Y11587428D01*
X1772475Y11519588D01*
X1772486Y11519585D01*
X1946359Y11485000D01*
X2310000Y11485000D01*
X2310000Y12085000D01*
X2560000Y12085000D01*
X2560000Y11485000D01*
X2923641Y11485000D01*
X3097513Y11519585D01*
X3097524Y11519588D01*
X3261305Y11587428D01*
X3408716Y11685924D01*
X3408718Y11685925D01*
X3534075Y11811282D01*
X3534076Y11811284D01*
X3632572Y11958695D01*
X3700412Y12122476D01*
X3700415Y12122487D01*
X3727768Y12260000D01*
X3109242Y12260000D01*
X3114556Y12269204D01*
X3135000Y12345504D01*
X3135000Y12424496D01*
X3114556Y12500796D01*
X3109242Y12510000D01*
X3727768Y12510000D01*
X3727768Y12510001D01*
X5172231Y12510001D01*
X5172232Y12510000D01*
X5790758Y12510000D01*
X5785444Y12500796D01*
X5765000Y12424496D01*
X5765000Y12345504D01*
X5785444Y12269204D01*
X5790758Y12260000D01*
X5172231Y12260000D01*
X5199584Y12122487D01*
X5199587Y12122476D01*
X5267427Y11958695D01*
X5365923Y11811284D01*
X5491283Y11685924D01*
X5638695Y11587428D01*
X5638694Y11587428D01*
X5802475Y11519588D01*
X5802486Y11519585D01*
X5976359Y11485000D01*
X6490000Y11485000D01*
X6490000Y12085000D01*
X6740000Y12085000D01*
X6740000Y11485000D01*
X7253641Y11485000D01*
X7427513Y11519585D01*
X7427524Y11519588D01*
X7591305Y11587428D01*
X7738716Y11685924D01*
X7738718Y11685925D01*
X7864075Y11811282D01*
X7864076Y11811284D01*
X7962572Y11958695D01*
X8030412Y12122476D01*
X8030415Y12122487D01*
X8057768Y12260000D01*
X7439242Y12260000D01*
X7444556Y12269204D01*
X7465000Y12345504D01*
X7465000Y12424496D01*
X7444556Y12500796D01*
X7439242Y12510000D01*
X8057768Y12510000D01*
X8057768Y12510001D01*
X8030415Y12647514D01*
X8030412Y12647525D01*
X7962572Y12811306D01*
X7864076Y12958717D01*
X7738716Y13084077D01*
X7591304Y13182573D01*
X7591305Y13182573D01*
X7427524Y13250413D01*
X7427513Y13250416D01*
X7253641Y13285000D01*
X6740000Y13285000D01*
X6740000Y12685000D01*
X6490000Y12685000D01*
X6490000Y13294568D01*
X6475091Y13330561D01*
X6496763Y13382884D01*
X6575515Y13461635D01*
X6651281Y13592865D01*
X6690499Y13739232D01*
X6690500Y13739232D01*
X6690500Y13890768D01*
X6690499Y13890769D01*
X6676382Y13943455D01*
X6665741Y13983169D01*
X17732050Y13983169D01*
X17732050Y13756831D01*
X17758019Y13592870D01*
X17767458Y13533280D01*
X17767460Y13533269D01*
X17837397Y13318025D01*
X17940154Y13116350D01*
X18041682Y12976610D01*
X18073193Y12933239D01*
X18233239Y12773193D01*
X18233242Y12773191D01*
X18233243Y12773190D01*
X18416349Y12640155D01*
X18513552Y12590628D01*
X18618019Y12537400D01*
X18618021Y12537400D01*
X18618024Y12537398D01*
X18833268Y12467461D01*
X18833272Y12467461D01*
X18833279Y12467458D01*
X19026263Y12436892D01*
X19056830Y12432050D01*
X19056831Y12432050D01*
X19283170Y12432050D01*
X19310059Y12436310D01*
X19506721Y12467458D01*
X19506729Y12467461D01*
X19506731Y12467461D01*
X19721975Y12537398D01*
X19721975Y12537399D01*
X19721981Y12537400D01*
X19923650Y12640155D01*
X20106761Y12773193D01*
X20266807Y12933239D01*
X20399845Y13116350D01*
X20502600Y13318019D01*
X20514142Y13353542D01*
X20572539Y13533269D01*
X20572539Y13533271D01*
X20572542Y13533279D01*
X20607950Y13756831D01*
X20607950Y13943455D01*
X20964200Y13943455D01*
X20964200Y13796546D01*
X20992858Y13652465D01*
X20992861Y13652454D01*
X21049078Y13516734D01*
X21049079Y13516732D01*
X21049080Y13516731D01*
X21130699Y13394580D01*
X21234580Y13290699D01*
X21356731Y13209080D01*
X21356732Y13209080D01*
X21356733Y13209079D01*
X21420727Y13182572D01*
X21492458Y13152860D01*
X21636545Y13124200D01*
X21783455Y13124200D01*
X21927542Y13152860D01*
X22063269Y13209080D01*
X22185420Y13290699D01*
X22289301Y13394580D01*
X22370920Y13516731D01*
X22427140Y13652458D01*
X22455800Y13796545D01*
X22455800Y13943455D01*
X22455800Y13943456D01*
X22450194Y13971642D01*
X22447901Y13983169D01*
X22812050Y13983169D01*
X22812050Y13756831D01*
X22838019Y13592870D01*
X22847458Y13533280D01*
X22847460Y13533269D01*
X22917397Y13318025D01*
X23020154Y13116350D01*
X23121682Y12976610D01*
X23153193Y12933239D01*
X23313239Y12773193D01*
X23313242Y12773191D01*
X23313243Y12773190D01*
X23496349Y12640155D01*
X23593552Y12590628D01*
X23698019Y12537400D01*
X23698021Y12537400D01*
X23698024Y12537398D01*
X23913268Y12467461D01*
X23913272Y12467461D01*
X23913279Y12467458D01*
X24106263Y12436892D01*
X24136830Y12432050D01*
X24136831Y12432050D01*
X24363170Y12432050D01*
X24390059Y12436310D01*
X24586721Y12467458D01*
X24586729Y12467461D01*
X24586731Y12467461D01*
X24801975Y12537398D01*
X24801975Y12537399D01*
X24801981Y12537400D01*
X25003650Y12640155D01*
X25167655Y12759312D01*
X40149500Y12759312D01*
X40149500Y12640689D01*
X40180199Y12526118D01*
X40180201Y12526113D01*
X40239508Y12423391D01*
X40239509Y12423390D01*
X40239511Y12423387D01*
X40323387Y12339511D01*
X40426114Y12280201D01*
X40426115Y12280201D01*
X40426117Y12280200D01*
X40467155Y12269204D01*
X40540688Y12249501D01*
X40540689Y12249500D01*
X40540691Y12249500D01*
X40659311Y12249500D01*
X40659311Y12249501D01*
X40773886Y12280201D01*
X40876613Y12339511D01*
X40960489Y12423387D01*
X41019799Y12526114D01*
X41050499Y12640689D01*
X41050500Y12640689D01*
X41050500Y12759311D01*
X41050499Y12759312D01*
X41046780Y12773190D01*
X41019799Y12873886D01*
X40985531Y12933239D01*
X40960491Y12976610D01*
X40960490Y12976611D01*
X40960489Y12976613D01*
X40876613Y13060489D01*
X40876610Y13060491D01*
X40876609Y13060492D01*
X40773887Y13119799D01*
X40773882Y13119801D01*
X40659311Y13150500D01*
X40659309Y13150500D01*
X40540691Y13150500D01*
X40540689Y13150500D01*
X40426117Y13119801D01*
X40426112Y13119799D01*
X40323390Y13060492D01*
X40239508Y12976610D01*
X40180201Y12873888D01*
X40180199Y12873883D01*
X40149500Y12759312D01*
X25167655Y12759312D01*
X25186761Y12773193D01*
X25346807Y12933239D01*
X25479845Y13116350D01*
X25582600Y13318019D01*
X25594142Y13353542D01*
X25652539Y13533269D01*
X25652539Y13533271D01*
X25652542Y13533279D01*
X25687950Y13756831D01*
X25687950Y13983169D01*
X25652542Y14206721D01*
X25652539Y14206728D01*
X25652539Y14206732D01*
X25583297Y14419837D01*
X25582602Y14421976D01*
X25582600Y14421979D01*
X25582600Y14421981D01*
X25573894Y14439068D01*
X26599500Y14439068D01*
X26599500Y14310933D01*
X26624497Y14185261D01*
X26624498Y14185258D01*
X26664973Y14087542D01*
X26673535Y14066873D01*
X26693408Y14037131D01*
X26740320Y13966921D01*
X26744724Y13960331D01*
X26835331Y13869724D01*
X26941873Y13798535D01*
X27060256Y13749499D01*
X27060258Y13749499D01*
X27060260Y13749498D01*
X27102903Y13741016D01*
X27185931Y13724500D01*
X27185933Y13724500D01*
X27314067Y13724500D01*
X27314069Y13724500D01*
X27439744Y13749499D01*
X27558127Y13798535D01*
X27664669Y13869724D01*
X27755276Y13960331D01*
X27826465Y14066873D01*
X27875501Y14185256D01*
X27900500Y14310931D01*
X27900500Y14439069D01*
X27888380Y14500000D01*
X48435000Y14500000D01*
X50525000Y14500000D01*
X50525000Y16400000D01*
X48435000Y16400000D01*
X48435000Y14500000D01*
X27888380Y14500000D01*
X27886349Y14510208D01*
X27875502Y14564740D01*
X27875501Y14564743D01*
X27866224Y14587139D01*
X27826465Y14683127D01*
X27755276Y14789669D01*
X27664669Y14880276D01*
X27558127Y14951465D01*
X27558124Y14951467D01*
X27558123Y14951467D01*
X27439742Y15000502D01*
X27439739Y15000503D01*
X27349696Y15018414D01*
X27314069Y15025500D01*
X27185931Y15025500D01*
X27154726Y15019293D01*
X27060260Y15000503D01*
X27060257Y15000502D01*
X26941876Y14951467D01*
X26835331Y14880277D01*
X26835330Y14880275D01*
X26744725Y14789670D01*
X26744723Y14789669D01*
X26673533Y14683124D01*
X26624498Y14564743D01*
X26624497Y14564740D01*
X26599500Y14439068D01*
X25573894Y14439068D01*
X25515703Y14553275D01*
X25479845Y14623651D01*
X25346810Y14806757D01*
X25346809Y14806758D01*
X25346807Y14806761D01*
X25186761Y14966807D01*
X25186758Y14966810D01*
X25186756Y14966811D01*
X25003650Y15099846D01*
X24801975Y15202603D01*
X24586731Y15272540D01*
X24586722Y15272542D01*
X24586721Y15272542D01*
X24474945Y15290246D01*
X24363170Y15307950D01*
X24363169Y15307950D01*
X24136831Y15307950D01*
X24136830Y15307950D01*
X23913279Y15272542D01*
X23913268Y15272540D01*
X23698024Y15202603D01*
X23496349Y15099846D01*
X23313243Y14966811D01*
X23153189Y14806757D01*
X23020154Y14623651D01*
X22917397Y14421976D01*
X22847460Y14206732D01*
X22847458Y14206721D01*
X22820598Y14037135D01*
X22812050Y13983169D01*
X22447901Y13983169D01*
X22427141Y14087536D01*
X22427140Y14087542D01*
X22386665Y14185258D01*
X22370921Y14223267D01*
X22312344Y14310933D01*
X22289301Y14345420D01*
X22185420Y14449301D01*
X22178769Y14453745D01*
X22063266Y14530922D01*
X21927546Y14587139D01*
X21927535Y14587142D01*
X21783455Y14615800D01*
X21636545Y14615800D01*
X21492464Y14587142D01*
X21492453Y14587139D01*
X21356733Y14530922D01*
X21234583Y14449304D01*
X21130696Y14345417D01*
X21049078Y14223267D01*
X20992861Y14087547D01*
X20992858Y14087536D01*
X20964200Y13943455D01*
X20607950Y13943455D01*
X20607950Y13983169D01*
X20572542Y14206721D01*
X20572539Y14206728D01*
X20572539Y14206732D01*
X20502601Y14421978D01*
X20502600Y14421979D01*
X20502600Y14421981D01*
X20486414Y14453747D01*
X20481971Y14510208D01*
X20518753Y14553275D01*
X20575216Y14557719D01*
X20589349Y14551427D01*
X20626112Y14530202D01*
X20626114Y14530201D01*
X20626115Y14530201D01*
X20626117Y14530200D01*
X20683402Y14514851D01*
X20740688Y14499501D01*
X20740689Y14499500D01*
X20740691Y14499500D01*
X20859311Y14499500D01*
X20859311Y14499501D01*
X20973886Y14530201D01*
X21076613Y14589511D01*
X21160489Y14673387D01*
X21219799Y14776114D01*
X21250499Y14890689D01*
X21250500Y14890689D01*
X21250500Y15009311D01*
X21250499Y15009312D01*
X21246161Y15025500D01*
X21219799Y15123886D01*
X21174353Y15202600D01*
X21160491Y15226610D01*
X21160490Y15226611D01*
X21160489Y15226613D01*
X21076613Y15310489D01*
X21076610Y15310491D01*
X21076609Y15310492D01*
X20973887Y15369799D01*
X20973882Y15369801D01*
X20859311Y15400500D01*
X20859309Y15400500D01*
X20740691Y15400500D01*
X20740689Y15400500D01*
X20626117Y15369801D01*
X20626112Y15369799D01*
X20523390Y15310492D01*
X20439508Y15226610D01*
X20380201Y15123888D01*
X20380199Y15123883D01*
X20349500Y15009312D01*
X20349500Y14902720D01*
X20327826Y14850394D01*
X20275500Y14828720D01*
X20223174Y14850394D01*
X20106766Y14966802D01*
X20106761Y14966807D01*
X20106758Y14966810D01*
X20106756Y14966811D01*
X19923650Y15099846D01*
X19721975Y15202603D01*
X19506731Y15272540D01*
X19506722Y15272542D01*
X19506721Y15272542D01*
X19394945Y15290246D01*
X19283170Y15307950D01*
X19283169Y15307950D01*
X19056831Y15307950D01*
X19056830Y15307950D01*
X18833279Y15272542D01*
X18833268Y15272540D01*
X18618024Y15202603D01*
X18416349Y15099846D01*
X18233243Y14966811D01*
X18073189Y14806757D01*
X17940154Y14623651D01*
X17837397Y14421976D01*
X17767460Y14206732D01*
X17767458Y14206721D01*
X17740598Y14037135D01*
X17732050Y13983169D01*
X6665741Y13983169D01*
X6651281Y14037135D01*
X6575515Y14168365D01*
X6468365Y14275515D01*
X6407023Y14310931D01*
X6337139Y14351279D01*
X6337130Y14351283D01*
X6190768Y14390500D01*
X6190766Y14390500D01*
X6039234Y14390500D01*
X6039232Y14390500D01*
X5892869Y14351283D01*
X5892860Y14351279D01*
X5761637Y14275517D01*
X5654483Y14168363D01*
X5578721Y14037140D01*
X5578717Y14037131D01*
X5539500Y13890769D01*
X5539500Y13739232D01*
X5578717Y13592870D01*
X5578721Y13592861D01*
X5613121Y13533279D01*
X5654485Y13461635D01*
X5761635Y13354485D01*
X5761637Y13354484D01*
X5761639Y13354482D01*
X5762353Y13353934D01*
X5762579Y13353542D01*
X5765065Y13351056D01*
X5764398Y13350390D01*
X5790669Y13304883D01*
X5776006Y13250177D01*
X5745620Y13226862D01*
X5638693Y13182572D01*
X5491283Y13084077D01*
X5491282Y13084075D01*
X5365925Y12958718D01*
X5365923Y12958717D01*
X5267427Y12811306D01*
X5199587Y12647525D01*
X5199584Y12647514D01*
X5172231Y12510001D01*
X3727768Y12510001D01*
X3700415Y12647514D01*
X3700412Y12647525D01*
X3632572Y12811306D01*
X3534076Y12958717D01*
X3408716Y13084077D01*
X3261304Y13182573D01*
X3261305Y13182573D01*
X3097524Y13250413D01*
X3097513Y13250416D01*
X2923641Y13285000D01*
X2560000Y13285000D01*
X2560000Y12685000D01*
X2310000Y12685000D01*
X2310000Y13285000D01*
X1946359Y13285000D01*
X1772486Y13250416D01*
X1772475Y13250413D01*
X1608694Y13182573D01*
X1461283Y13084077D01*
X1461282Y13084075D01*
X1335925Y12958718D01*
X1335923Y12958717D01*
X1237427Y12811306D01*
X1169587Y12647525D01*
X1169584Y12647514D01*
X1142231Y12510001D01*
X250500Y12510001D01*
X250500Y17409312D01*
X39849500Y17409312D01*
X39849500Y17290689D01*
X39880199Y17176118D01*
X39880201Y17176113D01*
X39939508Y17073391D01*
X39939509Y17073390D01*
X39939511Y17073387D01*
X40023387Y16989511D01*
X40126114Y16930201D01*
X40126115Y16930201D01*
X40126117Y16930200D01*
X40183402Y16914851D01*
X40240688Y16899501D01*
X40240689Y16899500D01*
X40240691Y16899500D01*
X40359311Y16899500D01*
X40359311Y16899501D01*
X40473886Y16930201D01*
X40576613Y16989511D01*
X40660489Y17073387D01*
X40719799Y17176114D01*
X40750499Y17290689D01*
X40750500Y17290689D01*
X40750500Y17409311D01*
X40750499Y17409312D01*
X40719800Y17523883D01*
X40719798Y17523888D01*
X40660491Y17626610D01*
X40660490Y17626611D01*
X40660489Y17626613D01*
X40576613Y17710489D01*
X40576610Y17710491D01*
X40576609Y17710492D01*
X40473887Y17769799D01*
X40473882Y17769801D01*
X40359311Y17800500D01*
X40359309Y17800500D01*
X40240691Y17800500D01*
X40240689Y17800500D01*
X40126117Y17769801D01*
X40126112Y17769799D01*
X40023390Y17710492D01*
X39939508Y17626610D01*
X39880201Y17523888D01*
X39880199Y17523883D01*
X39849500Y17409312D01*
X250500Y17409312D01*
X250500Y21150001D01*
X1142231Y21150001D01*
X1142232Y21150000D01*
X1760758Y21150000D01*
X1755444Y21140796D01*
X1735000Y21064496D01*
X1735000Y20985504D01*
X1755444Y20909204D01*
X1760758Y20900000D01*
X1142231Y20900000D01*
X1169584Y20762487D01*
X1169587Y20762476D01*
X1237427Y20598695D01*
X1335923Y20451284D01*
X1461283Y20325924D01*
X1608695Y20227428D01*
X1608694Y20227428D01*
X1772475Y20159588D01*
X1772486Y20159585D01*
X1946359Y20125000D01*
X2310000Y20125000D01*
X2310000Y20725000D01*
X2560000Y20725000D01*
X2560000Y20125000D01*
X2923641Y20125000D01*
X3097513Y20159585D01*
X3097524Y20159588D01*
X3261305Y20227428D01*
X3408716Y20325924D01*
X3408718Y20325925D01*
X3534075Y20451282D01*
X3534076Y20451284D01*
X3632572Y20598695D01*
X3700412Y20762476D01*
X3700415Y20762487D01*
X3727768Y20900000D01*
X3109242Y20900000D01*
X3114556Y20909204D01*
X3135000Y20985504D01*
X3135000Y21064496D01*
X3114556Y21140796D01*
X3109242Y21150000D01*
X3727768Y21150000D01*
X3727768Y21150001D01*
X5172231Y21150001D01*
X5172232Y21150000D01*
X5790758Y21150000D01*
X5785444Y21140796D01*
X5765000Y21064496D01*
X5765000Y20985504D01*
X5785444Y20909204D01*
X5790758Y20900000D01*
X5172231Y20900000D01*
X5199584Y20762487D01*
X5199587Y20762476D01*
X5267427Y20598695D01*
X5365923Y20451284D01*
X5491283Y20325924D01*
X5638695Y20227428D01*
X5638694Y20227428D01*
X5745619Y20183139D01*
X5785668Y20143091D01*
X5785668Y20086454D01*
X5764781Y20059228D01*
X5765065Y20058944D01*
X5762911Y20056791D01*
X5762361Y20056073D01*
X5761642Y20055522D01*
X5654483Y19948363D01*
X5578721Y19817140D01*
X5578717Y19817131D01*
X5539500Y19670769D01*
X5539500Y19519232D01*
X5578717Y19372870D01*
X5578718Y19372867D01*
X5578719Y19372865D01*
X5654485Y19241635D01*
X5761635Y19134485D01*
X5892865Y19058719D01*
X6039231Y19019501D01*
X6039232Y19019500D01*
X6039234Y19019500D01*
X6190768Y19019500D01*
X6190768Y19019501D01*
X6337135Y19058719D01*
X6468365Y19134485D01*
X6575515Y19241635D01*
X6651281Y19372865D01*
X6690499Y19519232D01*
X6690500Y19519232D01*
X6690500Y19670768D01*
X6690499Y19670769D01*
X6651282Y19817131D01*
X6651281Y19817135D01*
X6575515Y19948365D01*
X6496764Y20027116D01*
X6475091Y20079440D01*
X6490000Y20115434D01*
X6490000Y20725000D01*
X6740000Y20725000D01*
X6740000Y20125000D01*
X7253641Y20125000D01*
X7427513Y20159585D01*
X7427524Y20159588D01*
X7591305Y20227428D01*
X7738716Y20325924D01*
X7738718Y20325925D01*
X7864075Y20451282D01*
X7864076Y20451284D01*
X7962572Y20598695D01*
X8030412Y20762476D01*
X8030415Y20762487D01*
X8057768Y20900000D01*
X7439242Y20900000D01*
X7444556Y20909204D01*
X7465000Y20985504D01*
X7465000Y21064496D01*
X7444556Y21140796D01*
X7439242Y21150000D01*
X8057768Y21150000D01*
X8057768Y21150001D01*
X8030415Y21287514D01*
X8030412Y21287525D01*
X7962572Y21451306D01*
X7864076Y21598717D01*
X7738716Y21724077D01*
X7591304Y21822573D01*
X7591305Y21822573D01*
X7427524Y21890413D01*
X7427513Y21890416D01*
X7253641Y21925000D01*
X6740000Y21925000D01*
X6740000Y21325000D01*
X6490000Y21325000D01*
X6490000Y21925000D01*
X5976359Y21925000D01*
X5802486Y21890416D01*
X5802475Y21890413D01*
X5638694Y21822573D01*
X5491283Y21724077D01*
X5491282Y21724075D01*
X5365925Y21598718D01*
X5365923Y21598717D01*
X5267427Y21451306D01*
X5199587Y21287525D01*
X5199584Y21287514D01*
X5172231Y21150001D01*
X3727768Y21150001D01*
X3700415Y21287514D01*
X3700412Y21287525D01*
X3632572Y21451306D01*
X3534076Y21598717D01*
X3408716Y21724077D01*
X3261304Y21822573D01*
X3261305Y21822573D01*
X3097524Y21890413D01*
X3097513Y21890416D01*
X2923641Y21925000D01*
X2560000Y21925000D01*
X2560000Y21325000D01*
X2310000Y21325000D01*
X2310000Y21925000D01*
X1946359Y21925000D01*
X1772486Y21890416D01*
X1772475Y21890413D01*
X1608694Y21822573D01*
X1461283Y21724077D01*
X1461282Y21724075D01*
X1335925Y21598718D01*
X1335923Y21598717D01*
X1237427Y21451306D01*
X1169587Y21287525D01*
X1169584Y21287514D01*
X1142231Y21150001D01*
X250500Y21150001D01*
X250500Y22409312D01*
X30399500Y22409312D01*
X30399500Y22290689D01*
X30430199Y22176118D01*
X30430201Y22176113D01*
X30489508Y22073391D01*
X30489509Y22073390D01*
X30489511Y22073387D01*
X30573387Y21989511D01*
X30676114Y21930201D01*
X30676115Y21930201D01*
X30676117Y21930200D01*
X30695524Y21925000D01*
X30790688Y21899501D01*
X30790689Y21899500D01*
X30790691Y21899500D01*
X30909311Y21899500D01*
X30909311Y21899501D01*
X31023886Y21930201D01*
X31126613Y21989511D01*
X31210489Y22073387D01*
X31260914Y22160726D01*
X31305847Y22195204D01*
X31362000Y22187811D01*
X31389086Y22160725D01*
X31439508Y22073391D01*
X31439509Y22073390D01*
X31439511Y22073387D01*
X31523387Y21989511D01*
X31626114Y21930201D01*
X31626115Y21930201D01*
X31626117Y21930200D01*
X31645524Y21925000D01*
X31740688Y21899501D01*
X31740689Y21899500D01*
X31740691Y21899500D01*
X31859311Y21899500D01*
X31859311Y21899501D01*
X31973886Y21930201D01*
X32076613Y21989511D01*
X32160489Y22073387D01*
X32219799Y22176114D01*
X32250499Y22290689D01*
X32250500Y22290689D01*
X32250500Y22409311D01*
X32250499Y22409312D01*
X32219800Y22523883D01*
X32219798Y22523888D01*
X32160491Y22626610D01*
X32160490Y22626611D01*
X32160489Y22626613D01*
X32076613Y22710489D01*
X32076610Y22710491D01*
X32076609Y22710492D01*
X31973887Y22769799D01*
X31973882Y22769801D01*
X31859311Y22800500D01*
X31859309Y22800500D01*
X31740691Y22800500D01*
X31740689Y22800500D01*
X31626117Y22769801D01*
X31626112Y22769799D01*
X31523390Y22710492D01*
X31439508Y22626610D01*
X31389086Y22539276D01*
X31344152Y22504797D01*
X31288000Y22512190D01*
X31260914Y22539276D01*
X31210491Y22626610D01*
X31210490Y22626611D01*
X31210489Y22626613D01*
X31126613Y22710489D01*
X31126610Y22710491D01*
X31126609Y22710492D01*
X31023887Y22769799D01*
X31023882Y22769801D01*
X30909311Y22800500D01*
X30909309Y22800500D01*
X30790691Y22800500D01*
X30790689Y22800500D01*
X30676117Y22769801D01*
X30676112Y22769799D01*
X30573390Y22710492D01*
X30489508Y22626610D01*
X30430201Y22523888D01*
X30430199Y22523883D01*
X30399500Y22409312D01*
X250500Y22409312D01*
X250500Y24459312D01*
X16899500Y24459312D01*
X16899500Y24340689D01*
X16930199Y24226118D01*
X16930201Y24226113D01*
X16989508Y24123391D01*
X16989509Y24123390D01*
X16989511Y24123387D01*
X17073387Y24039511D01*
X17176114Y23980201D01*
X17176115Y23980201D01*
X17176117Y23980200D01*
X17233402Y23964851D01*
X17290688Y23949501D01*
X17290689Y23949500D01*
X17290691Y23949500D01*
X17409311Y23949500D01*
X17409311Y23949501D01*
X17523886Y23980201D01*
X17626613Y24039511D01*
X17710489Y24123387D01*
X17769799Y24226114D01*
X17778522Y24258667D01*
X17813000Y24303600D01*
X17869153Y24310992D01*
X17914086Y24276514D01*
X17921478Y24258667D01*
X17930199Y24226118D01*
X17930201Y24226113D01*
X17989508Y24123391D01*
X17989509Y24123390D01*
X17989511Y24123387D01*
X18073387Y24039511D01*
X18176114Y23980201D01*
X18176115Y23980201D01*
X18176117Y23980200D01*
X18233402Y23964851D01*
X18290688Y23949501D01*
X18290689Y23949500D01*
X18290691Y23949500D01*
X18409311Y23949500D01*
X18409311Y23949501D01*
X18523886Y23980201D01*
X18626613Y24039511D01*
X18710489Y24123387D01*
X18769799Y24226114D01*
X18800499Y24340689D01*
X18800500Y24340689D01*
X18800500Y24459311D01*
X18800499Y24459312D01*
X18999500Y24459312D01*
X18999500Y24340689D01*
X19030199Y24226118D01*
X19030201Y24226113D01*
X19089508Y24123391D01*
X19089509Y24123390D01*
X19089511Y24123387D01*
X19173387Y24039511D01*
X19276114Y23980201D01*
X19276115Y23980201D01*
X19276117Y23980200D01*
X19333402Y23964851D01*
X19390688Y23949501D01*
X19390689Y23949500D01*
X19390691Y23949500D01*
X19509311Y23949500D01*
X19509311Y23949501D01*
X19623886Y23980201D01*
X19726613Y24039511D01*
X19810489Y24123387D01*
X19869799Y24226114D01*
X19900499Y24340689D01*
X19900500Y24340689D01*
X19900500Y24459311D01*
X19900499Y24459312D01*
X19869800Y24573883D01*
X19869798Y24573888D01*
X19810491Y24676610D01*
X19810490Y24676611D01*
X19810489Y24676613D01*
X19726613Y24760489D01*
X19726610Y24760491D01*
X19726609Y24760492D01*
X19623887Y24819799D01*
X19623882Y24819801D01*
X19509311Y24850500D01*
X19509309Y24850500D01*
X19390691Y24850500D01*
X19390689Y24850500D01*
X19276117Y24819801D01*
X19276112Y24819799D01*
X19173390Y24760492D01*
X19089508Y24676610D01*
X19030201Y24573888D01*
X19030199Y24573883D01*
X18999500Y24459312D01*
X18800499Y24459312D01*
X18769800Y24573883D01*
X18769798Y24573888D01*
X18710491Y24676610D01*
X18710490Y24676611D01*
X18710489Y24676613D01*
X18626613Y24760489D01*
X18626610Y24760491D01*
X18626609Y24760492D01*
X18523887Y24819799D01*
X18523882Y24819801D01*
X18409311Y24850500D01*
X18409309Y24850500D01*
X18290691Y24850500D01*
X18290689Y24850500D01*
X18176117Y24819801D01*
X18176112Y24819799D01*
X18073390Y24760492D01*
X17989508Y24676610D01*
X17930201Y24573888D01*
X17930199Y24573883D01*
X17921478Y24541334D01*
X17886999Y24496401D01*
X17830847Y24489009D01*
X17785914Y24523488D01*
X17778522Y24541334D01*
X17769800Y24573883D01*
X17769798Y24573888D01*
X17710491Y24676610D01*
X17710490Y24676611D01*
X17710489Y24676613D01*
X17626613Y24760489D01*
X17626610Y24760491D01*
X17626609Y24760492D01*
X17523887Y24819799D01*
X17523882Y24819801D01*
X17409311Y24850500D01*
X17409309Y24850500D01*
X17290691Y24850500D01*
X17290689Y24850500D01*
X17176117Y24819801D01*
X17176112Y24819799D01*
X17073390Y24760492D01*
X16989508Y24676610D01*
X16930201Y24573888D01*
X16930199Y24573883D01*
X16899500Y24459312D01*
X250500Y24459312D01*
X250500Y25647917D01*
X250616Y25652066D01*
X267241Y25948107D01*
X268171Y25956353D01*
X317487Y26246608D01*
X319326Y26254668D01*
X400841Y26537611D01*
X403571Y26545414D01*
X516246Y26817436D01*
X519840Y26824898D01*
X662268Y27082603D01*
X666665Y27089601D01*
X837044Y27329727D01*
X842202Y27336196D01*
X1038408Y27555751D01*
X1044249Y27561592D01*
X1263804Y27757798D01*
X1270273Y27762956D01*
X1510399Y27933335D01*
X1517397Y27937732D01*
X1775102Y28080160D01*
X1782564Y28083754D01*
X2054586Y28196429D01*
X2062389Y28199159D01*
X2345332Y28280674D01*
X2353392Y28282513D01*
X2643655Y28331830D01*
X2651885Y28332759D01*
X2947934Y28349385D01*
X2952083Y28349500D01*
X2997595Y28349500D01*
X50402405Y28349500D01*
X50447917Y28349500D01*
X50452065Y28349385D01*
G37*
%TD.AperFunction*%
%TD*%
M02*
