M48
; DRILL file {KiCad 9.0.6} date 2026-04-21T21:20:42+0200
; FORMAT={-:-/ absolute / metric / decimal}
; #@! TF.CreationDate,2026-04-21T21:20:42+02:00
; #@! TF.GenerationSoftware,Kicad,Pcbnew,9.0.6
; #@! TF.FileFunction,Plated,1,4,PTH
FMAT,2
METRIC
; #@! TA.AperFunction,Plated,PTH,ViaDrill
T1C0.250
; #@! TA.AperFunction,Plated,PTH,ViaDrill
T2C0.300
; #@! TA.AperFunction,Plated,PTH,ViaDrill
T3C0.400
; #@! TA.AperFunction,Plated,PTH,ComponentDrill
T4C0.400
; #@! TA.AperFunction,Plated,PTH,ComponentDrill
T5C0.600
; #@! TA.AperFunction,Plated,PTH,ComponentDrill
T6C1.000
; #@! TA.AperFunction,Plated,PTH,ComponentDrill
T7C2.200
%
G90
G05
T1
X28.0Y7.8
X34.2Y9.6
T2
X7.565Y10.69
X7.595Y22.69
X8.35Y19.9
X8.35Y13.5
X9.45Y1.95
X9.55Y16.7
X10.45Y1.95
X10.95Y20.15
X10.95Y19.25
X12.35Y22.3
X14.2Y1.95
X15.2Y1.95
X17.35Y24.4
X17.4Y20.45
X18.35Y24.4
X18.35Y20.45
X18.35Y2.555
X19.425Y19.012
X19.45Y24.4
X19.45Y2.575
X20.8Y14.95
X21.7Y8.0
X21.925Y5.6
X22.425Y7.1
X25.88Y15.2
X27.25Y14.375
X27.4Y9.05
X27.5Y12.3
X28.8Y21.6
X28.8Y20.7
X29.425Y8.48
X29.45Y13.25
X29.85Y18.625
X29.855Y19.625
X30.1Y10.5
X30.1Y9.65
X30.505Y3.2
X30.85Y22.35
X31.8Y22.35
X32.35Y2.3
X33.25Y9.675
X34.475Y8.48
X35.375Y7.925
X35.4Y19.0
X36.2Y8.515
X36.4Y19.0
X38.3Y19.65
X39.5Y12.8
X40.285Y16.35
X40.3Y17.35
X40.6Y12.7
X41.29Y6.797
X41.3Y13.61
X41.65Y21.1
X43.75Y13.61
X45.6Y16.6
X45.6Y14.3
X48.25Y18.415
X48.25Y12.515
X49.45Y18.415
X49.45Y12.515
X50.6Y18.415
X50.6Y12.515
T3
X2.2Y9.4
X2.2Y7.4
X4.2Y9.4
X4.2Y7.4
X6.2Y27.4
X6.2Y25.4
X6.2Y9.4
X6.2Y7.4
X6.2Y5.4
X6.2Y3.4
X6.2Y1.4
X8.2Y27.4
X8.2Y9.4
X8.2Y1.4
X9.7Y22.9
X9.7Y20.9
X10.2Y27.4
X10.2Y12.4
X10.2Y10.4
X12.2Y27.4
X12.2Y12.4
X12.2Y10.4
X12.2Y7.4
X12.2Y5.4
X12.2Y3.4
X12.2Y1.4
X14.2Y27.4
X14.2Y14.4
X14.2Y12.4
X14.2Y10.4
X15.2Y25.9
X16.1Y19.7
X16.2Y27.4
X16.2Y14.4
X16.2Y12.4
X16.45Y1.4
X17.2Y25.9
X17.2Y6.9
X17.95Y18.4
X18.2Y27.4
X18.2Y1.4
X19.2Y25.9
X19.2Y8.65
X20.2Y27.4
X20.2Y1.4
X22.2Y27.4
X22.2Y25.4
X22.2Y23.4
X22.2Y21.4
X22.2Y19.4
X22.2Y3.4
X22.2Y1.4
X24.2Y27.4
X24.2Y25.4
X24.2Y23.4
X24.2Y21.4
X24.2Y19.4
X24.2Y5.9
X24.2Y3.4
X24.2Y1.4
X26.2Y27.4
X26.2Y25.4
X26.2Y23.4
X26.2Y21.4
X26.2Y19.4
X26.2Y8.15
X26.2Y3.4
X26.2Y1.4
X28.2Y27.4
X28.2Y25.4
X28.2Y23.4
X28.2Y19.4
X28.2Y5.4
X28.2Y3.4
X28.2Y1.4
X30.2Y27.4
X30.2Y25.4
X30.2Y4.9
X30.2Y1.4
X32.2Y27.4
X32.2Y25.4
X34.2Y27.4
X34.2Y25.4
X34.2Y6.4
X34.2Y1.4
X36.2Y27.4
X36.2Y25.4
X36.2Y6.4
X36.2Y1.4
X38.2Y27.4
X38.2Y25.4
X38.2Y23.4
X38.2Y1.4
X40.2Y27.4
X40.2Y25.4
X40.2Y23.4
X40.2Y1.4
X42.2Y27.4
X42.2Y25.4
X42.2Y23.4
X42.2Y19.4
X42.2Y12.4
X42.2Y5.4
X42.2Y1.4
X44.2Y27.4
X44.2Y25.4
X44.2Y23.4
X44.2Y21.4
X44.2Y19.4
X44.2Y11.4
X44.2Y9.4
X44.2Y7.4
X44.2Y5.4
X44.2Y1.4
X46.2Y27.4
X46.2Y23.4
X46.2Y21.4
X46.2Y19.4
X46.2Y11.4
X46.2Y9.4
X46.2Y7.4
X46.2Y5.4
X48.2Y23.4
X48.2Y21.4
X48.2Y9.4
X48.2Y7.4
X48.2Y5.4
X48.7Y11.15
X50.2Y21.4
X50.2Y11.15
X50.2Y9.4
X50.2Y7.4
X52.2Y21.4
X52.2Y19.4
X52.2Y17.4
X52.2Y15.4
X52.2Y13.4
X52.2Y11.4
X52.2Y9.4
X52.2Y7.4
T4
X1.3Y25.65
X1.3Y2.9
X1.783Y26.817
X1.783Y24.483
X1.783Y4.067
X1.783Y1.733
X2.95Y27.3
X2.95Y24.0
X2.95Y4.55
X2.95Y1.25
X4.117Y26.817
X4.117Y24.483
X4.117Y4.067
X4.117Y1.733
X4.6Y25.65
X4.6Y2.9
X48.8Y25.65
X48.8Y2.9
X49.283Y26.817
X49.283Y24.483
X49.283Y4.067
X49.283Y1.733
X50.45Y27.3
X50.45Y24.0
X50.45Y4.55
X50.45Y1.25
X51.617Y26.817
X51.617Y24.483
X51.617Y4.067
X51.617Y1.733
X52.1Y25.65
X52.1Y2.9
T6
X34.79Y3.2
X37.33Y3.2
X39.87Y3.2
X42.41Y3.2
T7
X2.95Y25.65
X2.95Y2.9
X50.45Y25.65
X50.45Y2.9
T5
G00X2.835Y21.025
M15
G01X2.035Y21.025
M16
G05
G00X2.835Y12.385
M15
G01X2.035Y12.385
M16
G05
G00X7.165Y21.025
M15
G01X6.065Y21.025
M16
G05
G00X7.165Y12.385
M15
G01X6.065Y12.385
M16
G05
M30
