%TF.GenerationSoftware,KiCad,Pcbnew,9.0.6*%
%TF.CreationDate,2026-04-21T21:21:04+02:00*%
%TF.ProjectId,STM32WB_PCB2,53544d33-3257-4425-9f50-4342322e6b69,rev?*%
%TF.SameCoordinates,PX371f540PY6f01f80*%
%TF.FileFunction,Copper,L2,Inr*%
%TF.FilePolarity,Positive*%
%FSLAX46Y46*%
G04 Gerber Fmt 4.6, Leading zero omitted, Abs format (unit mm)*
G04 Created by KiCad (PCBNEW 9.0.6) date 2026-04-21 21:21:04*
%MOMM*%
%LPD*%
G01*
G04 APERTURE LIST*
%TA.AperFunction,ComponentPad*%
%ADD10C,0.700000*%
%TD*%
%TA.AperFunction,ComponentPad*%
%ADD11C,4.400000*%
%TD*%
%TA.AperFunction,HeatsinkPad*%
%ADD12O,2.100000X1.000000*%
%TD*%
%TA.AperFunction,HeatsinkPad*%
%ADD13O,1.800000X1.000000*%
%TD*%
%TA.AperFunction,ComponentPad*%
%ADD14R,1.700000X1.700000*%
%TD*%
%TA.AperFunction,ViaPad*%
%ADD15C,0.650000*%
%TD*%
%TA.AperFunction,ViaPad*%
%ADD16C,0.700000*%
%TD*%
%TA.AperFunction,ViaPad*%
%ADD17C,0.900000*%
%TD*%
G04 APERTURE END LIST*
D10*
%TO.N,GND*%
%TO.C,H2*%
X48800000Y25650000D03*
X49283274Y26816726D03*
X49283274Y24483274D03*
X50450000Y27300000D03*
D11*
X50450000Y25650000D03*
D10*
X50450000Y24000000D03*
X51616726Y26816726D03*
X51616726Y24483274D03*
X52100000Y25650000D03*
%TD*%
%TO.N,GND*%
%TO.C,H4*%
X1300000Y2900000D03*
X1783274Y4066726D03*
X1783274Y1733274D03*
X2950000Y4550000D03*
D11*
X2950000Y2900000D03*
D10*
X2950000Y1250000D03*
X4116726Y4066726D03*
X4116726Y1733274D03*
X4600000Y2900000D03*
%TD*%
D12*
%TO.N,GND*%
%TO.C,J1*%
X6615000Y21025000D03*
D13*
X2435000Y21025000D03*
D12*
X6615000Y12385000D03*
D13*
X2435000Y12385000D03*
%TD*%
D10*
%TO.N,GND*%
%TO.C,H1*%
X1300000Y25650000D03*
X1783274Y26816726D03*
X1783274Y24483274D03*
X2950000Y27300000D03*
D11*
X2950000Y25650000D03*
D10*
X2950000Y24000000D03*
X4116726Y26816726D03*
X4116726Y24483274D03*
X4600000Y25650000D03*
%TD*%
D14*
%TO.N,GND*%
%TO.C,J3*%
X42410000Y3200000D03*
%TD*%
D10*
%TO.N,GND*%
%TO.C,H3*%
X48800000Y2900000D03*
X49283274Y4066726D03*
X49283274Y1733274D03*
X50450000Y4550000D03*
D11*
X50450000Y2900000D03*
D10*
X50450000Y1250000D03*
X51616726Y4066726D03*
X51616726Y1733274D03*
X52100000Y2900000D03*
%TD*%
D15*
%TO.N,/BOOT*%
X28000000Y7800000D03*
%TO.N,/SWD_NRST*%
X34200000Y9600000D03*
D16*
%TO.N,+3.3V*%
X27250000Y14375000D03*
%TO.N,GND*%
X39500000Y12800000D03*
D17*
X50200000Y11150000D03*
X48700000Y11150000D03*
X17950000Y18400000D03*
X16450000Y1400000D03*
X17200000Y6900000D03*
X19200000Y8650000D03*
X24200000Y5900000D03*
X26200000Y8150000D03*
X6200000Y25400000D03*
X16100000Y19700000D03*
X52200000Y13400000D03*
X52200000Y15400000D03*
X52200000Y17400000D03*
X52200000Y19400000D03*
X52200000Y11400000D03*
X42200000Y12400000D03*
X46200000Y19400000D03*
X44200000Y19400000D03*
X42200000Y19400000D03*
X44200000Y21400000D03*
X46200000Y21400000D03*
X52200000Y21400000D03*
X50200000Y21400000D03*
X48200000Y21400000D03*
X48200000Y23400000D03*
X46200000Y23400000D03*
X44200000Y23400000D03*
X42200000Y23400000D03*
X40200000Y23400000D03*
X38200000Y23400000D03*
X42200000Y5400000D03*
X34200000Y1400000D03*
X36200000Y1400000D03*
X38200000Y1400000D03*
X40200000Y1400000D03*
X42200000Y1400000D03*
X44200000Y1400000D03*
X44200000Y5400000D03*
X48200000Y5400000D03*
X46200000Y5400000D03*
X50200000Y7400000D03*
X52200000Y7400000D03*
X52200000Y9400000D03*
X50200000Y9400000D03*
X48200000Y9400000D03*
X48200000Y7400000D03*
X46200000Y7400000D03*
X46200000Y9400000D03*
X46200000Y11400000D03*
X44200000Y7400000D03*
X44200000Y9400000D03*
X44200000Y11400000D03*
X30200000Y4900000D03*
X36200000Y6400000D03*
X34200000Y6400000D03*
X28200000Y5400000D03*
X28200000Y3400000D03*
X26200000Y3400000D03*
X24200000Y3400000D03*
X22200000Y3400000D03*
X30200000Y1400000D03*
X28200000Y1400000D03*
X26200000Y1400000D03*
X24200000Y1400000D03*
X22200000Y1400000D03*
X20200000Y1400000D03*
X18200000Y1400000D03*
X12200000Y7400000D03*
X12200000Y5400000D03*
X12200000Y3400000D03*
X12200000Y1400000D03*
X8200000Y1400000D03*
X6200000Y1400000D03*
X6200000Y3400000D03*
X6200000Y5400000D03*
X6200000Y7400000D03*
X4200000Y7400000D03*
X2200000Y7400000D03*
X2200000Y9400000D03*
X4200000Y9400000D03*
X6200000Y9400000D03*
X8200000Y9400000D03*
X14200000Y10400000D03*
X12200000Y10400000D03*
X10200000Y10400000D03*
X10200000Y12400000D03*
X12200000Y12400000D03*
X14200000Y12400000D03*
X16200000Y12400000D03*
X16200000Y14400000D03*
X14200000Y14400000D03*
X9700000Y20900000D03*
X9700000Y22900000D03*
X28200000Y19400000D03*
X26200000Y19400000D03*
X24200000Y19400000D03*
X22200000Y19400000D03*
X26200000Y21400000D03*
X24200000Y21400000D03*
X22200000Y21400000D03*
X28200000Y23400000D03*
X26200000Y23400000D03*
X24200000Y23400000D03*
X22200000Y23400000D03*
X19200000Y25900000D03*
X17200000Y25900000D03*
X15200000Y25900000D03*
X22200000Y25400000D03*
X24200000Y25400000D03*
X26200000Y25400000D03*
X28200000Y25400000D03*
X30200000Y25400000D03*
X32200000Y25400000D03*
X34200000Y25400000D03*
X36200000Y25400000D03*
X38200000Y25400000D03*
X40200000Y25400000D03*
X42200000Y25400000D03*
X44200000Y25400000D03*
X46200000Y27400000D03*
X44200000Y27400000D03*
X42200000Y27400000D03*
X40200000Y27400000D03*
X38200000Y27400000D03*
X36200000Y27400000D03*
X34200000Y27400000D03*
X32200000Y27400000D03*
X30200000Y27400000D03*
X28200000Y27400000D03*
X26200000Y27400000D03*
X24200000Y27400000D03*
X22200000Y27400000D03*
X20200000Y27400000D03*
X18200000Y27400000D03*
X16200000Y27400000D03*
X14200000Y27400000D03*
X12200000Y27400000D03*
X10200000Y27400000D03*
X8200000Y27400000D03*
X6200000Y27400000D03*
D16*
X29855000Y19625000D03*
X29850000Y18625000D03*
X34475000Y8480000D03*
X21925000Y5600000D03*
X27500000Y12300000D03*
X41650000Y21100000D03*
X38300000Y19650000D03*
X35400000Y19000000D03*
X36400000Y19000000D03*
X10950000Y20150000D03*
X18350000Y20450000D03*
X21700000Y8000000D03*
X43750000Y13610000D03*
X9550000Y16700000D03*
X40285000Y16350000D03*
X49450000Y12515000D03*
X45600000Y16600000D03*
X28800000Y21600000D03*
X41290000Y6797000D03*
X19450000Y2575000D03*
X48250000Y18415000D03*
X12350000Y22300000D03*
X10450000Y1950000D03*
X29425000Y8480000D03*
X50600000Y18415000D03*
X45600000Y14300000D03*
X18350000Y2555000D03*
X25880000Y15200000D03*
X41300000Y13610000D03*
X7565000Y10690000D03*
X49450000Y18415000D03*
X28800000Y20700000D03*
X7595000Y22690000D03*
X17400000Y20450000D03*
X8350000Y13500000D03*
X27400000Y9050000D03*
X9450000Y1950000D03*
X10950000Y19250000D03*
X19425000Y19012000D03*
X36200000Y8515000D03*
X48250000Y12515000D03*
X8350000Y19900000D03*
X50600000Y12515000D03*
X30505000Y3200000D03*
X29450000Y13250000D03*
%TD*%
%TA.AperFunction,Conductor*%
%TO.N,GND*%
G36*
X50452065Y28349385D02*
G01*
X50748112Y28332759D01*
X50756346Y28331830D01*
X51046603Y28282514D01*
X51054671Y28280673D01*
X51337605Y28199161D01*
X51345418Y28196427D01*
X51617428Y28083756D01*
X51624904Y28080156D01*
X51882594Y27937737D01*
X51889608Y27933329D01*
X52129716Y27762963D01*
X52136203Y27757791D01*
X52355741Y27561600D01*
X52361604Y27555737D01*
X52557789Y27336205D01*
X52562962Y27329717D01*
X52733324Y27089615D01*
X52737740Y27082588D01*
X52880155Y26824905D01*
X52883755Y26817429D01*
X52996422Y26545429D01*
X52999163Y26537596D01*
X53080669Y26254683D01*
X53082515Y26246592D01*
X53131828Y25956353D01*
X53132758Y25948107D01*
X53149384Y25652066D01*
X53149500Y25647917D01*
X53149500Y2902084D01*
X53149384Y2897935D01*
X53132758Y2601894D01*
X53131828Y2593648D01*
X53082515Y2303409D01*
X53080669Y2295318D01*
X52999163Y2012405D01*
X52996422Y2004572D01*
X52883755Y1732572D01*
X52880155Y1725096D01*
X52737740Y1467413D01*
X52733324Y1460386D01*
X52562962Y1220284D01*
X52557789Y1213796D01*
X52361604Y994264D01*
X52355736Y988396D01*
X52136204Y792211D01*
X52129716Y787038D01*
X51889614Y616676D01*
X51882587Y612260D01*
X51624904Y469845D01*
X51617428Y466245D01*
X51345428Y353578D01*
X51337595Y350837D01*
X51054682Y269331D01*
X51046591Y267485D01*
X50756352Y218172D01*
X50748106Y217242D01*
X50452066Y200616D01*
X50447917Y200500D01*
X2952083Y200500D01*
X2947934Y200616D01*
X2651893Y217242D01*
X2643647Y218172D01*
X2353408Y267485D01*
X2345317Y269331D01*
X2062404Y350837D01*
X2054571Y353578D01*
X1782571Y466245D01*
X1775095Y469845D01*
X1517412Y612260D01*
X1510385Y616676D01*
X1270283Y787038D01*
X1263795Y792211D01*
X1232612Y820078D01*
X1044258Y988401D01*
X1038400Y994259D01*
X842209Y1213797D01*
X837037Y1220284D01*
X709842Y1399548D01*
X666671Y1460392D01*
X662263Y1467406D01*
X519844Y1725096D01*
X516244Y1732572D01*
X506203Y1756814D01*
X403571Y2004586D01*
X400839Y2012395D01*
X399831Y2015895D01*
X13699500Y2015895D01*
X13699500Y1884106D01*
X13733606Y1756819D01*
X13733610Y1756810D01*
X13749822Y1728731D01*
X13799500Y1642686D01*
X13892686Y1549500D01*
X14006814Y1483608D01*
X14134105Y1449501D01*
X14134106Y1449500D01*
X14134108Y1449500D01*
X14265894Y1449500D01*
X14265894Y1449501D01*
X14393186Y1483608D01*
X14507314Y1549500D01*
X14600500Y1642686D01*
X14635914Y1704026D01*
X14680847Y1738504D01*
X14737000Y1731111D01*
X14764085Y1704026D01*
X14799500Y1642686D01*
X14892686Y1549500D01*
X15006814Y1483608D01*
X15134105Y1449501D01*
X15134106Y1449500D01*
X15134108Y1449500D01*
X15265894Y1449500D01*
X15265894Y1449501D01*
X15393186Y1483608D01*
X15507314Y1549500D01*
X15600500Y1642686D01*
X15666392Y1756814D01*
X15700499Y1884106D01*
X15700500Y1884106D01*
X15700500Y2015894D01*
X15700499Y2015895D01*
X15666393Y2143182D01*
X15666392Y2143186D01*
X15600500Y2257314D01*
X15507314Y2350500D01*
X15480649Y2365895D01*
X31849500Y2365895D01*
X31849500Y2234106D01*
X31883606Y2106819D01*
X31883610Y2106810D01*
X31909935Y2061214D01*
X31949500Y1992686D01*
X32042686Y1899500D01*
X32156814Y1833608D01*
X32284105Y1799501D01*
X32284106Y1799500D01*
X32284108Y1799500D01*
X32415894Y1799500D01*
X32415894Y1799501D01*
X32543186Y1833608D01*
X32657314Y1899500D01*
X32750500Y1992686D01*
X32816392Y2106814D01*
X32850499Y2234106D01*
X32850500Y2234106D01*
X32850500Y2365894D01*
X32850499Y2365895D01*
X32846134Y2382184D01*
X32816392Y2493186D01*
X32750500Y2607314D01*
X32657314Y2700500D01*
X32599161Y2734075D01*
X32543190Y2766390D01*
X32543181Y2766394D01*
X32415894Y2800500D01*
X32415892Y2800500D01*
X32284108Y2800500D01*
X32284106Y2800500D01*
X32156818Y2766394D01*
X32156809Y2766390D01*
X32042685Y2700500D01*
X31949500Y2607315D01*
X31883610Y2493191D01*
X31883606Y2493182D01*
X31849500Y2365895D01*
X15480649Y2365895D01*
X15451057Y2382980D01*
X15393190Y2416390D01*
X15393181Y2416394D01*
X15265894Y2450500D01*
X15265892Y2450500D01*
X15134108Y2450500D01*
X15134106Y2450500D01*
X15006818Y2416394D01*
X15006809Y2416390D01*
X14892685Y2350500D01*
X14799500Y2257315D01*
X14764086Y2195976D01*
X14719152Y2161497D01*
X14663000Y2168890D01*
X14635914Y2195976D01*
X14600499Y2257315D01*
X14507314Y2350500D01*
X14393190Y2416390D01*
X14393181Y2416394D01*
X14265894Y2450500D01*
X14265892Y2450500D01*
X14134108Y2450500D01*
X14134106Y2450500D01*
X14006818Y2416394D01*
X14006809Y2416390D01*
X13892685Y2350500D01*
X13799500Y2257315D01*
X13733610Y2143191D01*
X13733606Y2143182D01*
X13699500Y2015895D01*
X399831Y2015895D01*
X319327Y2295329D01*
X317486Y2303397D01*
X268170Y2593654D01*
X267241Y2601894D01*
X264099Y2657838D01*
X250616Y2897935D01*
X250500Y2902084D01*
X250500Y3283767D01*
X33939500Y3283767D01*
X33939500Y3116234D01*
X33972182Y2951925D01*
X33972184Y2951918D01*
X34036296Y2797138D01*
X34100868Y2700500D01*
X34129374Y2657838D01*
X34247838Y2539374D01*
X34387137Y2446297D01*
X34541918Y2382184D01*
X34706233Y2349500D01*
X34706234Y2349500D01*
X34873766Y2349500D01*
X34873767Y2349500D01*
X35038082Y2382184D01*
X35192863Y2446297D01*
X35332162Y2539374D01*
X35450626Y2657838D01*
X35543703Y2797137D01*
X35607816Y2951918D01*
X35640500Y3116233D01*
X35640500Y3283767D01*
X36479500Y3283767D01*
X36479500Y3116234D01*
X36512182Y2951925D01*
X36512184Y2951918D01*
X36576296Y2797138D01*
X36640868Y2700500D01*
X36669374Y2657838D01*
X36787838Y2539374D01*
X36927137Y2446297D01*
X37081918Y2382184D01*
X37246233Y2349500D01*
X37246234Y2349500D01*
X37413766Y2349500D01*
X37413767Y2349500D01*
X37578082Y2382184D01*
X37732863Y2446297D01*
X37872162Y2539374D01*
X37990626Y2657838D01*
X38083703Y2797137D01*
X38147816Y2951918D01*
X38180500Y3116233D01*
X38180500Y3283767D01*
X39019500Y3283767D01*
X39019500Y3116234D01*
X39052182Y2951925D01*
X39052184Y2951918D01*
X39116296Y2797138D01*
X39180868Y2700500D01*
X39209374Y2657838D01*
X39327838Y2539374D01*
X39467137Y2446297D01*
X39621918Y2382184D01*
X39786233Y2349500D01*
X39786234Y2349500D01*
X39953766Y2349500D01*
X39953767Y2349500D01*
X40118082Y2382184D01*
X40272863Y2446297D01*
X40412162Y2539374D01*
X40530626Y2657838D01*
X40623703Y2797137D01*
X40687816Y2951918D01*
X40720500Y3116233D01*
X40720500Y3283767D01*
X40687816Y3448082D01*
X40623703Y3602863D01*
X40530626Y3742162D01*
X40412162Y3860626D01*
X40272863Y3953703D01*
X40272864Y3953703D01*
X40272862Y3953704D01*
X40118772Y4017530D01*
X40118771Y4017531D01*
X40118085Y4017815D01*
X40118075Y4017818D01*
X39994288Y4042440D01*
X39953767Y4050500D01*
X39786233Y4050500D01*
X39753728Y4044035D01*
X39621924Y4017818D01*
X39621917Y4017816D01*
X39467137Y3953704D01*
X39327841Y3860629D01*
X39209371Y3742159D01*
X39116296Y3602863D01*
X39052184Y3448083D01*
X39052182Y3448076D01*
X39019500Y3283767D01*
X38180500Y3283767D01*
X38147816Y3448082D01*
X38083703Y3602863D01*
X37990626Y3742162D01*
X37872162Y3860626D01*
X37732863Y3953703D01*
X37732864Y3953703D01*
X37732862Y3953704D01*
X37578082Y4017816D01*
X37578075Y4017818D01*
X37454288Y4042440D01*
X37413767Y4050500D01*
X37246233Y4050500D01*
X37213728Y4044035D01*
X37081924Y4017818D01*
X37081917Y4017816D01*
X36927137Y3953704D01*
X36787841Y3860629D01*
X36669371Y3742159D01*
X36576296Y3602863D01*
X36512184Y3448083D01*
X36512182Y3448076D01*
X36479500Y3283767D01*
X35640500Y3283767D01*
X35607816Y3448082D01*
X35543703Y3602863D01*
X35450626Y3742162D01*
X35332162Y3860626D01*
X35192863Y3953703D01*
X35192864Y3953703D01*
X35192862Y3953704D01*
X35038082Y4017816D01*
X35038075Y4017818D01*
X34914288Y4042440D01*
X34873767Y4050500D01*
X34706233Y4050500D01*
X34673728Y4044035D01*
X34541924Y4017818D01*
X34541917Y4017816D01*
X34387137Y3953704D01*
X34247841Y3860629D01*
X34129371Y3742159D01*
X34036296Y3602863D01*
X33972184Y3448083D01*
X33972182Y3448076D01*
X33939500Y3283767D01*
X250500Y3283767D01*
X250500Y4083224D01*
X41210000Y4083224D01*
X41210000Y3375000D01*
X41939254Y3375000D01*
X41910000Y3265826D01*
X41910000Y3134174D01*
X41939254Y3025000D01*
X41210001Y3025000D01*
X41210001Y2316776D01*
X41219912Y2248750D01*
X41271213Y2143812D01*
X41353810Y2061215D01*
X41458750Y2009913D01*
X41526781Y2000001D01*
X42235000Y2000001D01*
X42235000Y2729254D01*
X42344174Y2700000D01*
X42475826Y2700000D01*
X42585000Y2729254D01*
X42585000Y2000001D01*
X43293211Y2000001D01*
X43293224Y2000002D01*
X43361250Y2009913D01*
X43466188Y2061214D01*
X43548785Y2143811D01*
X43600087Y2248751D01*
X43609999Y2316777D01*
X43610000Y2316788D01*
X43610000Y3025000D01*
X42880746Y3025000D01*
X42910000Y3134174D01*
X42910000Y3265826D01*
X42880746Y3375000D01*
X43609999Y3375000D01*
X43609999Y4083211D01*
X43609998Y4083225D01*
X43600087Y4151251D01*
X43548786Y4256189D01*
X43466189Y4338786D01*
X43361249Y4390088D01*
X43293223Y4400000D01*
X42585000Y4400000D01*
X42585000Y3670747D01*
X42475826Y3700000D01*
X42344174Y3700000D01*
X42235000Y3670747D01*
X42235000Y4400000D01*
X41526782Y4400000D01*
X41458749Y4390088D01*
X41353811Y4338787D01*
X41271214Y4256190D01*
X41219912Y4151250D01*
X41210000Y4083224D01*
X250500Y4083224D01*
X250500Y7165895D01*
X21924500Y7165895D01*
X21924500Y7034106D01*
X21958606Y6906819D01*
X21958607Y6906816D01*
X21958608Y6906814D01*
X22024500Y6792686D01*
X22117686Y6699500D01*
X22231814Y6633608D01*
X22359105Y6599501D01*
X22359106Y6599500D01*
X22359108Y6599500D01*
X22490894Y6599500D01*
X22490894Y6599501D01*
X22618186Y6633608D01*
X22732314Y6699500D01*
X22825500Y6792686D01*
X22891392Y6906814D01*
X22925499Y7034106D01*
X22925500Y7034106D01*
X22925500Y7165894D01*
X22925499Y7165895D01*
X22891393Y7293182D01*
X22891392Y7293186D01*
X22825500Y7407314D01*
X22732314Y7500500D01*
X22690743Y7524501D01*
X22618190Y7566390D01*
X22618181Y7566394D01*
X22490894Y7600500D01*
X22490892Y7600500D01*
X22359108Y7600500D01*
X22359106Y7600500D01*
X22231818Y7566394D01*
X22231809Y7566390D01*
X22117685Y7500500D01*
X22024500Y7407315D01*
X21958610Y7293191D01*
X21958606Y7293182D01*
X21924500Y7165895D01*
X250500Y7165895D01*
X250500Y7866531D01*
X27324500Y7866531D01*
X27324500Y7733470D01*
X27350458Y7602969D01*
X27350460Y7602962D01*
X27401379Y7480032D01*
X27475304Y7369395D01*
X27569394Y7275305D01*
X27680031Y7201380D01*
X27802961Y7150461D01*
X27802968Y7150459D01*
X27869093Y7137306D01*
X27933469Y7124500D01*
X27933470Y7124500D01*
X28066530Y7124500D01*
X28066531Y7124500D01*
X28197036Y7150460D01*
X28319969Y7201380D01*
X28430606Y7275305D01*
X28524695Y7369394D01*
X28598620Y7480031D01*
X28649540Y7602964D01*
X28675500Y7733469D01*
X28675500Y7866531D01*
X28652669Y7981307D01*
X28650762Y7990895D01*
X34874500Y7990895D01*
X34874500Y7859106D01*
X34908606Y7731819D01*
X34908607Y7731816D01*
X34908608Y7731814D01*
X34974500Y7617686D01*
X35067686Y7524500D01*
X35181814Y7458608D01*
X35309105Y7424501D01*
X35309106Y7424500D01*
X35309108Y7424500D01*
X35440894Y7424500D01*
X35440894Y7424501D01*
X35568186Y7458608D01*
X35682314Y7524500D01*
X35775500Y7617686D01*
X35841392Y7731814D01*
X35875499Y7859106D01*
X35875500Y7859106D01*
X35875500Y7990894D01*
X35875499Y7990895D01*
X35873855Y7997029D01*
X35841392Y8118186D01*
X35775500Y8232314D01*
X35682314Y8325500D01*
X35568190Y8391390D01*
X35568181Y8391394D01*
X35440894Y8425500D01*
X35440892Y8425500D01*
X35309108Y8425500D01*
X35309106Y8425500D01*
X35181818Y8391394D01*
X35181809Y8391390D01*
X35067685Y8325500D01*
X34974500Y8232315D01*
X34908610Y8118191D01*
X34908606Y8118182D01*
X34874500Y7990895D01*
X28650762Y7990895D01*
X28649542Y7997029D01*
X28649539Y7997039D01*
X28598620Y8119969D01*
X28524695Y8230606D01*
X28430605Y8324696D01*
X28319968Y8398621D01*
X28197038Y8449540D01*
X28197031Y8449542D01*
X28088085Y8471213D01*
X28066531Y8475500D01*
X27933469Y8475500D01*
X27914970Y8471821D01*
X27802968Y8449542D01*
X27802961Y8449540D01*
X27680031Y8398621D01*
X27569394Y8324696D01*
X27569393Y8324694D01*
X27475306Y8230607D01*
X27475304Y8230606D01*
X27401379Y8119969D01*
X27350460Y7997039D01*
X27350458Y7997032D01*
X27324500Y7866531D01*
X250500Y7866531D01*
X250500Y8863455D01*
X19948200Y8863455D01*
X19948200Y8716546D01*
X19976858Y8572465D01*
X19976861Y8572454D01*
X20033078Y8436734D01*
X20107939Y8324696D01*
X20114699Y8314580D01*
X20218580Y8210699D01*
X20340731Y8129080D01*
X20476458Y8072860D01*
X20620545Y8044200D01*
X20767455Y8044200D01*
X20911542Y8072860D01*
X21047269Y8129080D01*
X21169420Y8210699D01*
X21273301Y8314580D01*
X21354920Y8436731D01*
X21411140Y8572458D01*
X21439800Y8716545D01*
X21439800Y8863455D01*
X21980200Y8863455D01*
X21980200Y8716546D01*
X22008858Y8572465D01*
X22008861Y8572454D01*
X22065078Y8436734D01*
X22139939Y8324696D01*
X22146699Y8314580D01*
X22250580Y8210699D01*
X22372731Y8129080D01*
X22508458Y8072860D01*
X22652545Y8044200D01*
X22799455Y8044200D01*
X22943542Y8072860D01*
X23079269Y8129080D01*
X23201420Y8210699D01*
X23305301Y8314580D01*
X23386920Y8436731D01*
X23443140Y8572458D01*
X23471800Y8716545D01*
X23471800Y8863455D01*
X23443140Y9007542D01*
X23386920Y9143269D01*
X23305301Y9265420D01*
X23201420Y9369301D01*
X23151032Y9402969D01*
X23079266Y9450922D01*
X22943546Y9507139D01*
X22943535Y9507142D01*
X22799455Y9535800D01*
X22652545Y9535800D01*
X22508464Y9507142D01*
X22508453Y9507139D01*
X22372733Y9450922D01*
X22250583Y9369304D01*
X22146696Y9265417D01*
X22065078Y9143267D01*
X22008861Y9007547D01*
X22008858Y9007536D01*
X21980200Y8863455D01*
X21439800Y8863455D01*
X21411140Y9007542D01*
X21354920Y9143269D01*
X21273301Y9265420D01*
X21169420Y9369301D01*
X21119032Y9402969D01*
X21047266Y9450922D01*
X20911546Y9507139D01*
X20911535Y9507142D01*
X20767455Y9535800D01*
X20620545Y9535800D01*
X20476464Y9507142D01*
X20476453Y9507139D01*
X20340733Y9450922D01*
X20218583Y9369304D01*
X20114696Y9265417D01*
X20033078Y9143267D01*
X19976861Y9007547D01*
X19976858Y9007536D01*
X19948200Y8863455D01*
X250500Y8863455D01*
X250500Y10808170D01*
X17732050Y10808170D01*
X17732050Y10581831D01*
X17767458Y10358280D01*
X17767460Y10358269D01*
X17837397Y10143025D01*
X17940154Y9941350D01*
X18011473Y9843189D01*
X18073193Y9758239D01*
X18233239Y9598193D01*
X18233242Y9598191D01*
X18233243Y9598190D01*
X18416349Y9465155D01*
X18513552Y9415628D01*
X18618019Y9362400D01*
X18618021Y9362400D01*
X18618024Y9362398D01*
X18833268Y9292461D01*
X18833272Y9292461D01*
X18833279Y9292458D01*
X19026263Y9261892D01*
X19056830Y9257050D01*
X19056831Y9257050D01*
X19283170Y9257050D01*
X19310059Y9261310D01*
X19506721Y9292458D01*
X19506729Y9292461D01*
X19506731Y9292461D01*
X19721975Y9362398D01*
X19721975Y9362399D01*
X19721981Y9362400D01*
X19923650Y9465155D01*
X20106761Y9598193D01*
X20266807Y9758239D01*
X20399845Y9941350D01*
X20502600Y10143019D01*
X20572542Y10358279D01*
X20607950Y10581831D01*
X20607950Y10808169D01*
X20607950Y10808170D01*
X22812050Y10808170D01*
X22812050Y10581831D01*
X22847458Y10358280D01*
X22847460Y10358269D01*
X22917397Y10143025D01*
X23020154Y9941350D01*
X23091473Y9843189D01*
X23153193Y9758239D01*
X23313239Y9598193D01*
X23313242Y9598191D01*
X23313243Y9598190D01*
X23496349Y9465155D01*
X23593552Y9415628D01*
X23698019Y9362400D01*
X23698021Y9362400D01*
X23698024Y9362398D01*
X23913268Y9292461D01*
X23913272Y9292461D01*
X23913279Y9292458D01*
X24106263Y9261892D01*
X24136830Y9257050D01*
X24136831Y9257050D01*
X24363170Y9257050D01*
X24390059Y9261310D01*
X24586721Y9292458D01*
X24586729Y9292461D01*
X24586731Y9292461D01*
X24801975Y9362398D01*
X24801975Y9362399D01*
X24801981Y9362400D01*
X25003650Y9465155D01*
X25186761Y9598193D01*
X25346807Y9758239D01*
X25479845Y9941350D01*
X25582600Y10143019D01*
X25652542Y10358279D01*
X25685426Y10565895D01*
X29599500Y10565895D01*
X29599500Y10434106D01*
X29633606Y10306819D01*
X29633610Y10306810D01*
X29699500Y10192686D01*
X29764860Y10127326D01*
X29786534Y10075000D01*
X29764860Y10022674D01*
X29699500Y9957315D01*
X29633610Y9843191D01*
X29633606Y9843182D01*
X29599500Y9715895D01*
X29599500Y9584106D01*
X29633606Y9456819D01*
X29633610Y9456810D01*
X29684132Y9369304D01*
X29699500Y9342686D01*
X29792686Y9249500D01*
X29906814Y9183608D01*
X30034105Y9149501D01*
X30034106Y9149500D01*
X30034108Y9149500D01*
X30165894Y9149500D01*
X30165894Y9149501D01*
X30293186Y9183608D01*
X30407314Y9249500D01*
X30500500Y9342686D01*
X30566392Y9456814D01*
X30600499Y9584106D01*
X30600500Y9584106D01*
X30600500Y9715893D01*
X30597634Y9726588D01*
X30593800Y9740895D01*
X32749500Y9740895D01*
X32749500Y9609106D01*
X32783606Y9481819D01*
X32783610Y9481810D01*
X32829129Y9402969D01*
X32849500Y9367686D01*
X32942686Y9274500D01*
X33056814Y9208608D01*
X33184105Y9174501D01*
X33184106Y9174500D01*
X33184108Y9174500D01*
X33315894Y9174500D01*
X33315894Y9174501D01*
X33443186Y9208608D01*
X33531757Y9259746D01*
X33587909Y9267138D01*
X33630284Y9236772D01*
X33649101Y9208611D01*
X33675304Y9169395D01*
X33769394Y9075305D01*
X33880031Y9001380D01*
X34002961Y8950461D01*
X34002968Y8950459D01*
X34069093Y8937306D01*
X34133469Y8924500D01*
X34133470Y8924500D01*
X34266530Y8924500D01*
X34266531Y8924500D01*
X34397036Y8950460D01*
X34519969Y9001380D01*
X34630606Y9075305D01*
X34724695Y9169394D01*
X34798620Y9280031D01*
X34849540Y9402964D01*
X34875500Y9533469D01*
X34875500Y9666531D01*
X34865681Y9715895D01*
X34849541Y9797032D01*
X34849539Y9797039D01*
X34798620Y9919969D01*
X34724695Y10030606D01*
X34630605Y10124696D01*
X34519968Y10198621D01*
X34397038Y10249540D01*
X34397031Y10249542D01*
X34288085Y10271213D01*
X34266531Y10275500D01*
X34133469Y10275500D01*
X34114970Y10271821D01*
X34002968Y10249542D01*
X34002961Y10249540D01*
X33880031Y10198621D01*
X33769394Y10124696D01*
X33691082Y10046384D01*
X33638756Y10024710D01*
X33586430Y10046384D01*
X33557314Y10075500D01*
X33443190Y10141390D01*
X33443181Y10141394D01*
X33315894Y10175500D01*
X33315892Y10175500D01*
X33184108Y10175500D01*
X33184106Y10175500D01*
X33056818Y10141394D01*
X33056809Y10141390D01*
X32942685Y10075500D01*
X32849500Y9982315D01*
X32783610Y9868191D01*
X32783606Y9868182D01*
X32749500Y9740895D01*
X30593800Y9740895D01*
X30566392Y9843186D01*
X30500500Y9957314D01*
X30435140Y10022674D01*
X30413466Y10075000D01*
X30435140Y10127326D01*
X30450839Y10143025D01*
X30500500Y10192686D01*
X30566392Y10306814D01*
X30600499Y10434106D01*
X30600500Y10434106D01*
X30600500Y10565894D01*
X30600499Y10565895D01*
X30566393Y10693182D01*
X30566392Y10693186D01*
X30500500Y10807314D01*
X30407314Y10900500D01*
X30293190Y10966390D01*
X30293181Y10966394D01*
X30165894Y11000500D01*
X30165892Y11000500D01*
X30034108Y11000500D01*
X30034106Y11000500D01*
X29906818Y10966394D01*
X29906809Y10966390D01*
X29792685Y10900500D01*
X29699500Y10807315D01*
X29633610Y10693191D01*
X29633606Y10693182D01*
X29599500Y10565895D01*
X25685426Y10565895D01*
X25687950Y10581831D01*
X25687950Y10808169D01*
X25652542Y11031721D01*
X25652539Y11031728D01*
X25652539Y11031732D01*
X25582602Y11246976D01*
X25582600Y11246979D01*
X25582600Y11246981D01*
X25529372Y11351448D01*
X25479845Y11448651D01*
X25346810Y11631757D01*
X25346809Y11631758D01*
X25346807Y11631761D01*
X25186761Y11791807D01*
X25186758Y11791810D01*
X25186756Y11791811D01*
X25003650Y11924846D01*
X24801975Y12027603D01*
X24586731Y12097540D01*
X24586722Y12097542D01*
X24586721Y12097542D01*
X24474945Y12115246D01*
X24363170Y12132950D01*
X24363169Y12132950D01*
X24136831Y12132950D01*
X24136830Y12132950D01*
X23913279Y12097542D01*
X23913268Y12097540D01*
X23698024Y12027603D01*
X23496349Y11924846D01*
X23313243Y11791811D01*
X23153189Y11631757D01*
X23020154Y11448651D01*
X22917397Y11246976D01*
X22847460Y11031732D01*
X22847458Y11031721D01*
X22812050Y10808170D01*
X20607950Y10808170D01*
X20572542Y11031721D01*
X20572539Y11031728D01*
X20572539Y11031732D01*
X20502602Y11246976D01*
X20502600Y11246979D01*
X20502600Y11246981D01*
X20449372Y11351448D01*
X20399845Y11448651D01*
X20266810Y11631757D01*
X20266809Y11631758D01*
X20266807Y11631761D01*
X20106761Y11791807D01*
X20106758Y11791810D01*
X20106756Y11791811D01*
X19923650Y11924846D01*
X19721975Y12027603D01*
X19506731Y12097540D01*
X19506722Y12097542D01*
X19506721Y12097542D01*
X19394945Y12115246D01*
X19283170Y12132950D01*
X19283169Y12132950D01*
X19056831Y12132950D01*
X19056830Y12132950D01*
X18833279Y12097542D01*
X18833268Y12097540D01*
X18618024Y12027603D01*
X18416349Y11924846D01*
X18233243Y11791811D01*
X18073189Y11631757D01*
X17940154Y11448651D01*
X17837397Y11246976D01*
X17767460Y11031732D01*
X17767458Y11031721D01*
X17732050Y10808170D01*
X250500Y10808170D01*
X250500Y12560001D01*
X1203157Y12560001D01*
X1203157Y12560000D01*
X1789625Y12560000D01*
X1755444Y12500796D01*
X1735000Y12424496D01*
X1735000Y12345504D01*
X1755444Y12269204D01*
X1789625Y12210000D01*
X1203157Y12210000D01*
X1217663Y12137070D01*
X1217665Y12137064D01*
X1281740Y11982374D01*
X1374761Y11843157D01*
X1493156Y11724762D01*
X1632373Y11631741D01*
X1787063Y11567666D01*
X1787069Y11567664D01*
X1951284Y11535000D01*
X2260000Y11535000D01*
X2260000Y12085000D01*
X2610000Y12085000D01*
X2610000Y11535000D01*
X2918716Y11535000D01*
X3082930Y11567664D01*
X3082936Y11567666D01*
X3237626Y11631741D01*
X3376843Y11724762D01*
X3376845Y11724763D01*
X3495237Y11843155D01*
X3495238Y11843157D01*
X3588259Y11982374D01*
X3652334Y12137064D01*
X3652336Y12137070D01*
X3666842Y12210000D01*
X3080375Y12210000D01*
X3114556Y12269204D01*
X3135000Y12345504D01*
X3135000Y12424496D01*
X3114556Y12500796D01*
X3080375Y12560000D01*
X3666843Y12560000D01*
X3666842Y12560001D01*
X5233157Y12560001D01*
X5233157Y12560000D01*
X5819625Y12560000D01*
X5785444Y12500796D01*
X5765000Y12424496D01*
X5765000Y12345504D01*
X5785444Y12269204D01*
X5819625Y12210000D01*
X5233157Y12210000D01*
X5247663Y12137070D01*
X5247665Y12137064D01*
X5311740Y11982374D01*
X5404761Y11843157D01*
X5523156Y11724762D01*
X5662373Y11631741D01*
X5817063Y11567666D01*
X5817069Y11567664D01*
X5981284Y11535000D01*
X6440000Y11535000D01*
X6440000Y12085000D01*
X6790000Y12085000D01*
X6790000Y11535000D01*
X7248716Y11535000D01*
X7412930Y11567664D01*
X7412936Y11567666D01*
X7567626Y11631741D01*
X7706843Y11724762D01*
X7706845Y11724763D01*
X7825237Y11843155D01*
X7825238Y11843157D01*
X7918259Y11982374D01*
X7982334Y12137064D01*
X7982336Y12137070D01*
X7996842Y12210000D01*
X7410375Y12210000D01*
X7444556Y12269204D01*
X7465000Y12345504D01*
X7465000Y12424496D01*
X7444556Y12500796D01*
X7410375Y12560000D01*
X7996843Y12560000D01*
X7996842Y12560001D01*
X7982336Y12632931D01*
X7982334Y12632937D01*
X7918259Y12787627D01*
X7825238Y12926844D01*
X7706843Y13045239D01*
X7567626Y13138260D01*
X7412936Y13202335D01*
X7412930Y13202337D01*
X7248716Y13235000D01*
X6790000Y13235000D01*
X6790000Y12685000D01*
X6440000Y12685000D01*
X6440000Y13238994D01*
X6421150Y13284502D01*
X6442824Y13336828D01*
X6458149Y13348587D01*
X6468365Y13354485D01*
X6575515Y13461635D01*
X6651281Y13592865D01*
X6690499Y13739232D01*
X6690500Y13739232D01*
X6690500Y13890768D01*
X6690499Y13890769D01*
X6665741Y13983169D01*
X17732050Y13983169D01*
X17732050Y13756831D01*
X17758019Y13592870D01*
X17767458Y13533280D01*
X17767460Y13533269D01*
X17837397Y13318025D01*
X17940154Y13116350D01*
X18019374Y13007314D01*
X18073193Y12933239D01*
X18233239Y12773193D01*
X18233242Y12773191D01*
X18233243Y12773190D01*
X18416349Y12640155D01*
X18513552Y12590628D01*
X18618019Y12537400D01*
X18618021Y12537400D01*
X18618024Y12537398D01*
X18833268Y12467461D01*
X18833272Y12467461D01*
X18833279Y12467458D01*
X19026263Y12436892D01*
X19056830Y12432050D01*
X19056831Y12432050D01*
X19283170Y12432050D01*
X19310059Y12436310D01*
X19506721Y12467458D01*
X19506729Y12467461D01*
X19506731Y12467461D01*
X19721975Y12537398D01*
X19721975Y12537399D01*
X19721981Y12537400D01*
X19923650Y12640155D01*
X20106761Y12773193D01*
X20266807Y12933239D01*
X20399845Y13116350D01*
X20502600Y13318019D01*
X20514448Y13354484D01*
X20572539Y13533269D01*
X20572539Y13533271D01*
X20572542Y13533279D01*
X20607950Y13756831D01*
X20607950Y13943455D01*
X20964200Y13943455D01*
X20964200Y13796546D01*
X20992858Y13652465D01*
X20992861Y13652454D01*
X21049078Y13516734D01*
X21049079Y13516732D01*
X21049080Y13516731D01*
X21130699Y13394580D01*
X21234580Y13290699D01*
X21356731Y13209080D01*
X21356732Y13209080D01*
X21356733Y13209079D01*
X21492453Y13152862D01*
X21492458Y13152860D01*
X21636545Y13124200D01*
X21783455Y13124200D01*
X21927542Y13152860D01*
X22063269Y13209080D01*
X22185420Y13290699D01*
X22289301Y13394580D01*
X22370920Y13516731D01*
X22427140Y13652458D01*
X22455800Y13796545D01*
X22455800Y13943455D01*
X22455800Y13943456D01*
X22450194Y13971642D01*
X22447901Y13983169D01*
X22812050Y13983169D01*
X22812050Y13756831D01*
X22838019Y13592870D01*
X22847458Y13533280D01*
X22847460Y13533269D01*
X22917397Y13318025D01*
X23020154Y13116350D01*
X23099374Y13007314D01*
X23153193Y12933239D01*
X23313239Y12773193D01*
X23313242Y12773191D01*
X23313243Y12773190D01*
X23496349Y12640155D01*
X23593552Y12590628D01*
X23698019Y12537400D01*
X23698021Y12537400D01*
X23698024Y12537398D01*
X23913268Y12467461D01*
X23913272Y12467461D01*
X23913279Y12467458D01*
X24106263Y12436892D01*
X24136830Y12432050D01*
X24136831Y12432050D01*
X24363170Y12432050D01*
X24390059Y12436310D01*
X24586721Y12467458D01*
X24586729Y12467461D01*
X24586731Y12467461D01*
X24801975Y12537398D01*
X24801975Y12537399D01*
X24801981Y12537400D01*
X25003650Y12640155D01*
X25176716Y12765895D01*
X40099500Y12765895D01*
X40099500Y12634106D01*
X40133606Y12506819D01*
X40133610Y12506810D01*
X40156330Y12467458D01*
X40199500Y12392686D01*
X40292686Y12299500D01*
X40406814Y12233608D01*
X40534105Y12199501D01*
X40534106Y12199500D01*
X40534108Y12199500D01*
X40665894Y12199500D01*
X40665894Y12199501D01*
X40793186Y12233608D01*
X40907314Y12299500D01*
X41000500Y12392686D01*
X41066392Y12506814D01*
X41100499Y12634106D01*
X41100500Y12634106D01*
X41100500Y12765894D01*
X41100499Y12765895D01*
X41098544Y12773190D01*
X41066392Y12893186D01*
X41000500Y13007314D01*
X40907314Y13100500D01*
X40816621Y13152862D01*
X40793190Y13166390D01*
X40793181Y13166394D01*
X40665894Y13200500D01*
X40665892Y13200500D01*
X40534108Y13200500D01*
X40534106Y13200500D01*
X40406818Y13166394D01*
X40406809Y13166390D01*
X40292685Y13100500D01*
X40199500Y13007315D01*
X40133610Y12893191D01*
X40133606Y12893182D01*
X40099500Y12765895D01*
X25176716Y12765895D01*
X25186761Y12773193D01*
X25346807Y12933239D01*
X25479845Y13116350D01*
X25582600Y13318019D01*
X25594448Y13354484D01*
X25652539Y13533269D01*
X25652539Y13533271D01*
X25652542Y13533279D01*
X25687950Y13756831D01*
X25687950Y13983169D01*
X25652542Y14206721D01*
X25652539Y14206728D01*
X25652539Y14206732D01*
X25582602Y14421976D01*
X25582600Y14421979D01*
X25582600Y14421981D01*
X25571385Y14443992D01*
X26549500Y14443992D01*
X26549500Y14306009D01*
X26576418Y14170678D01*
X26576421Y14170668D01*
X26629223Y14043192D01*
X26695864Y13943456D01*
X26705886Y13928458D01*
X26803458Y13830886D01*
X26918189Y13754225D01*
X26918190Y13754225D01*
X26918191Y13754224D01*
X26954385Y13739232D01*
X27045672Y13701420D01*
X27181007Y13674500D01*
X27181009Y13674500D01*
X27318991Y13674500D01*
X27318993Y13674500D01*
X27454328Y13701420D01*
X27581811Y13754225D01*
X27696542Y13830886D01*
X27794114Y13928458D01*
X27870775Y14043189D01*
X27923580Y14170672D01*
X27950500Y14306007D01*
X27950500Y14443993D01*
X27939359Y14500000D01*
X48435000Y14500000D01*
X50525000Y14500000D01*
X50525000Y16400000D01*
X48435000Y16400000D01*
X48435000Y14500000D01*
X27939359Y14500000D01*
X27923580Y14579328D01*
X27870775Y14706811D01*
X27794114Y14821542D01*
X27696542Y14919114D01*
X27581811Y14995775D01*
X27581810Y14995776D01*
X27581808Y14995777D01*
X27454332Y15048579D01*
X27454322Y15048582D01*
X27363694Y15066609D01*
X27318993Y15075500D01*
X27181007Y15075500D01*
X27142642Y15067869D01*
X27045677Y15048582D01*
X27045667Y15048579D01*
X26918191Y14995777D01*
X26803461Y14919117D01*
X26705883Y14821539D01*
X26629223Y14706809D01*
X26576421Y14579333D01*
X26576418Y14579323D01*
X26557380Y14483608D01*
X26550557Y14449304D01*
X26549500Y14443992D01*
X25571385Y14443992D01*
X25502426Y14579333D01*
X25479845Y14623651D01*
X25346810Y14806757D01*
X25346809Y14806758D01*
X25346807Y14806761D01*
X25186761Y14966807D01*
X25186758Y14966810D01*
X25186756Y14966811D01*
X25003650Y15099846D01*
X24801975Y15202603D01*
X24586731Y15272540D01*
X24586722Y15272542D01*
X24586721Y15272542D01*
X24474945Y15290246D01*
X24363170Y15307950D01*
X24363169Y15307950D01*
X24136831Y15307950D01*
X24136830Y15307950D01*
X23913279Y15272542D01*
X23913268Y15272540D01*
X23698024Y15202603D01*
X23496349Y15099846D01*
X23313243Y14966811D01*
X23153189Y14806757D01*
X23020154Y14623651D01*
X22917397Y14421976D01*
X22847460Y14206732D01*
X22847458Y14206721D01*
X22820598Y14037135D01*
X22812050Y13983169D01*
X22447901Y13983169D01*
X22427141Y14087536D01*
X22427140Y14087542D01*
X22392708Y14170668D01*
X22370921Y14223267D01*
X22289303Y14345417D01*
X22289301Y14345420D01*
X22185420Y14449301D01*
X22185122Y14449500D01*
X22063266Y14530922D01*
X21927546Y14587139D01*
X21927535Y14587142D01*
X21783455Y14615800D01*
X21636545Y14615800D01*
X21492464Y14587142D01*
X21492453Y14587139D01*
X21356733Y14530922D01*
X21234583Y14449304D01*
X21130696Y14345417D01*
X21049078Y14223267D01*
X20992861Y14087547D01*
X20992858Y14087536D01*
X20964200Y13943455D01*
X20607950Y13943455D01*
X20607950Y13983169D01*
X20572542Y14206721D01*
X20572539Y14206728D01*
X20572539Y14206732D01*
X20512844Y14390453D01*
X20517287Y14446915D01*
X20560355Y14483698D01*
X20602375Y14484798D01*
X20606812Y14483610D01*
X20606814Y14483608D01*
X20734105Y14449501D01*
X20734106Y14449500D01*
X20734108Y14449500D01*
X20865894Y14449500D01*
X20865894Y14449501D01*
X20993186Y14483608D01*
X21107314Y14549500D01*
X21200500Y14642686D01*
X21266392Y14756814D01*
X21300499Y14884106D01*
X21300500Y14884106D01*
X21300500Y15015894D01*
X21300499Y15015895D01*
X21291741Y15048579D01*
X21266392Y15143186D01*
X21200500Y15257314D01*
X21107314Y15350500D01*
X20993190Y15416390D01*
X20993181Y15416394D01*
X20865894Y15450500D01*
X20865892Y15450500D01*
X20734108Y15450500D01*
X20734106Y15450500D01*
X20606818Y15416394D01*
X20606809Y15416390D01*
X20492685Y15350500D01*
X20399500Y15257315D01*
X20333610Y15143191D01*
X20333606Y15143182D01*
X20299500Y15015895D01*
X20299500Y14952720D01*
X20277826Y14900394D01*
X20225500Y14878720D01*
X20173174Y14900394D01*
X20106766Y14966802D01*
X20106761Y14966807D01*
X20106758Y14966810D01*
X20106756Y14966811D01*
X19923650Y15099846D01*
X19721975Y15202603D01*
X19506731Y15272540D01*
X19506722Y15272542D01*
X19506721Y15272542D01*
X19394945Y15290246D01*
X19283170Y15307950D01*
X19283169Y15307950D01*
X19056831Y15307950D01*
X19056830Y15307950D01*
X18833279Y15272542D01*
X18833268Y15272540D01*
X18618024Y15202603D01*
X18416349Y15099846D01*
X18233243Y14966811D01*
X18073189Y14806757D01*
X17940154Y14623651D01*
X17837397Y14421976D01*
X17767460Y14206732D01*
X17767458Y14206721D01*
X17740598Y14037135D01*
X17732050Y13983169D01*
X6665741Y13983169D01*
X6651281Y14037135D01*
X6575515Y14168365D01*
X6468365Y14275515D01*
X6415552Y14306007D01*
X6337139Y14351279D01*
X6337130Y14351283D01*
X6190768Y14390500D01*
X6190766Y14390500D01*
X6039234Y14390500D01*
X6039232Y14390500D01*
X5892869Y14351283D01*
X5892860Y14351279D01*
X5761637Y14275517D01*
X5654483Y14168363D01*
X5578721Y14037140D01*
X5578717Y14037131D01*
X5539500Y13890769D01*
X5539500Y13739232D01*
X5578717Y13592870D01*
X5578721Y13592861D01*
X5613121Y13533279D01*
X5654485Y13461635D01*
X5761635Y13354485D01*
X5761637Y13354484D01*
X5808281Y13327554D01*
X5842760Y13282621D01*
X5835367Y13226468D01*
X5799600Y13195101D01*
X5662373Y13138260D01*
X5523156Y13045239D01*
X5523155Y13045237D01*
X5404763Y12926845D01*
X5404761Y12926844D01*
X5311740Y12787627D01*
X5247665Y12632937D01*
X5247663Y12632931D01*
X5233157Y12560001D01*
X3666842Y12560001D01*
X3652336Y12632931D01*
X3652334Y12632937D01*
X3588259Y12787627D01*
X3495238Y12926844D01*
X3376843Y13045239D01*
X3237626Y13138260D01*
X3082936Y13202335D01*
X3082930Y13202337D01*
X2918716Y13235000D01*
X2610000Y13235000D01*
X2610000Y12685000D01*
X2260000Y12685000D01*
X2260000Y13235000D01*
X1951284Y13235000D01*
X1787069Y13202337D01*
X1787063Y13202335D01*
X1632373Y13138260D01*
X1493156Y13045239D01*
X1493155Y13045237D01*
X1374763Y12926845D01*
X1374761Y12926844D01*
X1281740Y12787627D01*
X1217665Y12632937D01*
X1217663Y12632931D01*
X1203157Y12560001D01*
X250500Y12560001D01*
X250500Y17415895D01*
X39799500Y17415895D01*
X39799500Y17284106D01*
X39833606Y17156819D01*
X39833607Y17156816D01*
X39833608Y17156814D01*
X39899500Y17042686D01*
X39992686Y16949500D01*
X40106814Y16883608D01*
X40234105Y16849501D01*
X40234106Y16849500D01*
X40234108Y16849500D01*
X40365894Y16849500D01*
X40365894Y16849501D01*
X40493186Y16883608D01*
X40607314Y16949500D01*
X40700500Y17042686D01*
X40766392Y17156814D01*
X40800499Y17284106D01*
X40800500Y17284106D01*
X40800500Y17415894D01*
X40800499Y17415895D01*
X40766393Y17543182D01*
X40766392Y17543186D01*
X40700500Y17657314D01*
X40607314Y17750500D01*
X40493190Y17816390D01*
X40493181Y17816394D01*
X40365894Y17850500D01*
X40365892Y17850500D01*
X40234108Y17850500D01*
X40234106Y17850500D01*
X40106818Y17816394D01*
X40106809Y17816390D01*
X39992685Y17750500D01*
X39899500Y17657315D01*
X39833610Y17543191D01*
X39833606Y17543182D01*
X39799500Y17415895D01*
X250500Y17415895D01*
X250500Y21200001D01*
X1203157Y21200001D01*
X1203157Y21200000D01*
X1789625Y21200000D01*
X1755444Y21140796D01*
X1735000Y21064496D01*
X1735000Y20985504D01*
X1755444Y20909204D01*
X1789625Y20850000D01*
X1203157Y20850000D01*
X1217663Y20777070D01*
X1217665Y20777064D01*
X1281740Y20622374D01*
X1374761Y20483157D01*
X1493156Y20364762D01*
X1632373Y20271741D01*
X1787063Y20207666D01*
X1787069Y20207664D01*
X1951284Y20175000D01*
X2260000Y20175000D01*
X2260000Y20725000D01*
X2610000Y20725000D01*
X2610000Y20175000D01*
X2918716Y20175000D01*
X3082930Y20207664D01*
X3082936Y20207666D01*
X3237626Y20271741D01*
X3376843Y20364762D01*
X3376845Y20364763D01*
X3495237Y20483155D01*
X3495238Y20483157D01*
X3588259Y20622374D01*
X3652334Y20777064D01*
X3652336Y20777070D01*
X3666842Y20850000D01*
X3080375Y20850000D01*
X3114556Y20909204D01*
X3135000Y20985504D01*
X3135000Y21064496D01*
X3114556Y21140796D01*
X3080375Y21200000D01*
X3666843Y21200000D01*
X3666842Y21200001D01*
X5233157Y21200001D01*
X5233157Y21200000D01*
X5819625Y21200000D01*
X5785444Y21140796D01*
X5765000Y21064496D01*
X5765000Y20985504D01*
X5785444Y20909204D01*
X5819625Y20850000D01*
X5233157Y20850000D01*
X5247663Y20777070D01*
X5247665Y20777064D01*
X5311740Y20622374D01*
X5404761Y20483157D01*
X5523156Y20364762D01*
X5662374Y20271740D01*
X5799599Y20214900D01*
X5839648Y20174852D01*
X5839648Y20118215D01*
X5808282Y20082448D01*
X5761638Y20055518D01*
X5761638Y20055517D01*
X5761635Y20055515D01*
X5654485Y19948365D01*
X5654483Y19948363D01*
X5578721Y19817140D01*
X5578717Y19817131D01*
X5539500Y19670769D01*
X5539500Y19519232D01*
X5578717Y19372870D01*
X5578718Y19372867D01*
X5578719Y19372865D01*
X5654485Y19241635D01*
X5761635Y19134485D01*
X5892865Y19058719D01*
X6039231Y19019501D01*
X6039232Y19019500D01*
X6039234Y19019500D01*
X6190768Y19019500D01*
X6190768Y19019501D01*
X6337135Y19058719D01*
X6468365Y19134485D01*
X6575515Y19241635D01*
X6651281Y19372865D01*
X6690499Y19519232D01*
X6690500Y19519232D01*
X6690500Y19670768D01*
X6690499Y19670769D01*
X6651282Y19817131D01*
X6651281Y19817135D01*
X6575515Y19948365D01*
X6468365Y20055515D01*
X6458148Y20061414D01*
X6423671Y20106348D01*
X6431065Y20162501D01*
X6440000Y20174145D01*
X6440000Y20725000D01*
X6790000Y20725000D01*
X6790000Y20175000D01*
X7248716Y20175000D01*
X7412930Y20207664D01*
X7412936Y20207666D01*
X7567626Y20271741D01*
X7706843Y20364762D01*
X7706845Y20364763D01*
X7825237Y20483155D01*
X7825238Y20483157D01*
X7918259Y20622374D01*
X7982334Y20777064D01*
X7982336Y20777070D01*
X7996842Y20850000D01*
X7410375Y20850000D01*
X7444556Y20909204D01*
X7465000Y20985504D01*
X7465000Y21064496D01*
X7444556Y21140796D01*
X7410375Y21200000D01*
X7996843Y21200000D01*
X7996842Y21200001D01*
X7982336Y21272931D01*
X7982334Y21272937D01*
X7918259Y21427627D01*
X7825238Y21566844D01*
X7706843Y21685239D01*
X7567626Y21778260D01*
X7412936Y21842335D01*
X7412930Y21842337D01*
X7248716Y21875000D01*
X6790000Y21875000D01*
X6790000Y21325000D01*
X6440000Y21325000D01*
X6440000Y21875000D01*
X5981284Y21875000D01*
X5817069Y21842337D01*
X5817063Y21842335D01*
X5662373Y21778260D01*
X5523156Y21685239D01*
X5523155Y21685237D01*
X5404763Y21566845D01*
X5404761Y21566844D01*
X5311740Y21427627D01*
X5247665Y21272937D01*
X5247663Y21272931D01*
X5233157Y21200001D01*
X3666842Y21200001D01*
X3652336Y21272931D01*
X3652334Y21272937D01*
X3588259Y21427627D01*
X3495238Y21566844D01*
X3376843Y21685239D01*
X3237626Y21778260D01*
X3082936Y21842335D01*
X3082930Y21842337D01*
X2918716Y21875000D01*
X2610000Y21875000D01*
X2610000Y21325000D01*
X2260000Y21325000D01*
X2260000Y21875000D01*
X1951284Y21875000D01*
X1787069Y21842337D01*
X1787063Y21842335D01*
X1632373Y21778260D01*
X1493156Y21685239D01*
X1493155Y21685237D01*
X1374763Y21566845D01*
X1374761Y21566844D01*
X1281740Y21427627D01*
X1217665Y21272937D01*
X1217663Y21272931D01*
X1203157Y21200001D01*
X250500Y21200001D01*
X250500Y22415895D01*
X30349500Y22415895D01*
X30349500Y22284106D01*
X30383606Y22156819D01*
X30383610Y22156810D01*
X30439086Y22060724D01*
X30449500Y22042686D01*
X30542686Y21949500D01*
X30656814Y21883608D01*
X30784105Y21849501D01*
X30784106Y21849500D01*
X30784108Y21849500D01*
X30915894Y21849500D01*
X30915894Y21849501D01*
X31043186Y21883608D01*
X31157314Y21949500D01*
X31250500Y22042686D01*
X31260914Y22060725D01*
X31305847Y22095202D01*
X31362000Y22087810D01*
X31389085Y22060725D01*
X31399500Y22042686D01*
X31492686Y21949500D01*
X31606814Y21883608D01*
X31734105Y21849501D01*
X31734106Y21849500D01*
X31734108Y21849500D01*
X31865894Y21849500D01*
X31865894Y21849501D01*
X31993186Y21883608D01*
X32107314Y21949500D01*
X32200500Y22042686D01*
X32266392Y22156814D01*
X32300499Y22284106D01*
X32300500Y22284106D01*
X32300500Y22415894D01*
X32300499Y22415895D01*
X32266393Y22543182D01*
X32266392Y22543186D01*
X32200500Y22657314D01*
X32107314Y22750500D01*
X31993190Y22816390D01*
X31993181Y22816394D01*
X31865894Y22850500D01*
X31865892Y22850500D01*
X31734108Y22850500D01*
X31734106Y22850500D01*
X31606818Y22816394D01*
X31606809Y22816390D01*
X31492685Y22750500D01*
X31399499Y22657314D01*
X31389085Y22639276D01*
X31344151Y22604798D01*
X31287999Y22612192D01*
X31260915Y22639276D01*
X31250500Y22657314D01*
X31157314Y22750500D01*
X31043190Y22816390D01*
X31043181Y22816394D01*
X30915894Y22850500D01*
X30915892Y22850500D01*
X30784108Y22850500D01*
X30784106Y22850500D01*
X30656818Y22816394D01*
X30656809Y22816390D01*
X30542685Y22750500D01*
X30449500Y22657315D01*
X30383610Y22543191D01*
X30383606Y22543182D01*
X30349500Y22415895D01*
X250500Y22415895D01*
X250500Y24465895D01*
X16849500Y24465895D01*
X16849500Y24334106D01*
X16883606Y24206819D01*
X16883610Y24206810D01*
X16914086Y24154025D01*
X16949500Y24092686D01*
X17042686Y23999500D01*
X17156814Y23933608D01*
X17284105Y23899501D01*
X17284106Y23899500D01*
X17284108Y23899500D01*
X17415894Y23899500D01*
X17415894Y23899501D01*
X17543186Y23933608D01*
X17657314Y23999500D01*
X17750500Y24092686D01*
X17785914Y24154026D01*
X17830847Y24188504D01*
X17887000Y24181111D01*
X17914085Y24154026D01*
X17949500Y24092686D01*
X18042686Y23999500D01*
X18156814Y23933608D01*
X18284105Y23899501D01*
X18284106Y23899500D01*
X18284108Y23899500D01*
X18415894Y23899500D01*
X18415894Y23899501D01*
X18543186Y23933608D01*
X18657314Y23999500D01*
X18750500Y24092686D01*
X18816392Y24206814D01*
X18828522Y24252085D01*
X18863000Y24297017D01*
X18919152Y24304410D01*
X18964086Y24269931D01*
X18971477Y24252088D01*
X18983607Y24206819D01*
X18983608Y24206814D01*
X18983610Y24206810D01*
X19014086Y24154025D01*
X19049500Y24092686D01*
X19142686Y23999500D01*
X19256814Y23933608D01*
X19384105Y23899501D01*
X19384106Y23899500D01*
X19384108Y23899500D01*
X19515894Y23899500D01*
X19515894Y23899501D01*
X19643186Y23933608D01*
X19757314Y23999500D01*
X19850500Y24092686D01*
X19916392Y24206814D01*
X19950499Y24334106D01*
X19950500Y24334106D01*
X19950500Y24465894D01*
X19950499Y24465895D01*
X19916393Y24593182D01*
X19916392Y24593186D01*
X19850500Y24707314D01*
X19757314Y24800500D01*
X19643190Y24866390D01*
X19643181Y24866394D01*
X19515894Y24900500D01*
X19515892Y24900500D01*
X19384108Y24900500D01*
X19384106Y24900500D01*
X19256818Y24866394D01*
X19256809Y24866390D01*
X19142685Y24800500D01*
X19049500Y24707315D01*
X18983610Y24593191D01*
X18983606Y24593182D01*
X18971478Y24547917D01*
X18937000Y24502984D01*
X18880847Y24495592D01*
X18835914Y24530070D01*
X18828522Y24547917D01*
X18816393Y24593182D01*
X18816392Y24593186D01*
X18750500Y24707314D01*
X18657314Y24800500D01*
X18543190Y24866390D01*
X18543181Y24866394D01*
X18415894Y24900500D01*
X18415892Y24900500D01*
X18284108Y24900500D01*
X18284106Y24900500D01*
X18156818Y24866394D01*
X18156809Y24866390D01*
X18042685Y24800500D01*
X17949500Y24707315D01*
X17914086Y24645976D01*
X17869152Y24611497D01*
X17813000Y24618890D01*
X17785914Y24645976D01*
X17750499Y24707315D01*
X17657314Y24800500D01*
X17543190Y24866390D01*
X17543181Y24866394D01*
X17415894Y24900500D01*
X17415892Y24900500D01*
X17284108Y24900500D01*
X17284106Y24900500D01*
X17156818Y24866394D01*
X17156809Y24866390D01*
X17042685Y24800500D01*
X16949500Y24707315D01*
X16883610Y24593191D01*
X16883606Y24593182D01*
X16849500Y24465895D01*
X250500Y24465895D01*
X250500Y25647917D01*
X250616Y25652066D01*
X267241Y25948107D01*
X268171Y25956353D01*
X317487Y26246608D01*
X319326Y26254668D01*
X400841Y26537611D01*
X403571Y26545414D01*
X516246Y26817436D01*
X519840Y26824898D01*
X662268Y27082603D01*
X666665Y27089601D01*
X837044Y27329727D01*
X842202Y27336196D01*
X1038408Y27555751D01*
X1044249Y27561592D01*
X1263804Y27757798D01*
X1270273Y27762956D01*
X1510399Y27933335D01*
X1517397Y27937732D01*
X1775102Y28080160D01*
X1782564Y28083754D01*
X2054586Y28196429D01*
X2062389Y28199159D01*
X2345332Y28280674D01*
X2353392Y28282513D01*
X2643655Y28331830D01*
X2651885Y28332759D01*
X2947934Y28349385D01*
X2952083Y28349500D01*
X2997595Y28349500D01*
X50402405Y28349500D01*
X50447917Y28349500D01*
X50452065Y28349385D01*
G37*
%TD.AperFunction*%
%TD*%
M02*
