%TF.GenerationSoftware,KiCad,Pcbnew,9.0.6*%
%TF.CreationDate,2026-04-21T21:21:04+02:00*%
%TF.ProjectId,STM32WB_PCB2,53544d33-3257-4425-9f50-4342322e6b69,rev?*%
%TF.SameCoordinates,PX371f540PY6f01f80*%
%TF.FileFunction,Soldermask,Bot*%
%TF.FilePolarity,Negative*%
%FSLAX46Y46*%
G04 Gerber Fmt 4.6, Leading zero omitted, Abs format (unit mm)*
G04 Created by KiCad (PCBNEW 9.0.6) date 2026-04-21 21:21:04*
%MOMM*%
%LPD*%
G01*
G04 APERTURE LIST*
G04 APERTURE END LIST*
G36*
X3394806Y5136190D02*
G01*
X3682882Y5059001D01*
X3958418Y4944870D01*
X4216700Y4795751D01*
X4453308Y4614195D01*
X4664195Y4403308D01*
X4845751Y4166700D01*
X4994870Y3908418D01*
X5109001Y3632882D01*
X5186190Y3344806D01*
X5225118Y3049119D01*
X5225118Y2750881D01*
X5186190Y2455194D01*
X5109001Y2167118D01*
X4994870Y1891582D01*
X4845751Y1633300D01*
X4664195Y1396692D01*
X4453308Y1185805D01*
X4216700Y1004249D01*
X3958418Y855130D01*
X3682882Y740999D01*
X3394806Y663810D01*
X3099119Y624882D01*
X2800881Y624882D01*
X2505194Y663810D01*
X2217118Y740999D01*
X1941582Y855130D01*
X1683300Y1004249D01*
X1446692Y1185805D01*
X1235805Y1396692D01*
X1054249Y1633300D01*
X905130Y1891582D01*
X790999Y2167118D01*
X713810Y2455194D01*
X674882Y2750881D01*
X674882Y3049119D01*
X713810Y3344806D01*
X790999Y3632882D01*
X905130Y3908418D01*
X1054249Y4166700D01*
X1235805Y4403308D01*
X1446692Y4614195D01*
X1683300Y4795751D01*
X1941582Y4944870D01*
X2217118Y5059001D01*
X2505194Y5136190D01*
X2800881Y5175118D01*
X3099119Y5175118D01*
X3394806Y5136190D01*
G37*
G36*
X50894806Y5136190D02*
G01*
X51182882Y5059001D01*
X51458418Y4944870D01*
X51716700Y4795751D01*
X51953308Y4614195D01*
X52164195Y4403308D01*
X52345751Y4166700D01*
X52494870Y3908418D01*
X52609001Y3632882D01*
X52686190Y3344806D01*
X52725118Y3049119D01*
X52725118Y2750881D01*
X52686190Y2455194D01*
X52609001Y2167118D01*
X52494870Y1891582D01*
X52345751Y1633300D01*
X52164195Y1396692D01*
X51953308Y1185805D01*
X51716700Y1004249D01*
X51458418Y855130D01*
X51182882Y740999D01*
X50894806Y663810D01*
X50599119Y624882D01*
X50300881Y624882D01*
X50005194Y663810D01*
X49717118Y740999D01*
X49441582Y855130D01*
X49183300Y1004249D01*
X48946692Y1185805D01*
X48735805Y1396692D01*
X48554249Y1633300D01*
X48405130Y1891582D01*
X48290999Y2167118D01*
X48213810Y2455194D01*
X48174882Y2750881D01*
X48174882Y3049119D01*
X48213810Y3344806D01*
X48290999Y3632882D01*
X48405130Y3908418D01*
X48554249Y4166700D01*
X48735805Y4403308D01*
X48946692Y4614195D01*
X49183300Y4795751D01*
X49441582Y4944870D01*
X49717118Y5059001D01*
X50005194Y5136190D01*
X50300881Y5175118D01*
X50599119Y5175118D01*
X50894806Y5136190D01*
G37*
G36*
X43290615Y4123910D02*
G01*
X43316569Y4106569D01*
X43333910Y4080615D01*
X43340000Y4050000D01*
X43340000Y2350000D01*
X43333910Y2319385D01*
X43316569Y2293431D01*
X43290615Y2276090D01*
X43260000Y2270000D01*
X41560000Y2270000D01*
X41529385Y2276090D01*
X41503431Y2293431D01*
X41486090Y2319385D01*
X41480000Y2350000D01*
X41480000Y4050000D01*
X41486090Y4080615D01*
X41503431Y4106569D01*
X41529385Y4123910D01*
X41560000Y4130000D01*
X43260000Y4130000D01*
X43290615Y4123910D01*
G37*
G36*
X35059965Y4089955D02*
G01*
X35228399Y4020187D01*
X35379986Y3918900D01*
X35508900Y3789986D01*
X35610187Y3638399D01*
X35679955Y3469965D01*
X35715522Y3291156D01*
X35715522Y3108844D01*
X35679955Y2930035D01*
X35610187Y2761601D01*
X35508900Y2610014D01*
X35379986Y2481100D01*
X35228399Y2379813D01*
X35059965Y2310045D01*
X34881156Y2274478D01*
X34698844Y2274478D01*
X34520035Y2310045D01*
X34351601Y2379813D01*
X34200014Y2481100D01*
X34071100Y2610014D01*
X33969813Y2761601D01*
X33900045Y2930035D01*
X33864478Y3108844D01*
X33864478Y3291156D01*
X33900045Y3469965D01*
X33969813Y3638399D01*
X34071100Y3789986D01*
X34200014Y3918900D01*
X34351601Y4020187D01*
X34520035Y4089955D01*
X34698844Y4125522D01*
X34881156Y4125522D01*
X35059965Y4089955D01*
G37*
G36*
X37599965Y4089955D02*
G01*
X37768399Y4020187D01*
X37919986Y3918900D01*
X38048900Y3789986D01*
X38150187Y3638399D01*
X38219955Y3469965D01*
X38255522Y3291156D01*
X38255522Y3108844D01*
X38219955Y2930035D01*
X38150187Y2761601D01*
X38048900Y2610014D01*
X37919986Y2481100D01*
X37768399Y2379813D01*
X37599965Y2310045D01*
X37421156Y2274478D01*
X37238844Y2274478D01*
X37060035Y2310045D01*
X36891601Y2379813D01*
X36740014Y2481100D01*
X36611100Y2610014D01*
X36509813Y2761601D01*
X36440045Y2930035D01*
X36404478Y3108844D01*
X36404478Y3291156D01*
X36440045Y3469965D01*
X36509813Y3638399D01*
X36611100Y3789986D01*
X36740014Y3918900D01*
X36891601Y4020187D01*
X37060035Y4089955D01*
X37238844Y4125522D01*
X37421156Y4125522D01*
X37599965Y4089955D01*
G37*
G36*
X40139965Y4089955D02*
G01*
X40308399Y4020187D01*
X40459986Y3918900D01*
X40588900Y3789986D01*
X40690187Y3638399D01*
X40759955Y3469965D01*
X40795522Y3291156D01*
X40795522Y3108844D01*
X40759955Y2930035D01*
X40690187Y2761601D01*
X40588900Y2610014D01*
X40459986Y2481100D01*
X40308399Y2379813D01*
X40139965Y2310045D01*
X39961156Y2274478D01*
X39778844Y2274478D01*
X39600035Y2310045D01*
X39431601Y2379813D01*
X39280014Y2481100D01*
X39151100Y2610014D01*
X39049813Y2761601D01*
X38980045Y2930035D01*
X38944478Y3108844D01*
X38944478Y3291156D01*
X38980045Y3469965D01*
X39049813Y3638399D01*
X39151100Y3789986D01*
X39280014Y3918900D01*
X39431601Y4020187D01*
X39600035Y4089955D01*
X39778844Y4125522D01*
X39961156Y4125522D01*
X40139965Y4089955D01*
G37*
G36*
X20759975Y9360378D02*
G01*
X20769092Y9360378D01*
X20795357Y9353341D01*
X20860928Y9340298D01*
X20891879Y9327478D01*
X20914158Y9321508D01*
X20934133Y9309976D01*
X20965079Y9297157D01*
X21020663Y9260017D01*
X21044220Y9246416D01*
X21050667Y9239969D01*
X21058811Y9234527D01*
X21138526Y9154812D01*
X21143967Y9146669D01*
X21150416Y9140220D01*
X21164018Y9116660D01*
X21201156Y9061080D01*
X21213973Y9030137D01*
X21225508Y9010158D01*
X21231478Y8987876D01*
X21244297Y8956929D01*
X21257339Y8891361D01*
X21264378Y8865092D01*
X21264378Y8855976D01*
X21266289Y8846368D01*
X21266289Y8733633D01*
X21264378Y8724026D01*
X21264378Y8714908D01*
X21257338Y8688637D01*
X21244297Y8623072D01*
X21231479Y8592128D01*
X21225508Y8569842D01*
X21213971Y8549861D01*
X21201156Y8518921D01*
X21164022Y8463348D01*
X21150416Y8439780D01*
X21143964Y8433329D01*
X21138526Y8425189D01*
X21058811Y8345474D01*
X21050671Y8340036D01*
X21044220Y8333584D01*
X21020652Y8319978D01*
X20965079Y8282844D01*
X20934139Y8270029D01*
X20914158Y8258492D01*
X20891872Y8252521D01*
X20860928Y8239703D01*
X20795363Y8226662D01*
X20769092Y8219622D01*
X20759974Y8219622D01*
X20750367Y8217711D01*
X20637633Y8217711D01*
X20628026Y8219622D01*
X20618908Y8219622D01*
X20592637Y8226662D01*
X20527071Y8239703D01*
X20496124Y8252522D01*
X20473842Y8258492D01*
X20453863Y8270027D01*
X20422920Y8282844D01*
X20367340Y8319982D01*
X20343780Y8333584D01*
X20337331Y8340033D01*
X20329188Y8345474D01*
X20249473Y8425189D01*
X20244031Y8433333D01*
X20237584Y8439780D01*
X20223983Y8463337D01*
X20186843Y8518921D01*
X20174024Y8549867D01*
X20162492Y8569842D01*
X20156522Y8592121D01*
X20143702Y8623072D01*
X20130659Y8688643D01*
X20123622Y8714908D01*
X20123622Y8724026D01*
X20121711Y8733633D01*
X20121711Y8846368D01*
X20123622Y8855976D01*
X20123622Y8865092D01*
X20130659Y8891355D01*
X20143702Y8956929D01*
X20156523Y8987882D01*
X20162492Y9010158D01*
X20174023Y9030131D01*
X20186843Y9061080D01*
X20223987Y9116671D01*
X20237584Y9140220D01*
X20244029Y9146666D01*
X20249473Y9154812D01*
X20329188Y9234527D01*
X20337334Y9239971D01*
X20343780Y9246416D01*
X20367329Y9260013D01*
X20422920Y9297157D01*
X20453869Y9309977D01*
X20473842Y9321508D01*
X20496118Y9327477D01*
X20527071Y9340298D01*
X20592643Y9353341D01*
X20618908Y9360378D01*
X20628025Y9360378D01*
X20637633Y9362289D01*
X20750367Y9362289D01*
X20759975Y9360378D01*
G37*
G36*
X22791975Y9360378D02*
G01*
X22801092Y9360378D01*
X22827357Y9353341D01*
X22892928Y9340298D01*
X22923879Y9327478D01*
X22946158Y9321508D01*
X22966133Y9309976D01*
X22997079Y9297157D01*
X23052663Y9260017D01*
X23076220Y9246416D01*
X23082667Y9239969D01*
X23090811Y9234527D01*
X23170526Y9154812D01*
X23175967Y9146669D01*
X23182416Y9140220D01*
X23196018Y9116660D01*
X23233156Y9061080D01*
X23245973Y9030137D01*
X23257508Y9010158D01*
X23263478Y8987876D01*
X23276297Y8956929D01*
X23289339Y8891361D01*
X23296378Y8865092D01*
X23296378Y8855976D01*
X23298289Y8846368D01*
X23298289Y8733633D01*
X23296378Y8724026D01*
X23296378Y8714908D01*
X23289338Y8688637D01*
X23276297Y8623072D01*
X23263479Y8592128D01*
X23257508Y8569842D01*
X23245971Y8549861D01*
X23233156Y8518921D01*
X23196022Y8463348D01*
X23182416Y8439780D01*
X23175964Y8433329D01*
X23170526Y8425189D01*
X23090811Y8345474D01*
X23082671Y8340036D01*
X23076220Y8333584D01*
X23052652Y8319978D01*
X22997079Y8282844D01*
X22966139Y8270029D01*
X22946158Y8258492D01*
X22923872Y8252521D01*
X22892928Y8239703D01*
X22827363Y8226662D01*
X22801092Y8219622D01*
X22791974Y8219622D01*
X22782367Y8217711D01*
X22669633Y8217711D01*
X22660026Y8219622D01*
X22650908Y8219622D01*
X22624637Y8226662D01*
X22559071Y8239703D01*
X22528124Y8252522D01*
X22505842Y8258492D01*
X22485863Y8270027D01*
X22454920Y8282844D01*
X22399340Y8319982D01*
X22375780Y8333584D01*
X22369331Y8340033D01*
X22361188Y8345474D01*
X22281473Y8425189D01*
X22276031Y8433333D01*
X22269584Y8439780D01*
X22255983Y8463337D01*
X22218843Y8518921D01*
X22206024Y8549867D01*
X22194492Y8569842D01*
X22188522Y8592121D01*
X22175702Y8623072D01*
X22162659Y8688643D01*
X22155622Y8714908D01*
X22155622Y8724026D01*
X22153711Y8733633D01*
X22153711Y8846368D01*
X22155622Y8855976D01*
X22155622Y8865092D01*
X22162659Y8891355D01*
X22175702Y8956929D01*
X22188523Y8987882D01*
X22194492Y9010158D01*
X22206023Y9030131D01*
X22218843Y9061080D01*
X22255987Y9116671D01*
X22269584Y9140220D01*
X22276029Y9146666D01*
X22281473Y9154812D01*
X22361188Y9234527D01*
X22369334Y9239971D01*
X22375780Y9246416D01*
X22399329Y9260013D01*
X22454920Y9297157D01*
X22485869Y9309977D01*
X22505842Y9321508D01*
X22528118Y9327477D01*
X22559071Y9340298D01*
X22624643Y9353341D01*
X22650908Y9360378D01*
X22660025Y9360378D01*
X22669633Y9362289D01*
X22782367Y9362289D01*
X22791975Y9360378D01*
G37*
G36*
X19465880Y11927430D02*
G01*
X19655032Y11865971D01*
X19832241Y11775679D01*
X19993143Y11658777D01*
X20133777Y11518143D01*
X20250679Y11357241D01*
X20340971Y11180032D01*
X20402430Y10990880D01*
X20433543Y10794443D01*
X20433543Y10595557D01*
X20402430Y10399120D01*
X20340971Y10209968D01*
X20250679Y10032759D01*
X20133777Y9871857D01*
X19993143Y9731223D01*
X19832241Y9614321D01*
X19655032Y9524029D01*
X19465880Y9462570D01*
X19269443Y9431457D01*
X19070557Y9431457D01*
X18874120Y9462570D01*
X18684968Y9524029D01*
X18507759Y9614321D01*
X18346857Y9731223D01*
X18206223Y9871857D01*
X18089321Y10032759D01*
X17999029Y10209968D01*
X17937570Y10399120D01*
X17906457Y10595557D01*
X17906457Y10794443D01*
X17937570Y10990880D01*
X17999029Y11180032D01*
X18089321Y11357241D01*
X18206223Y11518143D01*
X18346857Y11658777D01*
X18507759Y11775679D01*
X18684968Y11865971D01*
X18874120Y11927430D01*
X19070557Y11958543D01*
X19269443Y11958543D01*
X19465880Y11927430D01*
G37*
G36*
X24545880Y11927430D02*
G01*
X24735032Y11865971D01*
X24912241Y11775679D01*
X25073143Y11658777D01*
X25213777Y11518143D01*
X25330679Y11357241D01*
X25420971Y11180032D01*
X25482430Y10990880D01*
X25513543Y10794443D01*
X25513543Y10595557D01*
X25482430Y10399120D01*
X25420971Y10209968D01*
X25330679Y10032759D01*
X25213777Y9871857D01*
X25073143Y9731223D01*
X24912241Y9614321D01*
X24735032Y9524029D01*
X24545880Y9462570D01*
X24349443Y9431457D01*
X24150557Y9431457D01*
X23954120Y9462570D01*
X23764968Y9524029D01*
X23587759Y9614321D01*
X23426857Y9731223D01*
X23286223Y9871857D01*
X23169321Y10032759D01*
X23079029Y10209968D01*
X23017570Y10399120D01*
X22986457Y10595557D01*
X22986457Y10794443D01*
X23017570Y10990880D01*
X23079029Y11180032D01*
X23169321Y11357241D01*
X23286223Y11518143D01*
X23426857Y11658777D01*
X23587759Y11775679D01*
X23764968Y11865971D01*
X23954120Y11927430D01*
X24150557Y11958543D01*
X24349443Y11958543D01*
X24545880Y11927430D01*
G37*
G36*
X2900263Y12880722D02*
G01*
X3026342Y12846940D01*
X3139381Y12781677D01*
X3231677Y12689381D01*
X3296940Y12576342D01*
X3330722Y12450263D01*
X3330722Y12319737D01*
X3296940Y12193658D01*
X3231677Y12080619D01*
X3139381Y11988323D01*
X3026342Y11923060D01*
X2900263Y11889278D01*
X2835000Y11885000D01*
X2833363Y11885000D01*
X2036637Y11885000D01*
X2035000Y11885000D01*
X1969737Y11889278D01*
X1843658Y11923060D01*
X1730619Y11988323D01*
X1638323Y12080619D01*
X1573060Y12193658D01*
X1539278Y12319737D01*
X1539278Y12450263D01*
X1573060Y12576342D01*
X1638323Y12689381D01*
X1730619Y12781677D01*
X1843658Y12846940D01*
X1969737Y12880722D01*
X2035000Y12885000D01*
X2835000Y12885000D01*
X2900263Y12880722D01*
G37*
G36*
X7230263Y12880722D02*
G01*
X7356342Y12846940D01*
X7469381Y12781677D01*
X7561677Y12689381D01*
X7626940Y12576342D01*
X7660722Y12450263D01*
X7660722Y12319737D01*
X7626940Y12193658D01*
X7561677Y12080619D01*
X7469381Y11988323D01*
X7356342Y11923060D01*
X7230263Y11889278D01*
X7165000Y11885000D01*
X7163363Y11885000D01*
X6066637Y11885000D01*
X6065000Y11885000D01*
X5999737Y11889278D01*
X5873658Y11923060D01*
X5760619Y11988323D01*
X5668323Y12080619D01*
X5603060Y12193658D01*
X5569278Y12319737D01*
X5569278Y12450263D01*
X5603060Y12576342D01*
X5668323Y12689381D01*
X5760619Y12781677D01*
X5873658Y12846940D01*
X5999737Y12880722D01*
X6065000Y12885000D01*
X7165000Y12885000D01*
X7230263Y12880722D01*
G37*
G36*
X19465880Y15102430D02*
G01*
X19655032Y15040971D01*
X19832241Y14950679D01*
X19993143Y14833777D01*
X20133777Y14693143D01*
X20250679Y14532241D01*
X20340971Y14355032D01*
X20402430Y14165880D01*
X20433543Y13969443D01*
X20433543Y13770557D01*
X20402430Y13574120D01*
X20340971Y13384968D01*
X20250679Y13207759D01*
X20133777Y13046857D01*
X19993143Y12906223D01*
X19832241Y12789321D01*
X19655032Y12699029D01*
X19465880Y12637570D01*
X19269443Y12606457D01*
X19070557Y12606457D01*
X18874120Y12637570D01*
X18684968Y12699029D01*
X18507759Y12789321D01*
X18346857Y12906223D01*
X18206223Y13046857D01*
X18089321Y13207759D01*
X17999029Y13384968D01*
X17937570Y13574120D01*
X17906457Y13770557D01*
X17906457Y13969443D01*
X17937570Y14165880D01*
X17999029Y14355032D01*
X18089321Y14532241D01*
X18206223Y14693143D01*
X18346857Y14833777D01*
X18507759Y14950679D01*
X18684968Y15040971D01*
X18874120Y15102430D01*
X19070557Y15133543D01*
X19269443Y15133543D01*
X19465880Y15102430D01*
G37*
G36*
X24545880Y15102430D02*
G01*
X24735032Y15040971D01*
X24912241Y14950679D01*
X25073143Y14833777D01*
X25213777Y14693143D01*
X25330679Y14532241D01*
X25420971Y14355032D01*
X25482430Y14165880D01*
X25513543Y13969443D01*
X25513543Y13770557D01*
X25482430Y13574120D01*
X25420971Y13384968D01*
X25330679Y13207759D01*
X25213777Y13046857D01*
X25073143Y12906223D01*
X24912241Y12789321D01*
X24735032Y12699029D01*
X24545880Y12637570D01*
X24349443Y12606457D01*
X24150557Y12606457D01*
X23954120Y12637570D01*
X23764968Y12699029D01*
X23587759Y12789321D01*
X23426857Y12906223D01*
X23286223Y13046857D01*
X23169321Y13207759D01*
X23079029Y13384968D01*
X23017570Y13574120D01*
X22986457Y13770557D01*
X22986457Y13969443D01*
X23017570Y14165880D01*
X23079029Y14355032D01*
X23169321Y14532241D01*
X23286223Y14693143D01*
X23426857Y14833777D01*
X23587759Y14950679D01*
X23764968Y15040971D01*
X23954120Y15102430D01*
X24150557Y15133543D01*
X24349443Y15133543D01*
X24545880Y15102430D01*
G37*
G36*
X21775975Y14440378D02*
G01*
X21785092Y14440378D01*
X21811357Y14433341D01*
X21876928Y14420298D01*
X21907879Y14407478D01*
X21930158Y14401508D01*
X21950133Y14389976D01*
X21981079Y14377157D01*
X22036663Y14340017D01*
X22060220Y14326416D01*
X22066667Y14319969D01*
X22074811Y14314527D01*
X22154526Y14234812D01*
X22159967Y14226669D01*
X22166416Y14220220D01*
X22180018Y14196660D01*
X22217156Y14141080D01*
X22229973Y14110137D01*
X22241508Y14090158D01*
X22247478Y14067876D01*
X22260297Y14036929D01*
X22273339Y13971361D01*
X22280378Y13945092D01*
X22280378Y13935976D01*
X22282289Y13926368D01*
X22282289Y13813633D01*
X22280378Y13804026D01*
X22280378Y13794908D01*
X22273338Y13768637D01*
X22260297Y13703072D01*
X22247479Y13672128D01*
X22241508Y13649842D01*
X22229971Y13629861D01*
X22217156Y13598921D01*
X22180022Y13543348D01*
X22166416Y13519780D01*
X22159964Y13513329D01*
X22154526Y13505189D01*
X22074811Y13425474D01*
X22066671Y13420036D01*
X22060220Y13413584D01*
X22036652Y13399978D01*
X21981079Y13362844D01*
X21950139Y13350029D01*
X21930158Y13338492D01*
X21907872Y13332521D01*
X21876928Y13319703D01*
X21811363Y13306662D01*
X21785092Y13299622D01*
X21775974Y13299622D01*
X21766367Y13297711D01*
X21653633Y13297711D01*
X21644026Y13299622D01*
X21634908Y13299622D01*
X21608637Y13306662D01*
X21543071Y13319703D01*
X21512124Y13332522D01*
X21489842Y13338492D01*
X21469863Y13350027D01*
X21438920Y13362844D01*
X21383340Y13399982D01*
X21359780Y13413584D01*
X21353331Y13420033D01*
X21345188Y13425474D01*
X21265473Y13505189D01*
X21260031Y13513333D01*
X21253584Y13519780D01*
X21239983Y13543337D01*
X21202843Y13598921D01*
X21190024Y13629867D01*
X21178492Y13649842D01*
X21172522Y13672121D01*
X21159702Y13703072D01*
X21146659Y13768643D01*
X21139622Y13794908D01*
X21139622Y13804026D01*
X21137711Y13813633D01*
X21137711Y13926368D01*
X21139622Y13935976D01*
X21139622Y13945092D01*
X21146659Y13971355D01*
X21159702Y14036929D01*
X21172523Y14067882D01*
X21178492Y14090158D01*
X21190023Y14110131D01*
X21202843Y14141080D01*
X21239987Y14196671D01*
X21253584Y14220220D01*
X21260029Y14226666D01*
X21265473Y14234812D01*
X21345188Y14314527D01*
X21353334Y14319971D01*
X21359780Y14326416D01*
X21383329Y14340013D01*
X21438920Y14377157D01*
X21469869Y14389977D01*
X21489842Y14401508D01*
X21512118Y14407477D01*
X21543071Y14420298D01*
X21608643Y14433341D01*
X21634908Y14440378D01*
X21644025Y14440378D01*
X21653633Y14442289D01*
X21766367Y14442289D01*
X21775975Y14440378D01*
G37*
G36*
X6239372Y14115261D02*
G01*
X6312847Y14072840D01*
X6372840Y14012847D01*
X6415261Y13939372D01*
X6437220Y13857421D01*
X6437220Y13772579D01*
X6415261Y13690628D01*
X6372840Y13617153D01*
X6312847Y13557160D01*
X6239372Y13514739D01*
X6157421Y13492780D01*
X6072579Y13492780D01*
X5990628Y13514739D01*
X5917153Y13557160D01*
X5857160Y13617153D01*
X5814739Y13690628D01*
X5792780Y13772579D01*
X5792780Y13857421D01*
X5814739Y13939372D01*
X5857160Y14012847D01*
X5917153Y14072840D01*
X5990628Y14115261D01*
X6072579Y14137220D01*
X6157421Y14137220D01*
X6239372Y14115261D01*
G37*
G36*
X6239372Y19895261D02*
G01*
X6312847Y19852840D01*
X6372840Y19792847D01*
X6415261Y19719372D01*
X6437220Y19637421D01*
X6437220Y19552579D01*
X6415261Y19470628D01*
X6372840Y19397153D01*
X6312847Y19337160D01*
X6239372Y19294739D01*
X6157421Y19272780D01*
X6072579Y19272780D01*
X5990628Y19294739D01*
X5917153Y19337160D01*
X5857160Y19397153D01*
X5814739Y19470628D01*
X5792780Y19552579D01*
X5792780Y19637421D01*
X5814739Y19719372D01*
X5857160Y19792847D01*
X5917153Y19852840D01*
X5990628Y19895261D01*
X6072579Y19917220D01*
X6157421Y19917220D01*
X6239372Y19895261D01*
G37*
G36*
X2900263Y21520722D02*
G01*
X3026342Y21486940D01*
X3139381Y21421677D01*
X3231677Y21329381D01*
X3296940Y21216342D01*
X3330722Y21090263D01*
X3330722Y20959737D01*
X3296940Y20833658D01*
X3231677Y20720619D01*
X3139381Y20628323D01*
X3026342Y20563060D01*
X2900263Y20529278D01*
X2835000Y20525000D01*
X2833363Y20525000D01*
X2036637Y20525000D01*
X2035000Y20525000D01*
X1969737Y20529278D01*
X1843658Y20563060D01*
X1730619Y20628323D01*
X1638323Y20720619D01*
X1573060Y20833658D01*
X1539278Y20959737D01*
X1539278Y21090263D01*
X1573060Y21216342D01*
X1638323Y21329381D01*
X1730619Y21421677D01*
X1843658Y21486940D01*
X1969737Y21520722D01*
X2035000Y21525000D01*
X2835000Y21525000D01*
X2900263Y21520722D01*
G37*
G36*
X7230263Y21520722D02*
G01*
X7356342Y21486940D01*
X7469381Y21421677D01*
X7561677Y21329381D01*
X7626940Y21216342D01*
X7660722Y21090263D01*
X7660722Y20959737D01*
X7626940Y20833658D01*
X7561677Y20720619D01*
X7469381Y20628323D01*
X7356342Y20563060D01*
X7230263Y20529278D01*
X7165000Y20525000D01*
X7163363Y20525000D01*
X6066637Y20525000D01*
X6065000Y20525000D01*
X5999737Y20529278D01*
X5873658Y20563060D01*
X5760619Y20628323D01*
X5668323Y20720619D01*
X5603060Y20833658D01*
X5569278Y20959737D01*
X5569278Y21090263D01*
X5603060Y21216342D01*
X5668323Y21329381D01*
X5760619Y21421677D01*
X5873658Y21486940D01*
X5999737Y21520722D01*
X6065000Y21525000D01*
X7165000Y21525000D01*
X7230263Y21520722D01*
G37*
G36*
X3394806Y27886190D02*
G01*
X3682882Y27809001D01*
X3958418Y27694870D01*
X4216700Y27545751D01*
X4453308Y27364195D01*
X4664195Y27153308D01*
X4845751Y26916700D01*
X4994870Y26658418D01*
X5109001Y26382882D01*
X5186190Y26094806D01*
X5225118Y25799119D01*
X5225118Y25500881D01*
X5186190Y25205194D01*
X5109001Y24917118D01*
X4994870Y24641582D01*
X4845751Y24383300D01*
X4664195Y24146692D01*
X4453308Y23935805D01*
X4216700Y23754249D01*
X3958418Y23605130D01*
X3682882Y23490999D01*
X3394806Y23413810D01*
X3099119Y23374882D01*
X2800881Y23374882D01*
X2505194Y23413810D01*
X2217118Y23490999D01*
X1941582Y23605130D01*
X1683300Y23754249D01*
X1446692Y23935805D01*
X1235805Y24146692D01*
X1054249Y24383300D01*
X905130Y24641582D01*
X790999Y24917118D01*
X713810Y25205194D01*
X674882Y25500881D01*
X674882Y25799119D01*
X713810Y26094806D01*
X790999Y26382882D01*
X905130Y26658418D01*
X1054249Y26916700D01*
X1235805Y27153308D01*
X1446692Y27364195D01*
X1683300Y27545751D01*
X1941582Y27694870D01*
X2217118Y27809001D01*
X2505194Y27886190D01*
X2800881Y27925118D01*
X3099119Y27925118D01*
X3394806Y27886190D01*
G37*
G36*
X50894806Y27886190D02*
G01*
X51182882Y27809001D01*
X51458418Y27694870D01*
X51716700Y27545751D01*
X51953308Y27364195D01*
X52164195Y27153308D01*
X52345751Y26916700D01*
X52494870Y26658418D01*
X52609001Y26382882D01*
X52686190Y26094806D01*
X52725118Y25799119D01*
X52725118Y25500881D01*
X52686190Y25205194D01*
X52609001Y24917118D01*
X52494870Y24641582D01*
X52345751Y24383300D01*
X52164195Y24146692D01*
X51953308Y23935805D01*
X51716700Y23754249D01*
X51458418Y23605130D01*
X51182882Y23490999D01*
X50894806Y23413810D01*
X50599119Y23374882D01*
X50300881Y23374882D01*
X50005194Y23413810D01*
X49717118Y23490999D01*
X49441582Y23605130D01*
X49183300Y23754249D01*
X48946692Y23935805D01*
X48735805Y24146692D01*
X48554249Y24383300D01*
X48405130Y24641582D01*
X48290999Y24917118D01*
X48213810Y25205194D01*
X48174882Y25500881D01*
X48174882Y25799119D01*
X48213810Y26094806D01*
X48290999Y26382882D01*
X48405130Y26658418D01*
X48554249Y26916700D01*
X48735805Y27153308D01*
X48946692Y27364195D01*
X49183300Y27545751D01*
X49441582Y27694870D01*
X49717118Y27809001D01*
X50005194Y27886190D01*
X50300881Y27925118D01*
X50599119Y27925118D01*
X50894806Y27886190D01*
G37*
M02*
